<?xml version="1.0" encoding="UTF-8"?> <svg xmlns="http://www.w3.org/2000/svg" width="161" height="116" fill="none" viewBox="0 0 161 116"> <g filter="url(#filter0_d)"> <rect width="135" height="91" x="15.5" y="14.5" stroke="#4BC68B" rx="7.5"></rect> </g> <g filter="url(#filter1_d)"> <rect width="136" height="91" x="10" y="10" fill="#4BC68B" rx="8"></rect> </g> <path fill="#fff" d="M58.744 59.452h5.906v1.943h-2.81v13.652h-3.096V59.452zM68.152 69.192l.53-7.797h.178l.531 7.797h-1.24zm-3.43 5.855h3.032l.287-4.142h1.46l.289 4.142h3.03l-1.615-15.595h-4.867l-1.615 15.595zM77.255 69.589v2.94c0 .396.305.511.483.511a.5.5 0 00.495-.511v-3.63c0-.486-.09-1.023-1.245-1.023h-1.257v-1.713h1.308c.876 0 1.194-.205 1.194-1.163v-3.094a.5.5 0 00-.496-.511c-.177 0-.482.102-.482.511v2.544h-3.098v-2.211c0-1.087.127-2.787 2.298-2.787h2.565c2.17 0 2.31 1.7 2.31 2.787v2.492c0 1.7-1.18 2.16-2.107 2.122v.154c2.082-.052 2.108 1.56 2.108 2.109v3.144c0 1.1-.14 2.787-2.311 2.787h-2.565c-2.17 0-2.298-1.687-2.298-2.787V69.59h3.098zM83.361 59.452h7.174v15.595h-3.098V61.395h-.978v13.652h-3.098V59.452zM95.664 68.03v-6.635h.406c.33 0 .572.281.572.78v5.075c0 .498-.241.78-.572.78h-.406zm-3.098 7.017h3.098v-5.305h1.778c2.158 0 2.298-1.687 2.298-2.787V62.24c0-1.087-.14-2.787-2.298-2.787h-4.876v15.595zM105.847 72.529a.5.5 0 01-.495.511.477.477 0 01-.483-.511V61.906c0-.409.305-.511.483-.511a.5.5 0 01.495.511V72.53zm-4.076-.269c0 1.1.14 2.787 2.298 2.787h2.578c2.158 0 2.298-1.687 2.298-2.787V62.24c0-1.087-.14-2.787-2.298-2.787h-2.578c-2.158 0-2.298 1.7-2.298 2.787V72.26zM119.025 59.452h4.037v15.595h-3.098v-9.779h-.114l-1.6 9.78h-2.475l-1.587-9.78h-.115v9.78h-3.097V59.451H115l2.019 10.968 2.006-10.968zM54.729 38.13c-.948-4.18-3.325-7.58-3.653-8.13-.518.78-2.413 3.784-3.377 7.107-1.052 3.72-1.207 7.018-.844 10.252.36 3.247 1.723 6.583 1.723 6.583.723 1.739 1.808 3.618 2.514 4.538 1.034-1.355 3.412-5.394 4.154-10.66.412-2.94.43-5.51-.517-9.69zm-3.653 19.302c-.466-.882-1.19-2.556-1.258-5.164-.018-2.506.982-4.666 1.274-5.113.26.447 1.12 2.326 1.223 4.896.07 2.505-.758 4.486-1.239 5.381zm3.377-12.208c-.035 1.598-.224 3.286-.466 4.296.087-1.739-.12-4.18-.516-6.098-.396-1.905-1.517-5.1-2.412-6.57-.827 1.406-1.845 4.167-2.378 6.557-.536 2.39-.551 5.292-.551 6.162-.143-.729-.498-3.35-.398-5.97.084-2.16.587-4.397.862-5.42 1.051-3.413 2.241-5.599 2.465-5.944.223.345 1.721 3.042 2.498 5.867.773 2.825.93 5.535.896 7.12z"></path> <path fill="#fff" d="M52.685 59.452h-7.21v4.87c.007 0 .012-.013.018-.013a4.327 4.327 0 016.154 0c1.699 1.7 1.699 4.475 0 6.187-.008.013-.015.013-.023.026-.009 0-.018.013-.025.025a8.652 8.652 0 01-6.124 2.532 8.606 8.606 0 01-6.145-2.557c-2.99-3.004-3.345-7.67-1.065-11.07.307-.46.662-.895 1.065-1.304a8.607 8.607 0 016.145-2.556v-11.71C36.928 43.882 30 50.85 30 59.452c0 8.603 6.928 15.582 15.475 15.582 4.457 0 8.471-1.904 11.295-4.934V59.452h-4.085z"></path> <defs> <filter id="filter0_d" width="156" height="112" x="5" y="4" color-interpolation-filters="sRGB" filterUnits="userSpaceOnUse"> <feFlood flood-opacity="0" result="BackgroundImageFix"></feFlood> <feColorMatrix in="SourceAlpha" values="0 0 0 0 0 0 0 0 0 0 0 0 0 0 0 0 0 0 127 0"></feColorMatrix> <feOffset></feOffset> <feGaussianBlur stdDeviation="5"></feGaussianBlur> <feColorMatrix values="0 0 0 0 0.294118 0 0 0 0 0.776471 0 0 0 0 0.545098 0 0 0 0.6 0"></feColorMatrix> <feBlend in2="BackgroundImageFix" result="effect1_dropShadow"></feBlend> <feBlend in="SourceGraphic" in2="effect1_dropShadow" result="shape"></feBlend> </filter> <filter id="filter1_d" width="156" height="111" x="0" y="0" color-interpolation-filters="sRGB" filterUnits="userSpaceOnUse"> <feFlood flood-opacity="0" result="BackgroundImageFix"></feFlood> <feColorMatrix in="SourceAlpha" values="0 0 0 0 0 0 0 0 0 0 0 0 0 0 0 0 0 0 127 0"></feColorMatrix> <feOffset></feOffset> <feGaussianBlur stdDeviation="5"></feGaussianBlur> <feColorMatrix values="0 0 0 0 0.294118 0 0 0 0 0.776471 0 0 0 0 0.545098 0 0 0 0.6 0"></feColorMatrix> <feBlend in2="BackgroundImageFix" result="effect1_dropShadow"></feBlend> <feBlend in="SourceGraphic" in2="effect1_dropShadow" result="shape"></feBlend> </filter> </defs> </svg> 