<?xml version="1.0" encoding="UTF-8"?> <svg xmlns="http://www.w3.org/2000/svg" width="88" height="64" fill="none" viewBox="0 0 88 64"> <path fill="#fff" fill-rule="evenodd" d="M68.79 5.277h-2.328A5.857 5.857 0 0063.285 6.5a5.155 5.155 0 00-.838.906 4.432 4.432 0 00-.825 2.29v21.545h5.074v-8.46h2.795v-4.358h-2.795V9.366h2.315v5.57h5.024V9.94a4.806 4.806 0 00-.874-2.456 4.846 4.846 0 00-2.032-1.645l-.148-.061c-.27-.12-.55-.22-.837-.294h-.074a6.565 6.565 0 00-1.01-.16h-.222l-.049-.048zM35.625 31.242v-21.4A4.802 4.802 0 0137.35 6.55a5.857 5.857 0 013.177-1.224h2.55c.34.026.677.08 1.01.159h.073a5.165 5.165 0 012.662 1.626 5.114 5.114 0 011.23 2.854v4.983h-5.025V9.206H40.7v22.036h-5.074zm35.22 13.833h-20.27v14.788h-.11a2.027 2.027 0 00-1.024.91 2.01 2.01 0 00.495 2.521 2.039 2.039 0 002.584 0 2.01 2.01 0 00.495-2.521 2.028 2.028 0 00-1.024-.91h-.11V46.397h20.281V31.242h1.823v-5.227h-5.024v5.227h1.896l-.012 13.833zm6.416 4.799H55.403v9.99h-.11a2.028 2.028 0 00-1.024.91 2.01 2.01 0 00.495 2.52 2.04 2.04 0 002.584 0 2.01 2.01 0 00.495-2.521 2.027 2.027 0 00-1.023-.91h-.111v-8.691h21.87V40.3h2.07V9.206h2.327v22.036H88V9.94a5.114 5.114 0 00-1.23-2.855A5.165 5.165 0 0084.11 5.46h-.074a6.575 6.575 0 00-1.01-.159h-2.55A5.845 5.845 0 0077.3 6.525a4.83 4.83 0 00-1.724 3.293v30.434h1.674l.013 9.622zm-52.485-9.72h12.635v19.71h.11c.437.175.8.497 1.024.91a2.01 2.01 0 01-.495 2.52 2.04 2.04 0 01-2.584 0 2.01 2.01 0 01-.495-2.521 2.028 2.028 0 011.023-.91h.111V41.501H23.472V31.24h-1.97V9.844a5.083 5.083 0 011.701-3.278 5.14 5.14 0 013.483-1.276h2.093a5.165 5.165 0 013.52 1.318 5.106 5.106 0 011.677 3.346v21.289h-5.012v-8.46h-2.315v8.46h-1.872v8.912zm29.309 0h-8.337v19.71h-.111a2.027 2.027 0 00-1.023.91 2.01 2.01 0 00.494 2.52 2.04 2.04 0 002.584 0 2.01 2.01 0 00.495-2.521 2.027 2.027 0 00-1.023-.91h-.111V41.501h8.337V31.24h1.933V9.269h3.695V5.277H48.618v3.99h3.694v21.975h1.737l.037 8.912zm-9.384-4.64v-4.272h-1.675v-5.227h5.024v5.227h-2.044v5.607H42.24v23.26h.11c.438.175.8.497 1.024.909a2.01 2.01 0 01-.495 2.521 2.04 2.04 0 01-2.584 0 2.01 2.01 0 01-.495-2.521 2.028 2.028 0 011.024-.91h.11V35.514h3.769zM16.588 46.348h14.691v13.466h-.11a2.028 2.028 0 00-1.024.91 2.01 2.01 0 00.495 2.521 2.04 2.04 0 002.584 0 2.01 2.01 0 00.495-2.521 2.028 2.028 0 00-1.024-.91h-.11V45.038H17.892V31.205h1.97V4.64a5.106 5.106 0 00-1.685-3.33A5.165 5.165 0 0014.667 0h-2.082a5.627 5.627 0 00-2.84.882 5.581 5.581 0 00-1.987 2.203H5.074a5.152 5.152 0 00-3.464 1.38A5.093 5.093 0 000 7.81v23.43h5.061V7.028h2.34v24.215h5.061V3.992h2.463v27.25h1.712l-.05 15.106zM26.575 18.4h2.315V9.206h-2.315V18.4z" clip-rule="evenodd"></path> </svg> 