<?xml version="1.0" encoding="UTF-8"?> <svg xmlns="http://www.w3.org/2000/svg" width="161" height="116" fill="none" viewBox="0 0 161 116"> <g filter="url(#filter0_d)"> <rect width="135" height="91" x="15.5" y="14.5" stroke="#4BC68B" rx="7.5"></rect> </g> <g filter="url(#filter1_d)"> <rect width="136" height="91" x="10" y="10" fill="#4BC68B" rx="8"></rect> </g> <path fill="#fff" fill-rule="evenodd" d="M33.862 37l-1.717 4.66h23.789L57.65 37H33.862zm-2.575 6.99l-1.717 4.66h23.788l1.717-4.66H31.287zm-2.57 6.99L27 55.64h23.788l1.716-4.66H28.717zM77.573 57.417v.098c1.087.396 2.125 1.087 2.67 1.532 1.68 1.383 2.423 3.21 2.423 5.581 0 3.904-2.077 6.719-5.49 7.608-1.038.296-2.125.396-4.153.396H62.69V44.08h9.148c1.879 0 3.163.098 4.3.394 3.314.89 5.49 3.163 5.49 6.768 0 1.927-.693 3.557-1.83 4.643a6.932 6.932 0 01-2.225 1.532zm-9.147 3.013v7.508h3.956c1.185 0 2.273-.098 3.065-.84.791-.74 1.137-1.679 1.137-2.914 0-.938-.248-1.827-.742-2.47-.84-1.037-1.879-1.284-3.658-1.284h-3.758zm-.05-4.94h3.214c.989 0 1.483 0 1.977-.148 1.336-.396 2.177-1.58 2.177-3.21 0-1.927-.89-2.767-2.177-3.162-.544-.148-1.087-.198-2.175-.198h-3.016v6.718zm22.892 17.142V48.87h-8.256V44.08h22.942l-1.631 4.79h-7.32v23.762H91.27zm16.465 0V44.08h18.592l-1.631 4.79H113.42v6.324h4.599c3.708 0 5.636.89 6.971 2.025 1.039.89 2.818 2.865 2.818 6.768 0 3.853-1.829 5.977-3.362 7.064-1.779 1.234-3.658 1.58-7.466 1.58h-9.247zm5.687-4.792h4.302c1.631 0 2.62-.395 3.312-1.285.347-.444.841-1.235.841-2.717 0-1.481-.494-2.519-1.483-3.26-.593-.444-1.385-.69-2.72-.69h-4.252v7.952z" clip-rule="evenodd"></path> <defs> <filter id="filter0_d" width="156" height="112" x="5" y="4" color-interpolation-filters="sRGB" filterUnits="userSpaceOnUse"> <feFlood flood-opacity="0" result="BackgroundImageFix"></feFlood> <feColorMatrix in="SourceAlpha" values="0 0 0 0 0 0 0 0 0 0 0 0 0 0 0 0 0 0 127 0"></feColorMatrix> <feOffset></feOffset> <feGaussianBlur stdDeviation="5"></feGaussianBlur> <feColorMatrix values="0 0 0 0 0.294118 0 0 0 0 0.776471 0 0 0 0 0.545098 0 0 0 0.6 0"></feColorMatrix> <feBlend in2="BackgroundImageFix" result="effect1_dropShadow"></feBlend> <feBlend in="SourceGraphic" in2="effect1_dropShadow" result="shape"></feBlend> </filter> <filter id="filter1_d" width="156" height="111" x="0" y="0" color-interpolation-filters="sRGB" filterUnits="userSpaceOnUse"> <feFlood flood-opacity="0" result="BackgroundImageFix"></feFlood> <feColorMatrix in="SourceAlpha" values="0 0 0 0 0 0 0 0 0 0 0 0 0 0 0 0 0 0 127 0"></feColorMatrix> <feOffset></feOffset> <feGaussianBlur stdDeviation="5"></feGaussianBlur> <feColorMatrix values="0 0 0 0 0.294118 0 0 0 0 0.776471 0 0 0 0 0.545098 0 0 0 0.6 0"></feColorMatrix> <feBlend in2="BackgroundImageFix" result="effect1_dropShadow"></feBlend> <feBlend in="SourceGraphic" in2="effect1_dropShadow" result="shape"></feBlend> </filter> </defs> </svg> 