<?xml version="1.0" encoding="UTF-8"?> <svg xmlns="http://www.w3.org/2000/svg" width="160" height="60" fill="none" viewBox="0 0 160 60"> <path fill="#565656" d="M6.408 54.64c0 .152-.072.24-.216.264-.296.048-.628.088-.996.12-.36.04-.824.06-1.392.06-.376 0-.752-.064-1.128-.192a2.82 2.82 0 01-.996-.636c-.288-.296-.524-.68-.708-1.152-.184-.48-.276-1.064-.276-1.752v-1.608c0-.728.096-1.332.288-1.812.192-.48.44-.864.744-1.152a2.505 2.505 0 011.032-.6c.384-.12.768-.18 1.152-.18.56 0 1.02.02 1.38.06.368.032.668.068.9.108a.382.382 0 01.144.048c.04.024.06.068.06.132v.6c0 .08-.052.12-.156.12h-.048a12.013 12.013 0 00-.516-.036 5.07 5.07 0 00-.504-.024 12.749 12.749 0 00-.576-.012c-.2-.008-.428-.012-.684-.012-.28 0-.548.044-.804.132a1.56 1.56 0 00-.684.444c-.192.208-.348.492-.468.852-.112.352-.168.796-.168 1.332v1.608c0 .496.052.92.156 1.272.104.344.248.628.432.852.184.224.396.388.636.492.248.096.512.144.792.144a14.765 14.765 0 001.512-.072v-3.432c0-.064.02-.12.06-.168a.193.193 0 01.156-.072h.648c.064 0 .116.024.156.072a.23.23 0 01.072.168v4.032zm8.752-3.324c0 .664-.08 1.236-.24 1.716-.16.472-.384.86-.672 1.164a2.626 2.626 0 01-1.032.672 3.733 3.733 0 01-1.296.216c-.472 0-.908-.072-1.308-.216a2.642 2.642 0 01-1.02-.672c-.288-.304-.516-.692-.684-1.164-.16-.48-.24-1.052-.24-1.716v-1.548c0-.664.08-1.232.24-1.704.168-.48.396-.872.684-1.176a2.642 2.642 0 011.02-.672c.4-.144.836-.216 1.308-.216.472 0 .904.072 1.296.216.4.144.744.368 1.032.672.288.304.512.696.672 1.176.16.472.24 1.04.24 1.704v1.548zm-1.104-1.548c0-.504-.052-.932-.156-1.284a2.294 2.294 0 00-.42-.864 1.537 1.537 0 00-.672-.48 2.405 2.405 0 00-.888-.156c-.328 0-.624.052-.888.156a1.62 1.62 0 00-.684.48 2.431 2.431 0 00-.432.864c-.096.352-.144.78-.144 1.284v1.548c0 .504.048.932.144 1.284.104.352.248.64.432.864.184.224.408.388.672.492.272.096.572.144.9.144.328 0 .624-.048.888-.144.264-.104.488-.268.672-.492.184-.224.324-.512.42-.864.104-.352.156-.78.156-1.284v-1.548zm8.377 5.04c0 .04-.012.076-.036.108a.112.112 0 01-.084.06c-.16.024-.448.048-.864.072-.416.024-.908.036-1.476.036-.32 0-.636-.024-.948-.072a2.126 2.126 0 01-.816-.3 1.7 1.7 0 01-.576-.672c-.144-.296-.216-.692-.216-1.188v-6.528a.23.23 0 01.072-.168.23.23 0 01.168-.072h.612a.23.23 0 01.168.072.23.23 0 01.072.168v6.528c0 .232.016.428.048.588a.83.83 0 00.216.384c.104.096.252.168.444.216.192.04.448.06.768.06h2.316c.088 0 .132.048.132.144v.564zm7.82-3.456c0 .64-.088 1.196-.264 1.668-.168.472-.412.86-.732 1.164a2.977 2.977 0 01-1.14.684 4.887 4.887 0 01-1.5.216c-.232 0-.46-.004-.684-.012-.216-.008-.424-.02-.624-.036a8.26 8.26 0 01-.516-.036 2.996 2.996 0 01-.36-.036c-.168-.024-.252-.124-.252-.3V46.42c0-.176.084-.276.252-.3.088-.016.208-.028.36-.036a8.26 8.26 0 01.516-.036c.2-.016.408-.028.624-.036.224-.008.452-.012.684-.012.552 0 1.052.072 1.5.216.448.144.828.372 1.14.684.32.304.564.692.732 1.164.176.464.264 1.02.264 1.668v1.62zm-1.092-1.62c0-.544-.068-.996-.204-1.356-.128-.36-.308-.644-.54-.852a1.87 1.87 0 00-.804-.456 3.571 3.571 0 00-.996-.132c-.28 0-.524.004-.732.012-.2 0-.4.008-.6.024v7.152c.192.016.392.024.6.024h.732c.36 0 .692-.044.996-.132.312-.088.58-.24.804-.456.232-.216.412-.5.54-.852.136-.36.204-.812.204-1.356v-1.62zm12.513-.972c0 .504-.084.928-.252 1.272a2.215 2.215 0 01-.708.828c-.296.208-.648.36-1.056.456a6.38 6.38 0 01-1.344.132c-.192 0-.4-.004-.624-.012a20.81 20.81 0 01-.576-.048v3.372c0 .064-.02.12-.06.168a.193.193 0 01-.156.072h-.648a.193.193 0 01-.156-.072.254.254 0 01-.06-.168v-8.364c0-.176.096-.276.288-.3.256-.032.564-.056.924-.072.36-.016.716-.024 1.068-.024.488 0 .936.048 1.344.144.408.088.76.236 1.056.444.304.2.54.468.708.804.168.328.252.732.252 1.212v.156zm-1.092-.156c0-.608-.184-1.04-.552-1.296-.368-.256-.94-.384-1.716-.384-.184 0-.396.004-.636.012-.232.008-.42.02-.564.036v3.516c.072 0 .16.004.264.012l.324.024c.112 0 .22.004.324.012h.288c.824 0 1.408-.14 1.752-.42.344-.28.516-.732.516-1.356v-.156zm8.739 6.204c0 .128-.068.192-.204.192h-.708a.178.178 0 01-.132-.048.425.425 0 01-.072-.132l-.78-2.76h-3.108l-.768 2.76a.337.337 0 01-.084.132.207.207 0 01-.132.048h-.708c-.136 0-.204-.064-.204-.192 0-.04.004-.068.012-.084l2.22-7.812c.048-.184.116-.332.204-.444.096-.12.2-.212.312-.276.112-.072.228-.12.348-.144a1.488 1.488 0 01.708-.012c.12.024.236.072.348.144a.973.973 0 01.3.276c.096.112.168.26.216.444l2.22 7.824a.206.206 0 01.012.084zm-3.216-7.644c-.04-.144-.116-.216-.228-.216-.12 0-.2.072-.24.216l-1.092 3.948h2.652l-1.092-3.948zm11.193 7.68c0 .104-.052.156-.156.156h-.768c-.072 0-.132-.004-.18-.012-.04-.016-.084-.064-.132-.144l-2.148-3.576H53.026l-.744-.036v3.528c0 .064-.02.12-.06.168a.193.193 0 01-.156.072h-.648a.193.193 0 01-.156-.072.254.254 0 01-.06-.168v-8.4c0-.088.02-.148.06-.18.04-.04.116-.068.228-.084.128-.016.276-.028.444-.036a11.467 11.467 0 011.116-.048c.192-.008.376-.012.552-.012.472 0 .912.044 1.32.132.416.088.772.232 1.068.432.304.2.54.464.708.792.176.328.264.736.264 1.224v.084c0 .336-.048.64-.144.912a2.105 2.105 0 01-.384.696c-.168.2-.368.368-.6.504a3.01 3.01 0 01-.756.312l2.184 3.648c.024.04.036.076.036.108zm-1.416-6.264c0-.6-.192-1.016-.576-1.248-.384-.232-.952-.348-1.704-.348h-.324c-.12 0-.244.004-.372.012-.12 0-.236.004-.348.012-.112 0-.204.004-.276.012v3.288l.756.024h.564c.368 0 .692-.024.972-.072.288-.056.528-.148.72-.276.192-.128.336-.296.432-.504.104-.216.156-.488.156-.816v-.084zm8.629-1.752c0 .128-.076.192-.228.192h-2.34v7.74c0 .064-.02.12-.06.168a.193.193 0 01-.156.072h-.66a.193.193 0 01-.156-.072.254.254 0 01-.06-.168v-7.74h-2.34a.296.296 0 01-.168-.048.162.162 0 01-.072-.144V46.3c0-.064.024-.116.072-.156a.254.254 0 01.168-.06h5.772c.152 0 .228.072.228.216v.528zm8.242 7.824c0 .096-.036.18-.108.252a.326.326 0 01-.24.096h-.744c-.192 0-.32-.064-.384-.192l-3.708-7.044c-.016-.024-.028-.036-.036-.036-.008 0-.012.012-.012.036v7.008c0 .064-.02.12-.06.168a.211.211 0 01-.156.06h-.624a.426.426 0 01-.156-.024c-.04-.016-.06-.056-.06-.12V46.42c0-.096.032-.176.096-.24a.367.367 0 01.252-.096h.66c.168 0 .28.02.336.06a.445.445 0 01.156.18l3.684 7.008.024.036c.008 0 .012-.012.012-.036v-7.02c0-.064.02-.116.06-.156a.193.193 0 01.156-.072h.636c.064 0 .116.024.156.072.04.04.06.092.06.156v8.34zm7.484.204c0 .04-.012.076-.036.108a.112.112 0 01-.084.06 3.39 3.39 0 01-.456.024l-.624.024c-.216.008-.436.012-.66.012h-.6c-.848 0-1.488-.172-1.92-.516-.424-.344-.636-.916-.636-1.716v-4.62c0-.8.212-1.372.636-1.716.432-.344 1.072-.516 1.92-.516.176 0 .372.004.588.012.224 0 .444.004.66.012.216 0 .42.008.612.024.192.008.352.016.48.024.04.008.068.028.084.06a.176.176 0 01.036.108v.6c0 .096-.044.144-.132.144H77.79c-.32 0-.576.024-.768.072a.86.86 0 00-.444.216.757.757 0 00-.216.384c-.032.16-.048.352-.048.576V49.9h3.684a.23.23 0 01.168.072.23.23 0 01.072.168v.456a.23.23 0 01-.072.168.23.23 0 01-.168.072h-3.684v2.016c0 .232.016.428.048.588a.83.83 0 00.216.384c.104.096.252.168.444.216.192.04.448.06.768.06h2.316c.088 0 .132.048.132.144v.612zm8.29-.012c0 .104-.052.156-.156.156h-.768c-.072 0-.132-.004-.18-.012-.04-.016-.085-.064-.133-.144l-2.148-3.576H84.254l-.744-.036v3.528c0 .064-.02.12-.06.168a.193.193 0 01-.156.072h-.647a.193.193 0 01-.157-.072.254.254 0 01-.06-.168v-8.4c0-.088.02-.148.06-.18.04-.04.117-.068.229-.084.128-.016.276-.028.444-.036a11.467 11.467 0 011.115-.048c.192-.008.376-.012.552-.012.472 0 .913.044 1.32.132.416.088.772.232 1.069.432.303.2.54.464.708.792.175.328.263.736.263 1.224v.084c0 .336-.047.64-.144.912a2.105 2.105 0 01-.384.696c-.168.2-.368.368-.6.504a3.01 3.01 0 01-.755.312l2.183 3.648c.025.04.037.076.037.108zM87.11 48.58c0-.6-.193-1.016-.577-1.248-.384-.232-.952-.348-1.704-.348h-.323c-.12 0-.245.004-.373.012-.12 0-.236.004-.347.012-.113 0-.205.004-.277.012v3.288l.756.024h.564c.368 0 .692-.024.972-.072.288-.056.528-.148.72-.276.192-.128.337-.296.432-.504.105-.216.157-.488.157-.816v-.084zm12.36-.432c0 .472-.12.884-.36 1.236-.24.344-.64.704-1.2 1.08l-1.152.78a6.69 6.69 0 00-.828.636 2.863 2.863 0 00-.516.588c-.12.2-.208.408-.264.624a3.161 3.161 0 00-.072.708v.252h4.044c.064 0 .12.02.168.06.048.032.072.08.072.144v.528a.193.193 0 01-.072.156.254.254 0 01-.168.06H94.36a.254.254 0 01-.168-.06.23.23 0 01-.072-.168V53.8c0-.624.14-1.196.42-1.716.288-.52.76-1 1.416-1.44l1.212-.816a9.79 9.79 0 00.612-.444c.16-.128.284-.252.372-.372.096-.128.16-.256.192-.384.04-.136.06-.296.06-.48 0-.432-.14-.744-.42-.936-.272-.2-.732-.3-1.38-.3-.312 0-.66.02-1.044.06-.384.032-.744.072-1.08.12h-.048c-.128 0-.192-.072-.192-.216v-.42c0-.064.02-.112.06-.144a.533.533 0 01.168-.072c.304-.08.644-.14 1.02-.18.384-.04.756-.06 1.116-.06.976 0 1.696.172 2.16.516.472.344.708.888.708 1.632zm8.13 3.204c0 .664-.068 1.232-.204 1.704-.136.472-.332.86-.588 1.164a2.369 2.369 0 01-.924.66c-.36.136-.768.204-1.224.204-.456 0-.868-.068-1.236-.204a2.369 2.369 0 01-.924-.66c-.256-.304-.452-.692-.588-1.164-.136-.472-.204-1.04-.204-1.704v-1.62c0-.664.068-1.232.204-1.704.136-.472.332-.856.588-1.152.256-.304.564-.524.924-.66.368-.144.78-.216 1.236-.216.456 0 .864.072 1.224.216.36.136.668.356.924.66.256.296.452.68.588 1.152.136.472.204 1.04.204 1.704v1.62zm-1.092-1.62a5.37 5.37 0 00-.132-1.284c-.088-.36-.212-.652-.372-.876a1.443 1.443 0 00-.588-.492 1.774 1.774 0 00-.756-.156c-.28 0-.536.052-.768.156a1.464 1.464 0 00-.576.492c-.16.224-.284.516-.372.876a5.37 5.37 0 00-.132 1.284v1.62c0 .504.044.936.132 1.296.088.352.212.64.372.864.16.224.352.388.576.492.232.104.488.156.768.156s.532-.052.756-.156c.232-.104.428-.268.588-.492.16-.224.284-.512.372-.864.088-.36.132-.792.132-1.296v-1.62zm8.694-1.584c0 .472-.12.884-.36 1.236-.24.344-.64.704-1.2 1.08l-1.152.78a6.69 6.69 0 00-.828.636 2.863 2.863 0 00-.516.588c-.12.2-.208.408-.264.624a3.161 3.161 0 00-.072.708v.252h4.044c.064 0 .12.02.168.06.048.032.072.08.072.144v.528a.193.193 0 01-.072.156.254.254 0 01-.168.06h-4.764a.254.254 0 01-.168-.06.23.23 0 01-.072-.168V53.8c0-.624.14-1.196.42-1.716.288-.52.76-1 1.416-1.44l1.212-.816a9.79 9.79 0 00.612-.444c.16-.128.284-.252.372-.372.096-.128.16-.256.192-.384.04-.136.06-.296.06-.48 0-.432-.14-.744-.42-.936-.272-.2-.732-.3-1.38-.3-.312 0-.66.02-1.044.06-.384.032-.744.072-1.08.12h-.048c-.128 0-.192-.072-.192-.216v-.42c0-.064.02-.112.06-.144a.533.533 0 01.168-.072c.304-.08.644-.14 1.02-.18.384-.04.756-.06 1.116-.06.976 0 1.696.172 2.16.516.472.344.708.888.708 1.632zm8.129 3.204c0 .664-.068 1.232-.204 1.704-.136.472-.332.86-.588 1.164a2.369 2.369 0 01-.924.66c-.36.136-.768.204-1.224.204-.456 0-.868-.068-1.236-.204a2.369 2.369 0 01-.924-.66c-.256-.304-.452-.692-.588-1.164-.136-.472-.204-1.04-.204-1.704v-1.62c0-.664.068-1.232.204-1.704.136-.472.332-.856.588-1.152.256-.304.564-.524.924-.66.368-.144.78-.216 1.236-.216.456 0 .864.072 1.224.216.36.136.668.356.924.66.256.296.452.68.588 1.152.136.472.204 1.04.204 1.704v1.62zm-1.092-1.62a5.37 5.37 0 00-.132-1.284c-.088-.36-.212-.652-.372-.876a1.443 1.443 0 00-.588-.492 1.774 1.774 0 00-.756-.156c-.28 0-.536.052-.768.156a1.464 1.464 0 00-.576.492c-.16.224-.284.516-.372.876a5.37 5.37 0 00-.132 1.284v1.62c0 .504.044.936.132 1.296.088.352.212.64.372.864.16.224.352.388.576.492.232.104.488.156.768.156s.532-.052.756-.156c.232-.104.428-.268.588-.492.16-.224.284-.512.372-.864.088-.36.132-.792.132-1.296v-1.62z"></path> <g clip-path="url(#clip0)"> <path fill="#fff" d="M35.96 0L21.936 10.912c-1.439-5.455-6.112-9.46-11.867-9.46H0v25.095h10.07c5.753 0 10.787-4 11.866-9.455L35.959 28l14.028-10.908v9.455h15.82v-5.092H55.382V1.453h-5.756v9.455L36.32 21.825l-2.878-2.546 6.476-5.096 6.83-5.451-3.953-3.27L29.49 16.005l-2.878-2.546L39.918 3.276 35.96.006V0zM5.396 6.545H9.71c.899 0 1.777.204 2.587.579.809.375 1.55.92 2.178 1.602a7.684 7.684 0 011.507 2.419c.36.92.56 1.946.56 3.037 0 1-.181 1.976-.513 2.88a7.93 7.93 0 01-1.419 2.44 6.81 6.81 0 01-2.166 1.686 6.18 6.18 0 01-2.734.627H5.396V6.545zm78.393 14.912v5.091H67.966V1.454h5.754v20.002h10.07-.001z"></path> <path fill="#CCC" d="M150.415 27.01c4.868 0 8.823-2.463 9.584-7.847l-.304-.307h-1.369l-.305.307c-.76 3.846-3.194 6-7.453 6-5.325 0-9.127-4-9.127-11.077 0-7.076 3.955-11.076 9.127-11.076 4.259 0 6.693 2.154 7.453 5.692l.305.308h1.369l.304-.307c-.76-4.923-4.564-7.538-9.584-7.538-5.933 0-11.257 4.307-11.257 12.768 0 8.77 5.324 13.077 11.257 13.077zm-15.516-.77V1.932l-.304-.307h-2.434l-.304.307-9.127 21.692h-.305l-9.431-21.692-.304-.307h-2.434l-.304.307V26.24l.304.308h1.369l.304-.308V5.625h.304l8.823 20.615.304.308h1.826l.304-.308 8.823-20.615h.456V26.24l.305.308h1.369l.456-.308zm-29.662 0v-1.077l-.304-.308H91.85l-.304-.307v-9.23l.304-.309h12.322l.304-.307v-1.23l-.304-.308H91.85l-.304-.308V3.779l.304-.308h13.083l.304-.307V1.933l-.304-.308H89.721l-.305.308v24.308l.305.307h15.212l.304-.307v-.001z"></path> </g> <defs> <clipPath id="clip0"> <path fill="#fff" d="M0 0h160v28H0z"></path> </clipPath> </defs> </svg> 