<?xml version="1.0" encoding="UTF-8"?> <svg xmlns="http://www.w3.org/2000/svg" width="229" height="60" fill="none" viewBox="0 0 229 60"> <path fill="#565656" d="M6.576 48.76c0 .504-.084.928-.252 1.272a2.215 2.215 0 01-.708.828c-.296.208-.648.36-1.056.456a6.38 6.38 0 01-1.344.132c-.192 0-.4-.004-.624-.012a20.81 20.81 0 01-.576-.048v3.372c0 .064-.02.12-.06.168A.193.193 0 011.8 55h-.648a.193.193 0 01-.156-.072.254.254 0 01-.06-.168v-8.364c0-.176.096-.276.288-.3.256-.032.564-.056.924-.072.36-.016.716-.024 1.068-.024.488 0 .936.048 1.344.144.408.088.76.236 1.056.444.304.2.54.468.708.804.168.328.252.732.252 1.212v.156zm-1.092-.156c0-.608-.184-1.04-.552-1.296-.368-.256-.94-.384-1.716-.384-.184 0-.396.004-.636.012-.232.008-.42.02-.564.036v3.516c.072 0 .16.004.264.012l.324.024c.112 0 .22.004.324.012h.288c.824 0 1.408-.14 1.752-.42.344-.28.516-.732.516-1.356v-.156zm9.261 6.24c0 .104-.052.156-.156.156h-.768c-.072 0-.132-.004-.18-.012-.04-.016-.084-.064-.132-.144l-2.148-3.576H10.473l-.744-.036v3.528c0 .064-.02.12-.06.168a.193.193 0 01-.156.072h-.648a.193.193 0 01-.156-.072.254.254 0 01-.06-.168v-8.4c0-.088.02-.148.06-.18.04-.04.116-.068.228-.084.128-.016.276-.028.444-.036a11.467 11.467 0 011.116-.048c.192-.008.376-.012.552-.012.472 0 .912.044 1.32.132.416.088.772.232 1.068.432.304.2.54.464.708.792.176.328.264.736.264 1.224v.084c0 .336-.048.64-.144.912a2.105 2.105 0 01-.384.696c-.168.2-.368.368-.6.504a3.01 3.01 0 01-.756.312l2.184 3.648c.024.04.036.076.036.108zM13.33 48.58c0-.6-.192-1.016-.576-1.248-.384-.232-.952-.348-1.704-.348h-.324c-.12 0-.244.004-.372.012-.12 0-.236.004-.348.012-.112 0-.204.004-.276.012v3.288l.756.024h.564c.368 0 .692-.024.972-.072.288-.056.528-.148.72-.276.192-.128.336-.296.432-.504.104-.216.156-.488.156-.816v-.084zm9.462 2.736c0 .664-.08 1.236-.24 1.716-.16.472-.384.86-.672 1.164a2.626 2.626 0 01-1.032.672 3.733 3.733 0 01-1.296.216c-.472 0-.908-.072-1.308-.216a2.642 2.642 0 01-1.02-.672c-.288-.304-.516-.692-.684-1.164-.16-.48-.24-1.052-.24-1.716v-1.548c0-.664.08-1.232.24-1.704.168-.48.396-.872.684-1.176a2.642 2.642 0 011.02-.672c.4-.144.836-.216 1.308-.216.472 0 .904.072 1.296.216.4.144.744.368 1.032.672.288.304.512.696.672 1.176.16.472.24 1.04.24 1.704v1.548zm-1.104-1.548c0-.504-.052-.932-.156-1.284a2.294 2.294 0 00-.42-.864 1.537 1.537 0 00-.672-.48 2.405 2.405 0 00-.888-.156c-.328 0-.624.052-.888.156a1.62 1.62 0 00-.684.48 2.43 2.43 0 00-.432.864c-.096.352-.144.78-.144 1.284v1.548c0 .504.048.932.144 1.284.104.352.248.64.432.864.184.224.408.388.672.492.272.096.572.144.9.144.328 0 .624-.048.888-.144.264-.104.488-.268.672-.492.184-.224.324-.512.42-.864.104-.352.156-.78.156-1.284v-1.548zm8.377.828a.23.23 0 01-.072.168.23.23 0 01-.168.072H26.14v3.924a.23.23 0 01-.072.168.23.23 0 01-.168.072h-.611a.23.23 0 01-.169-.072.23.23 0 01-.072-.168v-6.528c0-.8.213-1.372.637-1.716.431-.344 1.072-.516 1.92-.516.175 0 .372.004.587.012.224 0 .445.004.66.012.216 0 .42.008.613.024.192.008.352.016.48.024.04.008.067.028.084.06a.176.176 0 01.035.108v.6c0 .096-.044.144-.131.144h-2.317c-.32 0-.575.024-.767.072a.86.86 0 00-.445.216.757.757 0 00-.215.384c-.032.16-.049.352-.049.576V49.9h3.684a.23.23 0 01.168.072.23.23 0 01.072.168v.456zm7.21 4.26c0 .04-.012.076-.036.108a.112.112 0 01-.084.06 3.39 3.39 0 01-.456.024l-.624.024c-.216.008-.436.012-.66.012h-.6c-.848 0-1.488-.172-1.92-.516-.424-.344-.636-.916-.636-1.716v-4.62c0-.8.212-1.372.636-1.716.432-.344 1.072-.516 1.92-.516.176 0 .372.004.588.012.224 0 .444.004.66.012.216 0 .42.008.612.024.192.008.352.016.48.024.04.008.068.028.084.06a.176.176 0 01.036.108v.6c0 .096-.044.144-.132.144h-2.316c-.32 0-.576.024-.768.072a.86.86 0 00-.444.216.757.757 0 00-.216.384c-.032.16-.048.352-.048.576V49.9h3.684a.23.23 0 01.168.072.23.23 0 01.072.168v.456a.23.23 0 01-.072.168.23.23 0 01-.168.072H33.35v2.016c0 .232.016.428.048.588a.83.83 0 00.216.384c.104.096.252.168.444.216.192.04.448.06.768.06h2.316c.088 0 .132.048.132.144v.612zm7.257-2.172c0 .288-.044.576-.132.864a1.923 1.923 0 01-.468.78c-.216.224-.516.408-.9.552-.384.136-.872.204-1.464.204-.424 0-.796-.02-1.116-.06a17.52 17.52 0 01-.876-.108c-.104-.016-.168-.04-.192-.072-.024-.032-.036-.08-.036-.144v-.48c0-.064.02-.112.06-.144a.223.223 0 01.144-.048h.036c.136.016.288.028.456.036l.528.024c.184 0 .36.004.528.012h.468c.36 0 .656-.032.888-.096.24-.072.428-.168.564-.288.136-.128.232-.28.288-.456a1.89 1.89 0 00.084-.576 1.091 1.091 0 00-.312-.78 2.78 2.78 0 00-.444-.372 10.087 10.087 0 00-.684-.456l-1.164-.708c-.552-.336-.968-.672-1.248-1.008-.272-.344-.408-.756-.408-1.236 0-.728.248-1.264.744-1.608C40.371 46.172 41.08 46 42 46a13.278 13.278 0 011.128.048c.192.008.372.024.54.048.168.016.308.032.42.048.136.024.204.092.204.204v.516c0 .128-.068.192-.204.192h-.024a52.885 52.885 0 00-.972-.048c-.376-.016-.74-.024-1.092-.024-.624 0-1.076.08-1.356.24-.272.16-.408.46-.408.9 0 .28.104.524.312.732.208.208.54.448.996.72l1.104.66c.344.208.636.408.876.6s.436.384.588.576c.152.192.26.392.324.6.064.208.096.432.096.672zm7.198 0c0 .288-.044.576-.132.864a1.923 1.923 0 01-.468.78c-.216.224-.516.408-.9.552-.384.136-.872.204-1.464.204-.424 0-.796-.02-1.116-.06a17.52 17.52 0 01-.876-.108c-.104-.016-.168-.04-.192-.072-.024-.032-.036-.08-.036-.144v-.48c0-.064.02-.112.06-.144a.223.223 0 01.144-.048h.036c.136.016.288.028.456.036l.528.024c.184 0 .36.004.528.012h.468c.36 0 .656-.032.888-.096.24-.072.428-.168.564-.288.136-.128.232-.28.288-.456a1.89 1.89 0 00.084-.576 1.091 1.091 0 00-.312-.78 2.78 2.78 0 00-.444-.372 10.087 10.087 0 00-.684-.456l-1.164-.708c-.552-.336-.968-.672-1.248-1.008-.272-.344-.408-.756-.408-1.236 0-.728.248-1.264.744-1.608.496-.344 1.204-.516 2.124-.516a13.278 13.278 0 011.128.048c.192.008.372.024.54.048.168.016.308.032.42.048.136.024.204.092.204.204v.516c0 .128-.068.192-.204.192h-.024a52.885 52.885 0 00-.972-.048c-.376-.016-.74-.024-1.092-.024-.624 0-1.076.08-1.356.24-.272.16-.408.46-.408.9 0 .28.104.524.312.732.208.208.54.448.996.72l1.104.66c.344.208.636.408.876.6s.436.384.588.576c.152.192.26.392.324.6.064.208.096.432.096.672zm3.346 2.076c0 .064-.02.12-.06.168a.193.193 0 01-.156.072h-.66a.193.193 0 01-.156-.072.254.254 0 01-.06-.168v-8.448c0-.064.02-.116.06-.156a.193.193 0 01.156-.072h.66c.064 0 .116.024.156.072.04.04.06.092.06.156v8.448zm8.863-3.444c0 .664-.08 1.236-.24 1.716-.16.472-.384.86-.672 1.164a2.626 2.626 0 01-1.032.672 3.733 3.733 0 01-1.296.216c-.472 0-.908-.072-1.308-.216a2.642 2.642 0 01-1.02-.672c-.288-.304-.516-.692-.684-1.164-.16-.48-.24-1.052-.24-1.716v-1.548c0-.664.08-1.232.24-1.704.168-.48.396-.872.684-1.176a2.642 2.642 0 011.02-.672c.4-.144.836-.216 1.308-.216.472 0 .904.072 1.296.216.4.144.744.368 1.032.672.288.304.512.696.672 1.176.16.472.24 1.04.24 1.704v1.548zm-1.104-1.548c0-.504-.052-.932-.156-1.284a2.294 2.294 0 00-.42-.864 1.537 1.537 0 00-.672-.48 2.405 2.405 0 00-.888-.156c-.328 0-.624.052-.888.156a1.62 1.62 0 00-.684.48 2.43 2.43 0 00-.432.864c-.096.352-.144.78-.144 1.284v1.548c0 .504.048.932.144 1.284.104.352.248.64.432.864.184.224.408.388.672.492.272.096.572.144.9.144.328 0 .624-.048.888-.144.264-.104.488-.268.672-.492.184-.224.324-.512.42-.864.104-.352.156-.78.156-1.284v-1.548zm9.65 4.884c0 .096-.037.18-.109.252a.326.326 0 01-.24.096h-.744c-.192 0-.32-.064-.384-.192L67.3 47.764c-.016-.024-.028-.036-.036-.036-.008 0-.012.012-.012.036v7.008c0 .064-.02.12-.06.168a.211.211 0 01-.156.06h-.624a.426.426 0 01-.156-.024c-.04-.016-.06-.056-.06-.12V46.42c0-.096.032-.176.096-.24a.367.367 0 01.252-.096h.66c.168 0 .28.02.336.06a.445.445 0 01.156.18l3.684 7.008.024.036c.008 0 .012-.012.012-.036v-7.02c0-.064.02-.116.06-.156a.193.193 0 01.156-.072h.636c.064 0 .116.024.156.072.04.04.06.092.06.156v8.34zm8.78.156c0 .128-.068.192-.204.192h-.708a.178.178 0 01-.132-.048.425.425 0 01-.072-.132l-.78-2.76H76.26l-.768 2.76a.337.337 0 01-.084.132.207.207 0 01-.132.048h-.708c-.136 0-.204-.064-.204-.192 0-.04.004-.068.012-.084l2.22-7.812c.048-.184.116-.332.204-.444.096-.12.2-.212.312-.276.112-.072.228-.12.348-.144a1.488 1.488 0 01.708-.012c.12.024.236.072.348.144a.973.973 0 01.3.276c.096.112.168.26.216.444l2.22 7.824a.206.206 0 01.012.084zm-3.216-7.644c-.04-.144-.116-.216-.228-.216-.12 0-.2.072-.24.216l-1.092 3.948h2.652l-1.092-3.948zm9.902 7.644c0 .04-.012.076-.036.108a.112.112 0 01-.084.06c-.16.024-.448.048-.864.072-.416.024-.908.036-1.476.036-.32 0-.636-.024-.948-.072a2.126 2.126 0 01-.816-.3 1.7 1.7 0 01-.576-.672c-.144-.296-.216-.692-.216-1.188v-6.528a.23.23 0 01.072-.168.23.23 0 01.168-.072h.612a.23.23 0 01.168.072.23.23 0 01.072.168v6.528c0 .232.016.428.048.588a.83.83 0 00.216.384c.104.096.252.168.444.216.192.04.448.06.768.06h2.316c.088 0 .132.048.132.144v.564zm10.497-.12a.207.207 0 01-.072.168.533.533 0 01-.168.072l-.384.072a5.903 5.903 0 01-.42.036 8.26 8.26 0 01-.516.036 16.39 16.39 0 01-.672.012c-.368 0-.74-.056-1.116-.168a2.58 2.58 0 01-1.02-.588c-.304-.288-.552-.668-.744-1.14-.192-.48-.288-1.084-.288-1.812v-1.668c0-.736.096-1.34.288-1.812.192-.48.44-.86.744-1.14a2.58 2.58 0 011.02-.588A3.895 3.895 0 0196.215 46c.384 0 .748.024 1.092.072.352.04.66.08.924.12.128.016.192.068.192.156v.612a.17.17 0 01-.024.096c-.016.024-.056.036-.12.036h-.036a19.602 19.602 0 00-.408-.024 8.28 8.28 0 00-.504-.036 13.278 13.278 0 00-1.104-.048 2.34 2.34 0 00-.828.144c-.248.088-.468.24-.66.456-.184.208-.332.488-.444.84-.104.344-.156.772-.156 1.284v1.668c0 .504.052.932.156 1.284.112.344.26.624.444.84.192.208.412.36.66.456.256.096.532.144.828.144.168 0 .344-.004.528-.012a146.35 146.35 0 001.056-.048c.152-.016.284-.028.396-.036h.048c.128 0 .192.064.192.192v.492zm6.971.12c0 .04-.012.076-.036.108a.112.112 0 01-.084.06c-.16.024-.448.048-.864.072-.416.024-.908.036-1.476.036-.32 0-.636-.024-.948-.072a2.126 2.126 0 01-.816-.3 1.7 1.7 0 01-.576-.672c-.144-.296-.216-.692-.216-1.188v-6.528a.23.23 0 01.072-.168.23.23 0 01.168-.072h.612a.23.23 0 01.168.072.23.23 0 01.072.168v6.528c0 .232.016.428.048.588a.83.83 0 00.216.384c.104.096.252.168.444.216.192.04.448.06.768.06h2.316c.088 0 .132.048.132.144v.564zm7.485-3.492c0 .664-.08 1.236-.24 1.716-.16.472-.384.86-.672 1.164a2.626 2.626 0 01-1.032.672 3.733 3.733 0 01-1.296.216c-.472 0-.908-.072-1.308-.216a2.642 2.642 0 01-1.02-.672c-.288-.304-.516-.692-.684-1.164-.16-.48-.24-1.052-.24-1.716v-1.548c0-.664.08-1.232.24-1.704.168-.48.396-.872.684-1.176a2.642 2.642 0 011.02-.672c.4-.144.836-.216 1.308-.216.472 0 .904.072 1.296.216.4.144.744.368 1.032.672.288.304.512.696.672 1.176.16.472.24 1.04.24 1.704v1.548zm-1.104-1.548c0-.504-.052-.932-.156-1.284a2.294 2.294 0 00-.42-.864 1.537 1.537 0 00-.672-.48 2.405 2.405 0 00-.888-.156c-.328 0-.624.052-.888.156a1.62 1.62 0 00-.684.48 2.43 2.43 0 00-.432.864c-.096.352-.144.78-.144 1.284v1.548c0 .504.048.932.144 1.284.104.352.248.64.432.864.184.224.408.388.672.492.272.096.572.144.9.144.328 0 .624-.048.888-.144.264-.104.488-.268.672-.492.184-.224.324-.512.42-.864.104-.352.156-.78.156-1.284v-1.548zm9.47 1.992c0 1.144-.272 1.984-.816 2.52-.536.536-1.288.804-2.256.804-.976 0-1.732-.268-2.268-.804-.536-.536-.804-1.376-.804-2.52v-5.448c0-.064.02-.116.06-.156a.23.23 0 01.168-.072h.648c.064 0 .116.024.156.072.048.04.072.092.072.156v5.448c0 .384.032.728.096 1.032.064.296.172.544.324.744.16.2.364.352.612.456.248.104.56.156.936.156.368 0 .676-.052.924-.156a1.42 1.42 0 00.612-.456c.16-.2.272-.448.336-.744s.096-.64.096-1.032v-5.448c0-.064.02-.116.06-.156a.23.23 0 01.168-.072h.648c.064 0 .116.024.156.072.048.04.072.092.072.156v5.448zm8.509-.408c0 .64-.088 1.196-.264 1.668-.168.472-.412.86-.732 1.164a2.977 2.977 0 01-1.14.684 4.887 4.887 0 01-1.5.216c-.232 0-.46-.004-.684-.012-.216-.008-.424-.02-.624-.036a8.26 8.26 0 01-.516-.036 2.996 2.996 0 01-.36-.036c-.168-.024-.252-.124-.252-.3V46.42c0-.176.084-.276.252-.3.088-.016.208-.028.36-.036a8.26 8.26 0 01.516-.036c.2-.016.408-.028.624-.036.224-.008.452-.012.684-.012.552 0 1.052.072 1.5.216.448.144.828.372 1.14.684.32.304.564.692.732 1.164.176.464.264 1.02.264 1.668v1.62zm-1.092-1.62c0-.544-.068-.996-.204-1.356-.128-.36-.308-.644-.54-.852a1.87 1.87 0 00-.804-.456 3.571 3.571 0 00-.996-.132c-.28 0-.524.004-.732.012-.2 0-.4.008-.6.024v7.152c.192.016.392.024.6.024h.732c.36 0 .692-.044.996-.132.312-.088.58-.24.804-.456.232-.216.412-.5.54-.852.136-.36.204-.812.204-1.356v-1.62zm12.513-.972c0 .504-.084.928-.252 1.272a2.215 2.215 0 01-.708.828c-.296.208-.648.36-1.056.456a6.38 6.38 0 01-1.344.132c-.192 0-.4-.004-.624-.012a20.81 20.81 0 01-.576-.048v3.372c0 .064-.02.12-.06.168a.193.193 0 01-.156.072h-.648a.193.193 0 01-.156-.072.254.254 0 01-.06-.168v-8.364c0-.176.096-.276.288-.3.256-.032.564-.056.924-.072.36-.016.716-.024 1.068-.024.488 0 .936.048 1.344.144.408.088.76.236 1.056.444.304.2.54.468.708.804.168.328.252.732.252 1.212v.156zm-1.092-.156c0-.608-.184-1.04-.552-1.296-.368-.256-.94-.384-1.716-.384-.184 0-.396.004-.636.012-.232.008-.42.02-.564.036v3.516c.072 0 .16.004.264.012l.324.024c.112 0 .22.004.324.012h.288c.824 0 1.408-.14 1.752-.42.344-.28.516-.732.516-1.356v-.156zm9.261 6.24c0 .104-.052.156-.156.156h-.768c-.072 0-.132-.004-.18-.012-.04-.016-.084-.064-.132-.144l-2.148-3.576H145.096l-.744-.036v3.528c0 .064-.02.12-.06.168a.193.193 0 01-.156.072h-.648a.193.193 0 01-.156-.072.254.254 0 01-.06-.168v-8.4c0-.088.02-.148.06-.18.04-.04.116-.068.228-.084.128-.016.276-.028.444-.036a11.467 11.467 0 011.116-.048c.192-.008.376-.012.552-.012.472 0 .912.044 1.32.132.416.088.772.232 1.068.432.304.2.54.464.708.792.176.328.264.736.264 1.224v.084c0 .336-.048.64-.144.912a2.105 2.105 0 01-.384.696c-.168.2-.368.368-.6.504a3.01 3.01 0 01-.756.312l2.184 3.648c.024.04.036.076.036.108zm-1.416-6.264c0-.6-.192-1.016-.576-1.248-.384-.232-.952-.348-1.704-.348h-.324c-.12 0-.244.004-.372.012-.12 0-.236.004-.348.012-.112 0-.204.004-.276.012v3.288l.756.024h.564c.368 0 .692-.024.972-.072.288-.056.528-.148.72-.276.192-.128.336-.296.432-.504.104-.216.156-.488.156-.816v-.084zm9.462 2.736c0 .664-.08 1.236-.24 1.716-.16.472-.384.86-.672 1.164a2.626 2.626 0 01-1.032.672 3.733 3.733 0 01-1.296.216c-.472 0-.908-.072-1.308-.216a2.642 2.642 0 01-1.02-.672c-.288-.304-.516-.692-.684-1.164-.16-.48-.24-1.052-.24-1.716v-1.548c0-.664.08-1.232.24-1.704.168-.48.396-.872.684-1.176a2.642 2.642 0 011.02-.672c.4-.144.836-.216 1.308-.216.472 0 .904.072 1.296.216.4.144.744.368 1.032.672.288.304.512.696.672 1.176.16.472.24 1.04.24 1.704v1.548zm-1.104-1.548c0-.504-.052-.932-.156-1.284a2.294 2.294 0 00-.42-.864 1.537 1.537 0 00-.672-.48 2.405 2.405 0 00-.888-.156c-.328 0-.624.052-.888.156a1.62 1.62 0 00-.684.48 2.43 2.43 0 00-.432.864c-.096.352-.144.78-.144 1.284v1.548c0 .504.048.932.144 1.284.104.352.248.64.432.864.184.224.408.388.672.492.272.096.572.144.9.144.328 0 .624-.048.888-.144.264-.104.488-.268.672-.492.184-.224.324-.512.42-.864.104-.352.156-.78.156-1.284v-1.548zm9.452-3.48a.167.167 0 01-.012.072l-2.208 7.812a1.345 1.345 0 01-.228.468 1.014 1.014 0 01-.648.408c-.12.024-.236.036-.348.036-.112 0-.228-.012-.348-.036a1.155 1.155 0 01-.348-.132 1.433 1.433 0 01-.312-.276 1.498 1.498 0 01-.216-.468l-2.22-7.812a.167.167 0 01-.012-.072c0-.064.02-.112.06-.144.04-.04.092-.06.156-.06h.696c.048 0 .092.02.132.06.04.032.068.072.084.12l2.088 7.644c.048.168.128.252.24.252.104 0 .18-.084.228-.252l2.1-7.644a.301.301 0 01.072-.12c.04-.04.084-.06.132-.06h.708c.136 0 .204.068.204.204zm3.151 8.472c0 .064-.02.12-.06.168a.193.193 0 01-.156.072h-.66a.193.193 0 01-.156-.072.254.254 0 01-.06-.168v-8.448c0-.064.02-.116.06-.156a.193.193 0 01.156-.072h.66c.064 0 .116.024.156.072.04.04.06.092.06.156v8.448zm8.659-3.408c0 .64-.088 1.196-.264 1.668-.168.472-.412.86-.732 1.164a2.977 2.977 0 01-1.14.684 4.887 4.887 0 01-1.5.216c-.232 0-.46-.004-.684-.012-.216-.008-.424-.02-.624-.036a8.26 8.26 0 01-.516-.036 2.996 2.996 0 01-.36-.036c-.168-.024-.252-.124-.252-.3V46.42c0-.176.084-.276.252-.3.088-.016.208-.028.36-.036a8.26 8.26 0 01.516-.036c.2-.016.408-.028.624-.036.224-.008.452-.012.684-.012.552 0 1.052.072 1.5.216.448.144.828.372 1.14.684.32.304.564.692.732 1.164.176.464.264 1.02.264 1.668v1.62zm-1.092-1.62c0-.544-.068-.996-.204-1.356-.128-.36-.308-.644-.54-.852a1.87 1.87 0 00-.804-.456 3.571 3.571 0 00-.996-.132c-.28 0-.524.004-.732.012-.2 0-.4.008-.6.024v7.152c.192.016.392.024.6.024h.732c.36 0 .692-.044.996-.132.312-.088.58-.24.804-.456.232-.216.412-.5.54-.852.136-.36.204-.812.204-1.356v-1.62zm8.324 5.124c0 .04-.012.076-.036.108a.112.112 0 01-.084.06 3.39 3.39 0 01-.456.024l-.624.024c-.216.008-.436.012-.66.012h-.6c-.848 0-1.488-.172-1.92-.516-.424-.344-.636-.916-.636-1.716v-4.62c0-.8.212-1.372.636-1.716.432-.344 1.072-.516 1.92-.516.176 0 .372.004.588.012.224 0 .444.004.66.012.216 0 .42.008.612.024.192.008.352.016.48.024.04.008.068.028.084.06a.176.176 0 01.036.108v.6c0 .096-.044.144-.132.144h-2.316c-.32 0-.576.024-.768.072a.86.86 0 00-.444.216.757.757 0 00-.216.384c-.032.16-.048.352-.048.576V49.9h3.684a.23.23 0 01.168.072.23.23 0 01.072.168v.456a.23.23 0 01-.072.168.23.23 0 01-.168.072h-3.684v2.016c0 .232.016.428.048.588a.83.83 0 00.216.384c.104.096.252.168.444.216.192.04.448.06.768.06h2.316c.088 0 .132.048.132.144v.612zm8.289-.012c0 .104-.052.156-.156.156h-.768c-.072 0-.132-.004-.18-.012-.04-.016-.084-.064-.132-.144l-2.148-3.576H188.821l-.744-.036v3.528c0 .064-.02.12-.06.168a.193.193 0 01-.156.072h-.648a.193.193 0 01-.156-.072.254.254 0 01-.06-.168v-8.4c0-.088.02-.148.06-.18.04-.04.116-.068.228-.084.128-.016.276-.028.444-.036a11.467 11.467 0 011.116-.048c.192-.008.376-.012.552-.012.472 0 .912.044 1.32.132.416.088.772.232 1.068.432.304.2.54.464.708.792.176.328.264.736.264 1.224v.084c0 .336-.048.64-.144.912a2.105 2.105 0 01-.384.696c-.168.2-.368.368-.6.504a3.01 3.01 0 01-.756.312l2.184 3.648c.024.04.036.076.036.108zm-1.416-6.264c0-.6-.192-1.016-.576-1.248-.384-.232-.952-.348-1.704-.348h-.324c-.12 0-.244.004-.372.012-.12 0-.236.004-.348.012-.112 0-.204.004-.276.012v3.288l.756.024h.564c.368 0 .692-.024.972-.072.288-.056.528-.148.72-.276.192-.128.336-.296.432-.504.104-.216.156-.488.156-.816v-.084zm12.361-.432c0 .472-.12.884-.36 1.236-.24.344-.64.704-1.2 1.08l-1.152.78a6.69 6.69 0 00-.828.636 2.863 2.863 0 00-.516.588c-.12.2-.208.408-.264.624a3.161 3.161 0 00-.072.708v.252h4.044c.064 0 .12.02.168.06.048.032.072.08.072.144v.528a.193.193 0 01-.072.156.254.254 0 01-.168.06h-4.764a.254.254 0 01-.168-.06.23.23 0 01-.072-.168V53.8c0-.624.14-1.196.42-1.716.288-.52.76-1 1.416-1.44l1.212-.816a9.79 9.79 0 00.612-.444c.16-.128.284-.252.372-.372.096-.128.16-.256.192-.384.04-.136.06-.296.06-.48 0-.432-.14-.744-.42-.936-.272-.2-.732-.3-1.38-.3-.312 0-.66.02-1.044.06-.384.032-.744.072-1.08.12h-.048c-.128 0-.192-.072-.192-.216v-.42c0-.064.02-.112.06-.144a.533.533 0 01.168-.072c.304-.08.644-.14 1.02-.18.384-.04.756-.06 1.116-.06.976 0 1.696.172 2.16.516.472.344.708.888.708 1.632zm8.129 3.204c0 .664-.068 1.232-.204 1.704-.136.472-.332.86-.588 1.164a2.369 2.369 0 01-.924.66c-.36.136-.768.204-1.224.204-.456 0-.868-.068-1.236-.204a2.369 2.369 0 01-.924-.66c-.256-.304-.452-.692-.588-1.164-.136-.472-.204-1.04-.204-1.704v-1.62c0-.664.068-1.232.204-1.704.136-.472.332-.856.588-1.152.256-.304.564-.524.924-.66.368-.144.78-.216 1.236-.216.456 0 .864.072 1.224.216.36.136.668.356.924.66.256.296.452.68.588 1.152.136.472.204 1.04.204 1.704v1.62zm-1.092-1.62a5.37 5.37 0 00-.132-1.284c-.088-.36-.212-.652-.372-.876a1.443 1.443 0 00-.588-.492 1.774 1.774 0 00-.756-.156c-.28 0-.536.052-.768.156a1.464 1.464 0 00-.576.492c-.16.224-.284.516-.372.876a5.37 5.37 0 00-.132 1.284v1.62c0 .504.044.936.132 1.296.088.352.212.64.372.864.16.224.352.388.576.492.232.104.488.156.768.156s.532-.052.756-.156c.232-.104.428-.268.588-.492.16-.224.284-.512.372-.864.088-.36.132-.792.132-1.296v-1.62zm8.694-1.584c0 .472-.12.884-.36 1.236-.24.344-.64.704-1.2 1.08l-1.152.78a6.69 6.69 0 00-.828.636 2.863 2.863 0 00-.516.588c-.12.2-.208.408-.264.624a3.161 3.161 0 00-.072.708v.252h4.044c.064 0 .12.02.168.06.048.032.072.08.072.144v.528a.193.193 0 01-.072.156.254.254 0 01-.168.06h-4.764a.254.254 0 01-.168-.06.23.23 0 01-.072-.168V53.8c0-.624.14-1.196.42-1.716.288-.52.76-1 1.416-1.44l1.212-.816a9.79 9.79 0 00.612-.444c.16-.128.284-.252.372-.372.096-.128.16-.256.192-.384.04-.136.06-.296.06-.48 0-.432-.14-.744-.42-.936-.272-.2-.732-.3-1.38-.3-.312 0-.66.02-1.044.06-.384.032-.744.072-1.08.12h-.048c-.128 0-.192-.072-.192-.216v-.42c0-.064.02-.112.06-.144a.533.533 0 01.168-.072c.304-.08.644-.14 1.02-.18.384-.04.756-.06 1.116-.06.976 0 1.696.172 2.16.516.472.344.708.888.708 1.632zm8.13 3.204c0 .664-.068 1.232-.204 1.704-.136.472-.332.86-.588 1.164a2.369 2.369 0 01-.924.66c-.36.136-.768.204-1.224.204-.456 0-.868-.068-1.236-.204a2.369 2.369 0 01-.924-.66c-.256-.304-.452-.692-.588-1.164-.136-.472-.204-1.04-.204-1.704v-1.62c0-.664.068-1.232.204-1.704.136-.472.332-.856.588-1.152.256-.304.564-.524.924-.66.368-.144.78-.216 1.236-.216.456 0 .864.072 1.224.216.36.136.668.356.924.66.256.296.452.68.588 1.152.136.472.204 1.04.204 1.704v1.62zm-1.092-1.62a5.37 5.37 0 00-.132-1.284c-.088-.36-.212-.652-.372-.876a1.443 1.443 0 00-.588-.492 1.774 1.774 0 00-.756-.156c-.28 0-.536.052-.768.156a1.464 1.464 0 00-.576.492c-.16.224-.284.516-.372.876a5.37 5.37 0 00-.132 1.284v1.62c0 .504.044.936.132 1.296.088.352.212.64.372.864.16.224.352.388.576.492.232.104.488.156.768.156s.532-.052.756-.156c.232-.104.428-.268.588-.492.16-.224.284-.512.372-.864.088-.36.132-.792.132-1.296v-1.62z"></path> <path fill="#fff" d="M74.529 24.803l-7.426-20.66c-.095-.285-.236-.662-.236-.993 0-.895.757-1.745 1.842-1.745.947 0 1.564.614 1.846 1.51l6.154 17.8 6.197-17.85c.283-.847.851-1.462 1.792-1.462h.193c.995 0 1.61.615 1.892 1.461l6.147 17.851L99.18 2.82c.237-.76.753-1.417 1.75-1.417 1.04 0 1.798.8 1.798 1.7 0 .33-.144.705-.236.993l-7.474 20.707c-.382 1.081-1.135 1.65-1.989 1.65h-.14c-.948 0-1.659-.569-1.992-1.65l-6.1-17.556-6.151 17.556c-.332 1.081-1.043 1.65-1.987 1.65h-.1c-.896 0-1.65-.569-2.03-1.65zM128.659 3.205c0-.997.804-1.848 1.798-1.848a1.82 1.82 0 011.85 1.848v4.192c1.799-4.071 5.789-5.993 8.434-5.993 1.095 0 1.805.804 1.805 1.845 0 .996-.66 1.703-1.616 1.845-4.74.568-8.622 4.12-8.622 11.177v8.302c0 .995-.757 1.845-1.799 1.845a1.822 1.822 0 01-1.849-1.845l-.001-21.368zM154.255 26.648c-6.596 0-11.982-5.11-11.982-12.606v-.097c0-6.981 4.877-12.605 11.518-12.605 7.1 0 11.144 5.853 11.144 12.276a1.68 1.68 0 01-1.674 1.692h-17.36c.506 5.245 4.172 8.196 8.449 8.196 2.974 0 5.149-1.172 6.916-2.812.28-.232.604-.42 1.024-.42.879 0 1.579.704 1.579 1.551 0 .42-.185.843-.562 1.167-2.272 2.2-4.969 3.658-9.052 3.658zm7.104-14.012c-.373-4.409-2.882-8.248-7.665-8.248-4.179 0-7.337 3.513-7.796 8.248h15.461zM102.792 19.061v-.094c0-5.144 4.254-7.885 10.441-7.885 3.12 0 5.34.424 7.517 1.042v-.854c0-4.386-2.701-6.656-7.279-6.656-2.458 0-3.888.313-5.687 1.114a1.834 1.834 0 01-.656.143c-.851 0-1.61-.71-1.61-1.558 0-.753.329-1.22.994-1.514 2.406-1.043 4.22-1.39 7.337-1.39 3.447 0 6.093.894 7.886 2.69 1.656 1.651 2.507 4.01 2.507 7.128v13.467c0 1.036-.756 1.793-1.754 1.793-1.035 0-1.737-.756-1.737-1.7V22.46c-1.704 2.223-4.541 4.202-8.832 4.202-4.539-.003-9.127-2.597-9.127-7.6zm18.005-1.888v-2.361a25.612 25.612 0 00-7.187-1.039c-4.577 0-7.132 1.985-7.132 5.05v.094c0 3.067 2.832 4.862 6.144 4.862 4.486 0 8.175-2.74 8.175-6.606zM8.34 2.937C7.538 1.184 5.56.39 3.714 1.21c-1.85.821-2.53 2.87-1.694 4.623L9.774 22.67c1.22 2.638 2.505 4.021 4.916 4.021 2.577 0 3.7-1.506 4.918-4.021 0 0 6.763-14.712 6.83-14.865.07-.156.287-.631.975-.627a1.076 1.076 0 011.071 1.091v14.386c0 2.217 1.23 4.036 3.6 4.036 2.366 0 3.645-1.819 3.645-4.036V10.883c0-2.27 1.629-3.744 3.848-3.744 2.22 0 3.697 1.526 3.697 3.744v11.772c0 2.217 1.235 4.036 3.599 4.036 2.366 0 3.652-1.819 3.652-4.036V10.883c0-2.27 1.622-3.744 3.843-3.744 2.216 0 3.699 1.526 3.699 3.744v11.772c0 2.217 1.234 4.036 3.6 4.036 2.365 0 3.65-1.819 3.65-4.036V9.257c0-4.924-3.964-8.373-8.733-8.373-4.764 0-7.747 3.292-7.747 3.292C47.252 2.123 45.066.89 41.367.89c-3.903 0-7.32 3.287-7.32 3.287C32.462 2.123 29.76.89 27.525.89c-3.46 0-6.207 1.52-7.883 5.348l-4.95 11.66-6.352-14.96zM165.229 4.395v-.02c0-1.647 1.339-3.035 3.02-3.035a3.014 3.014 0 013.025 3.023v.012c0 1.653-1.334 3.04-3.025 3.04a3.007 3.007 0 01-3.02-3.02zm5.464-.02v-.008c0-1.355-1.047-2.466-2.444-2.466-1.384 0-2.448 1.13-2.448 2.474v.016c0 1.351 1.051 2.462 2.448 2.462 1.38 0 2.444-1.128 2.444-2.478z"></path> <path fill="#fff" d="M167.093 3.18c0-.179.144-.322.326-.322h1.008c.379 0 .672.107.854.299a.91.91 0 01.257.666v.009c0 .46-.233.742-.585.89l.446.542c.062.08.104.147.104.247a.3.3 0 01-.306.296c-.143 0-.24-.074-.316-.166l-.627-.793h-.514v.637c0 .18-.139.32-.32.32a.321.321 0 01-.326-.32V3.18h-.001zm1.298 1.098c.314 0 .487-.164.487-.413v-.01c0-.273-.186-.42-.499-.42h-.643v.842h.655z"></path> </svg> 