<?xml version="1.0" encoding="UTF-8"?> <svg xmlns="http://www.w3.org/2000/svg" width="210" height="130" fill="none" viewBox="0 0 210 130"> <g filter="url(#filter0_d)"> <path fill="#9C7DE2" d="M105.236 119.993c-4.089.1-8.135-.85-11.747-2.757l-78.24-44.932a7.584 7.584 0 01-3.642-2.761 7.518 7.518 0 010-8.685 7.584 7.584 0 013.642-2.76l77.84-45.003a25.96 25.96 0 0111.642-2.755c4.044 0 8.032.944 11.642 2.755l78.24 44.932a7.581 7.581 0 013.642 2.761 7.514 7.514 0 010 8.685 7.582 7.582 0 01-3.642 2.76l-77.84 45.003a23.91 23.91 0 01-11.537 2.757zm-.422-108.23c-3.797-.071-7.55.821-10.902 2.594L16.072 59.36a6.155 6.155 0 00-3.12 2.218 6.099 6.099 0 000 7.247 6.155 6.155 0 003.12 2.218l78.145 45.049a24.263 24.263 0 0021.827 0l77.84-45.002a6.155 6.155 0 003.12-2.218 6.1 6.1 0 001.195-3.624 6.1 6.1 0 00-1.195-3.623 6.155 6.155 0 00-3.12-2.218l-78.239-44.932a22.417 22.417 0 00-10.831-2.71z"></path> </g> <defs> <filter id="filter0_d" width="209.413" height="129.66" x=".225" y=".34" color-interpolation-filters="sRGB" filterUnits="userSpaceOnUse"> <feFlood flood-opacity="0" result="BackgroundImageFix"></feFlood> <feColorMatrix in="SourceAlpha" values="0 0 0 0 0 0 0 0 0 0 0 0 0 0 0 0 0 0 127 0"></feColorMatrix> <feOffset></feOffset> <feGaussianBlur stdDeviation="5"></feGaussianBlur> <feColorMatrix values="0 0 0 0 0.611765 0 0 0 0 0.490196 0 0 0 0 0.886275 0 0 0 0.6 0"></feColorMatrix> <feBlend in2="BackgroundImageFix" result="effect1_dropShadow"></feBlend> <feBlend in="SourceGraphic" in2="effect1_dropShadow" result="shape"></feBlend> </filter> </defs> </svg> 