<?xml version="1.0" encoding="UTF-8"?> <svg xmlns="http://www.w3.org/2000/svg" width="161" height="116" fill="none" viewBox="0 0 161 116"> <g filter="url(#filter0_d)"> <rect width="135" height="91" x="15.5" y="14.5" stroke="#4BC68B" rx="7.5"></rect> </g> <g filter="url(#filter1_d)"> <rect width="136" height="91" x="10" y="10" fill="#4BC68B" rx="8"></rect> </g> <path fill="#fff" d="M30.5 47.52c0-.253.127-.38.38-.38h1.72c.253 0 .38.127.38.38v10.52c0 .12.033.18.1.18s.12-.053.16-.16l4.66-10.28c.12-.267.24-.44.36-.52a1 1 0 01.52-.12h2.16c.227 0 .413.08.56.24.16.147.24.333.24.56V61.6c0 .107-.04.2-.12.28a.384.384 0 01-.28.12h-1.7c-.107 0-.2-.04-.28-.12a.424.424 0 01-.1-.28V51.54c0-.107-.033-.16-.1-.16s-.127.053-.18.16l-4.44 9.74c-.16.36-.347.573-.56.64-.2.053-.42.08-.66.08H31.3a.828.828 0 01-.58-.22.828.828 0 01-.22-.58V47.52zm16.678 14.06c0 .107-.04.207-.12.3a.384.384 0 01-.28.12h-1.84c-.106 0-.2-.04-.28-.12a.453.453 0 01-.12-.3V51.14c0-.107.04-.2.12-.28a.36.36 0 01.28-.14h1.84c.107 0 .2.047.28.14.08.08.12.173.12.28v4.04h3.96v-4.04c0-.107.04-.2.12-.28a.36.36 0 01.28-.14h1.84c.107 0 .2.047.28.14.08.08.12.173.12.28v10.44c0 .107-.04.207-.12.3a.384.384 0 01-.28.12h-1.84c-.106 0-.2-.04-.28-.12a.453.453 0 01-.12-.3v-4.42h-3.96v4.42zm18.276.18a.248.248 0 01-.08.18.324.324 0 01-.2.06h-2.44a.532.532 0 01-.32-.12 1.665 1.665 0 01-.26-.28l-3.14-4.56v4.54c0 .107-.04.207-.12.3a.384.384 0 01-.28.12h-1.84c-.106 0-.2-.04-.28-.12a.453.453 0 01-.12-.3V51.12c0-.107.04-.2.12-.28.08-.08.174-.12.28-.12h1.84c.107 0 .2.04.28.12.08.08.12.173.12.28v4.4l3.42-4.56a.457.457 0 01.22-.18.63.63 0 01.24-.06h2.24c.2 0 .3.073.3.22a.32.32 0 01-.08.2l-4.02 4.94 4.06 5.52c.04.067.06.12.06.16zm10.257-4.98c0 .333-.133.5-.4.5h-6.52v.06c0 .293.034.593.1.9.067.293.187.567.36.82.187.24.434.44.74.6.32.147.72.22 1.2.22.734 0 1.42-.02 2.06-.06.654-.053 1.194-.1 1.62-.14h.06c.107 0 .194.027.26.08.067.04.1.113.1.22v1.32c0 .16-.026.28-.08.36-.04.08-.153.133-.34.16a14.427 14.427 0 01-1.76.26c-.28.027-.593.047-.94.06-.333.013-.726.02-1.18.02a6.547 6.547 0 01-1.62-.22 4.57 4.57 0 01-1.56-.8c-.48-.387-.88-.9-1.2-1.54-.306-.653-.46-1.473-.46-2.46v-1.48c0-.773.107-1.473.32-2.1.214-.627.52-1.16.92-1.6.414-.44.92-.78 1.52-1.02s1.28-.36 2.04-.36c.774 0 1.454.127 2.04.38.6.24 1.1.587 1.5 1.04.4.453.7.993.9 1.62.214.613.32 1.293.32 2.04v1.12zm-2.66-1.46c0-.787-.193-1.393-.58-1.82-.386-.427-.893-.64-1.52-.64-.626 0-1.14.213-1.54.64-.4.413-.6 1.02-.6 1.82v.08h4.24v-.08zm14.265 1.82c0 1.573-.394 2.807-1.18 3.7-.787.88-1.987 1.32-3.6 1.32-.24 0-.527-.013-.86-.04a10.471 10.471 0 01-1.06-.1v3.54c0 .107-.04.2-.12.28a.384.384 0 01-.28.12h-1.84c-.107 0-.2-.04-.28-.12a.384.384 0 01-.12-.28V51.64c0-.147.033-.253.1-.32.066-.08.213-.153.44-.22a17.17 17.17 0 012-.38c.706-.093 1.38-.14 2.02-.14 1.613 0 2.813.447 3.6 1.34.786.88 1.18 2.107 1.18 3.68v1.54zm-2.64-1.54c0-.413-.034-.793-.1-1.14a2.33 2.33 0 00-.32-.9 1.691 1.691 0 00-.66-.6c-.28-.147-.634-.22-1.06-.22-.36 0-.727.013-1.1.04a6.5 6.5 0 00-.82.1v6.98c.28.04.606.073.98.1.386.027.7.04.94.04.426 0 .78-.073 1.06-.22.28-.147.5-.347.66-.6a2.33 2.33 0 00.32-.9c.066-.347.1-.727.1-1.14V55.6zm16.403 6.18c0 .147-.107.22-.32.22h-1.86c-.067 0-.134-.033-.2-.1a.32.32 0 01-.08-.2v-7.04c0-.093-.02-.14-.06-.14l-.08.08-1.58 2.88c-.04.08-.12.147-.24.2a.906.906 0 01-.32.06h-1.84c-.12 0-.24-.02-.36-.06a.603.603 0 01-.24-.2l-1.58-2.88-.08-.08c-.04 0-.06.047-.06.14v7.04c0 .067-.034.133-.1.2-.054.067-.114.1-.18.1h-1.86c-.214 0-.32-.073-.32-.22V51.36c0-.173.073-.32.22-.44a.768.768 0 01.5-.18h1.52c.146 0 .28.04.4.12.12.067.213.153.28.26l2.54 4.64c.066.133.146.2.24.2.066 0 .133-.067.2-.2l2.54-4.64a.753.753 0 01.28-.26c.12-.08.253-.12.4-.12h1.52a.77.77 0 01.5.18c.146.12.22.267.22.44v10.42zm11.155-.18c0 .107-.04.2-.12.28a.383.383 0 01-.28.12h-1.7c-.106 0-.2-.04-.28-.12a.384.384 0 01-.12-.28v-.32c-.466.28-.933.5-1.4.66-.466.147-.94.22-1.42.22-.413 0-.826-.047-1.24-.14a2.883 2.883 0 01-1.12-.52 2.972 2.972 0 01-.8-1.02c-.2-.427-.3-.98-.3-1.66v-.08c0-.573.087-1.073.26-1.5.187-.427.474-.787.86-1.08.4-.293.907-.513 1.52-.66.627-.147 1.374-.22 2.24-.22h1.26v-.88c0-.653-.146-1.087-.44-1.3-.28-.213-.72-.32-1.32-.32-.64 0-1.26.02-1.86.06-.6.027-1.066.06-1.4.1h-.1a.503.503 0 01-.26-.06c-.066-.04-.1-.133-.1-.28v-1.28c0-.227.127-.367.38-.42.4-.08.88-.153 1.44-.22a16.54 16.54 0 011.9-.1c1.427 0 2.514.313 3.26.94.76.627 1.14 1.587 1.14 2.88v7.2zm-2.64-4.56h-1.26c-.453 0-.826.04-1.12.12-.28.067-.506.173-.68.32a1.08 1.08 0 00-.34.52c-.053.213-.08.46-.08.74v.08c0 .493.114.827.34 1 .227.16.594.24 1.1.24.36 0 .714-.053 1.06-.16.36-.107.687-.24.98-.4v-2.46zm7.877 4.54c0 .107-.04.207-.12.3a.383.383 0 01-.28.12h-1.84c-.106 0-.2-.04-.28-.12a.453.453 0 01-.12-.3V51.14c0-.107.04-.2.12-.28a.36.36 0 01.28-.14h1.84c.107 0 .2.047.28.14.08.08.12.173.12.28v4.04h3.96v-4.04c0-.107.04-.2.12-.28a.36.36 0 01.28-.14h1.84c.107 0 .2.047.28.14.08.08.12.173.12.28v10.44c0 .107-.04.207-.12.3a.383.383 0 01-.28.12h-1.84c-.106 0-.2-.04-.28-.12a.453.453 0 01-.12-.3v-4.42h-3.96v4.42z"></path> <defs> <filter id="filter0_d" width="156" height="112" x="5" y="4" color-interpolation-filters="sRGB" filterUnits="userSpaceOnUse"> <feFlood flood-opacity="0" result="BackgroundImageFix"></feFlood> <feColorMatrix in="SourceAlpha" values="0 0 0 0 0 0 0 0 0 0 0 0 0 0 0 0 0 0 127 0"></feColorMatrix> <feOffset></feOffset> <feGaussianBlur stdDeviation="5"></feGaussianBlur> <feColorMatrix values="0 0 0 0 0.294118 0 0 0 0 0.776471 0 0 0 0 0.545098 0 0 0 0.6 0"></feColorMatrix> <feBlend in2="BackgroundImageFix" result="effect1_dropShadow"></feBlend> <feBlend in="SourceGraphic" in2="effect1_dropShadow" result="shape"></feBlend> </filter> <filter id="filter1_d" width="156" height="111" x="0" y="0" color-interpolation-filters="sRGB" filterUnits="userSpaceOnUse"> <feFlood flood-opacity="0" result="BackgroundImageFix"></feFlood> <feColorMatrix in="SourceAlpha" values="0 0 0 0 0 0 0 0 0 0 0 0 0 0 0 0 0 0 127 0"></feColorMatrix> <feOffset></feOffset> <feGaussianBlur stdDeviation="5"></feGaussianBlur> <feColorMatrix values="0 0 0 0 0.294118 0 0 0 0 0.776471 0 0 0 0 0.545098 0 0 0 0.6 0"></feColorMatrix> <feBlend in2="BackgroundImageFix" result="effect1_dropShadow"></feBlend> <feBlend in="SourceGraphic" in2="effect1_dropShadow" result="shape"></feBlend> </filter> </defs> </svg> 