<?xml version="1.0" encoding="UTF-8"?> <svg xmlns="http://www.w3.org/2000/svg" width="130" height="60" fill="none" viewBox="0 0 130 60"> <path fill="#565656" d="M7.032 54.844c0 .104-.052.156-.156.156h-.768c-.072 0-.132-.004-.18-.012-.04-.016-.084-.064-.132-.144l-2.148-3.576H2.76l-.744-.036v3.528c0 .064-.02.12-.06.168A.193.193 0 011.8 55h-.648a.193.193 0 01-.156-.072.254.254 0 01-.06-.168v-8.4c0-.088.02-.148.06-.18.04-.04.116-.068.228-.084.128-.016.276-.028.444-.036a11.467 11.467 0 011.116-.048c.192-.008.376-.012.552-.012.472 0 .912.044 1.32.132.416.088.772.232 1.068.432.304.2.54.464.708.792.176.328.264.736.264 1.224v.084c0 .336-.048.64-.144.912a2.105 2.105 0 01-.384.696c-.168.2-.368.368-.6.504a3.01 3.01 0 01-.756.312l2.184 3.648c.024.04.036.076.036.108zM5.616 48.58c0-.6-.192-1.016-.576-1.248-.384-.232-.952-.348-1.704-.348h-.324c-.12 0-.244.004-.372.012-.12 0-.236.004-.348.012-.112 0-.204.004-.276.012v3.288l.756.024h.564c.368 0 .692-.024.972-.072.288-.056.528-.148.72-.276.192-.128.336-.296.432-.504.104-.216.156-.488.156-.816v-.084zm8.436 6.276c0 .04-.012.076-.036.108a.112.112 0 01-.084.06 3.39 3.39 0 01-.456.024l-.624.024c-.216.008-.436.012-.66.012h-.6c-.848 0-1.488-.172-1.92-.516-.424-.344-.636-.916-.636-1.716v-4.62c0-.8.212-1.372.636-1.716.432-.344 1.072-.516 1.92-.516.176 0 .372.004.588.012.224 0 .444.004.66.012.216 0 .42.008.612.024.192.008.352.016.48.024.04.008.068.028.084.06a.176.176 0 01.036.108v.6c0 .096-.044.144-.132.144h-2.316c-.32 0-.576.024-.768.072a.86.86 0 00-.444.216.757.757 0 00-.216.384c-.032.16-.048.352-.048.576V49.9h3.684a.23.23 0 01.168.072.23.23 0 01.072.168v.456a.23.23 0 01-.072.168.23.23 0 01-.168.072h-3.684v2.016c0 .232.016.428.048.588a.83.83 0 00.216.384c.104.096.252.168.444.216.192.04.448.06.768.06h2.316c.088 0 .132.048.132.144v.612zm7.665-.216c0 .152-.072.24-.216.264-.296.048-.628.088-.996.12-.36.04-.824.06-1.392.06-.376 0-.752-.064-1.128-.192a2.82 2.82 0 01-.996-.636c-.288-.296-.524-.68-.708-1.152-.184-.48-.276-1.064-.276-1.752v-1.608c0-.728.096-1.332.288-1.812.192-.48.44-.864.744-1.152a2.505 2.505 0 011.032-.6c.384-.12.768-.18 1.152-.18.56 0 1.02.02 1.38.06.368.032.668.068.9.108a.382.382 0 01.144.048c.04.024.06.068.06.132v.6c0 .08-.052.12-.156.12h-.048a12.013 12.013 0 00-.516-.036 5.07 5.07 0 00-.504-.024 12.749 12.749 0 00-.576-.012c-.2-.008-.428-.012-.684-.012-.28 0-.548.044-.804.132a1.56 1.56 0 00-.684.444c-.192.208-.348.492-.468.852-.112.352-.168.796-.168 1.332v1.608c0 .496.052.92.156 1.272.104.344.248.628.432.852.184.224.396.388.636.492.248.096.512.144.792.144a14.765 14.765 0 001.512-.072v-3.432c0-.064.02-.12.06-.168a.193.193 0 01.156-.072h.648c.064 0 .116.024.156.072a.23.23 0 01.072.168v4.032zm3.688.12c0 .064-.02.12-.06.168a.193.193 0 01-.156.072h-.66a.193.193 0 01-.156-.072.254.254 0 01-.06-.168v-8.448c0-.064.02-.116.06-.156a.193.193 0 01.156-.072h.66c.064 0 .116.024.156.072.04.04.06.092.06.156v8.448zm7.651-2.076c0 .288-.044.576-.132.864a1.923 1.923 0 01-.468.78c-.216.224-.516.408-.9.552-.384.136-.872.204-1.464.204-.424 0-.796-.02-1.116-.06a17.52 17.52 0 01-.876-.108c-.104-.016-.168-.04-.192-.072-.024-.032-.036-.08-.036-.144v-.48c0-.064.02-.112.06-.144a.223.223 0 01.144-.048h.036c.136.016.288.028.456.036l.528.024c.184 0 .36.004.528.012h.468c.36 0 .656-.032.888-.096.24-.072.428-.168.564-.288.136-.128.232-.28.288-.456a1.89 1.89 0 00.084-.576 1.091 1.091 0 00-.312-.78 2.78 2.78 0 00-.444-.372 10.087 10.087 0 00-.684-.456l-1.164-.708c-.552-.336-.968-.672-1.248-1.008-.272-.344-.408-.756-.408-1.236 0-.728.248-1.264.744-1.608.496-.344 1.204-.516 2.124-.516a13.278 13.278 0 011.128.048c.192.008.372.024.54.048.168.016.308.032.42.048.136.024.204.092.204.204v.516c0 .128-.068.192-.204.192h-.024a52.885 52.885 0 00-.972-.048c-.376-.016-.74-.024-1.092-.024-.624 0-1.076.08-1.356.24-.272.16-.408.46-.408.9 0 .28.104.524.312.732.208.208.54.448.996.72l1.104.66c.344.208.636.408.876.6s.436.384.588.576c.152.192.26.392.324.6.064.208.096.432.096.672zm7.858-5.856c0 .128-.076.192-.228.192h-2.34v7.74c0 .064-.02.12-.06.168a.193.193 0 01-.156.072h-.66a.193.193 0 01-.156-.072.254.254 0 01-.06-.168v-7.74h-2.34a.296.296 0 01-.168-.048.162.162 0 01-.072-.144V46.3c0-.064.024-.116.072-.156a.254.254 0 01.168-.06h5.772c.152 0 .228.072.228.216v.528zm6.642 8.028c0 .04-.012.076-.036.108a.112.112 0 01-.084.06 3.39 3.39 0 01-.456.024l-.624.024c-.216.008-.436.012-.66.012h-.6c-.848 0-1.488-.172-1.92-.516-.424-.344-.636-.916-.636-1.716v-4.62c0-.8.212-1.372.636-1.716.432-.344 1.072-.516 1.92-.516.176 0 .372.004.588.012.224 0 .444.004.66.012.216 0 .42.008.612.024.192.008.352.016.48.024.04.008.068.028.084.06a.176.176 0 01.036.108v.6c0 .096-.044.144-.132.144h-2.316c-.32 0-.576.024-.768.072a.86.86 0 00-.444.216.757.757 0 00-.216.384c-.032.16-.048.352-.048.576V49.9h3.684a.23.23 0 01.168.072.23.23 0 01.072.168v.456a.23.23 0 01-.072.168.23.23 0 01-.168.072h-3.684v2.016c0 .232.016.428.048.588a.83.83 0 00.216.384c.104.096.252.168.444.216.192.04.448.06.768.06h2.316c.088 0 .132.048.132.144v.612zm8.29-.012c0 .104-.053.156-.157.156h-.768c-.072 0-.132-.004-.18-.012-.04-.016-.084-.064-.132-.144l-2.148-3.576H51.573l-.744-.036v3.528c0 .064-.02.12-.06.168a.193.193 0 01-.156.072h-.648a.193.193 0 01-.156-.072.254.254 0 01-.06-.168v-8.4c0-.088.02-.148.06-.18.04-.04.116-.068.228-.084.128-.016.276-.028.444-.036a11.467 11.467 0 011.116-.048c.192-.008.376-.012.552-.012.472 0 .912.044 1.32.132.416.088.772.232 1.068.432.304.2.54.464.708.792.176.328.264.736.264 1.224v.084c0 .336-.048.64-.144.912a2.105 2.105 0 01-.384.696c-.168.2-.368.368-.6.504a3.01 3.01 0 01-.756.312l2.184 3.648c.024.04.036.076.036.108zm-1.417-6.264c0-.6-.192-1.016-.576-1.248-.384-.232-.952-.348-1.704-.348h-.324c-.12 0-.244.004-.372.012-.12 0-.236.004-.348.012-.112 0-.204.004-.276.012v3.288l.756.024h.564c.368 0 .692-.024.972-.072.288-.056.528-.148.72-.276.192-.128.336-.296.432-.504.104-.216.156-.488.156-.816v-.084zm8.436 6.276c0 .04-.012.076-.036.108a.112.112 0 01-.084.06 3.39 3.39 0 01-.456.024l-.624.024c-.216.008-.436.012-.66.012h-.6c-.848 0-1.488-.172-1.92-.516-.424-.344-.636-.916-.636-1.716v-4.62c0-.8.212-1.372.636-1.716.432-.344 1.072-.516 1.92-.516.176 0 .372.004.588.012.224 0 .444.004.66.012.216 0 .42.008.612.024.192.008.352.016.48.024.04.008.068.028.084.06a.176.176 0 01.036.108v.6c0 .096-.044.144-.132.144h-2.316c-.32 0-.576.024-.768.072a.86.86 0 00-.444.216.757.757 0 00-.216.384c-.032.16-.048.352-.048.576V49.9h3.684a.23.23 0 01.168.072.23.23 0 01.072.168v.456a.23.23 0 01-.072.168.23.23 0 01-.168.072h-3.684v2.016c0 .232.016.428.048.588a.83.83 0 00.216.384c.104.096.252.168.444.216.192.04.448.06.768.06h2.316c.088 0 .132.048.132.144v.612zm8.266-3.504c0 .64-.088 1.196-.264 1.668-.168.472-.412.86-.732 1.164a2.977 2.977 0 01-1.14.684 4.887 4.887 0 01-1.5.216c-.232 0-.46-.004-.684-.012-.216-.008-.424-.02-.624-.036A8.26 8.26 0 0165.67 55a2.996 2.996 0 01-.36-.036c-.168-.024-.252-.124-.252-.3V46.42c0-.176.084-.276.252-.3.088-.016.208-.028.36-.036a8.26 8.26 0 01.516-.036c.2-.016.408-.028.624-.036.224-.008.452-.012.684-.012.552 0 1.052.072 1.5.216.448.144.828.372 1.14.684.32.304.564.692.732 1.164.176.464.264 1.02.264 1.668v1.62zm-1.092-1.62c0-.544-.068-.996-.204-1.356-.128-.36-.308-.644-.54-.852a1.87 1.87 0 00-.804-.456 3.571 3.571 0 00-.996-.132c-.28 0-.524.004-.732.012-.2 0-.4.008-.6.024v7.152c.192.016.392.024.6.024h.732c.36 0 .692-.044.996-.132.312-.088.58-.24.804-.456.232-.216.412-.5.54-.852.136-.36.204-.812.204-1.356v-1.62zm12.512-.972c0 .504-.084.928-.252 1.272a2.215 2.215 0 01-.708.828c-.296.208-.648.36-1.056.456a6.38 6.38 0 01-1.344.132c-.192 0-.4-.004-.624-.012a20.81 20.81 0 01-.576-.048v3.372c0 .064-.02.12-.06.168a.193.193 0 01-.156.072h-.648a.193.193 0 01-.156-.072.254.254 0 01-.06-.168v-8.364c0-.176.096-.276.288-.3.256-.032.564-.056.924-.072.36-.016.716-.024 1.068-.024.488 0 .936.048 1.344.144.408.088.76.236 1.056.444.304.2.54.468.708.804.168.328.252.732.252 1.212v.156zm-1.092-.156c0-.608-.184-1.04-.552-1.296-.368-.256-.94-.384-1.716-.384-.184 0-.396.004-.636.012-.232.008-.42.02-.564.036v3.516c.072 0 .16.004.264.012l.324.024c.112 0 .22.004.324.012h.288c.824 0 1.408-.14 1.752-.42.344-.28.516-.732.516-1.356v-.156zm8.739 6.204c0 .128-.068.192-.204.192h-.708a.178.178 0 01-.132-.048.425.425 0 01-.072-.132l-.78-2.76h-3.108l-.768 2.76a.337.337 0 01-.084.132.207.207 0 01-.132.048h-.708c-.136 0-.204-.064-.204-.192 0-.04.004-.068.012-.084l2.22-7.812c.048-.184.116-.332.204-.444.096-.12.2-.212.312-.276.112-.072.228-.12.348-.144a1.488 1.488 0 01.708-.012c.12.024.236.072.348.144a.973.973 0 01.3.276c.096.112.168.26.216.444l2.22 7.824a.206.206 0 01.012.084zm-3.216-7.644c-.04-.144-.116-.216-.228-.216-.12 0-.2.072-.24.216l-1.092 3.948h2.652l-1.092-3.948zm11.194 7.68c0 .104-.052.156-.156.156h-.768c-.072 0-.132-.004-.18-.012-.04-.016-.084-.064-.132-.144l-2.148-3.576H93.904l-.744-.036v3.528c0 .064-.02.12-.06.168a.193.193 0 01-.156.072h-.648a.193.193 0 01-.156-.072.254.254 0 01-.06-.168v-8.4c0-.088.02-.148.06-.18.04-.04.116-.068.228-.084.128-.016.276-.028.444-.036a11.467 11.467 0 011.116-.048c.192-.008.376-.012.552-.012.472 0 .912.044 1.32.132.416.088.772.232 1.068.432.304.2.54.464.708.792.176.328.264.736.264 1.224v.084c0 .336-.048.64-.144.912a2.105 2.105 0 01-.384.696c-.168.2-.368.368-.6.504a3.01 3.01 0 01-.756.312l2.184 3.648c.024.04.036.076.036.108zM96.76 48.58c0-.6-.192-1.016-.576-1.248-.384-.232-.952-.348-1.704-.348h-.324c-.12 0-.244.004-.372.012-.12 0-.236.004-.348.012-.112 0-.204.004-.276.012v3.288l.756.024h.564c.368 0 .692-.024.972-.072.288-.056.528-.148.72-.276.192-.128.336-.296.432-.504.104-.216.156-.488.156-.816v-.084zm8.628-1.752c0 .128-.076.192-.228.192h-2.34v7.74c0 .064-.02.12-.06.168a.193.193 0 01-.156.072h-.66a.193.193 0 01-.156-.072.254.254 0 01-.06-.168v-7.74h-2.34a.296.296 0 01-.168-.048.162.162 0 01-.072-.144V46.3c0-.064.024-.116.072-.156a.254.254 0 01.168-.06h5.772c.152 0 .228.072.228.216v.528zm8.242 7.824c0 .096-.036.18-.108.252a.326.326 0 01-.24.096h-.744c-.192 0-.32-.064-.384-.192l-3.708-7.044c-.016-.024-.028-.036-.036-.036-.008 0-.012.012-.012.036v7.008c0 .064-.02.12-.06.168a.211.211 0 01-.156.06h-.624a.426.426 0 01-.156-.024c-.04-.016-.06-.056-.06-.12V46.42c0-.096.032-.176.096-.24a.367.367 0 01.252-.096h.66c.168 0 .28.02.336.06a.445.445 0 01.156.18l3.684 7.008.024.036c.008 0 .012-.012.012-.036v-7.02c0-.064.02-.116.06-.156a.193.193 0 01.156-.072h.636c.064 0 .116.024.156.072.04.04.06.092.06.156v8.34zm7.484.204c0 .04-.012.076-.036.108a.112.112 0 01-.084.06 3.39 3.39 0 01-.456.024l-.624.024c-.216.008-.436.012-.66.012h-.6c-.848 0-1.488-.172-1.92-.516-.424-.344-.636-.916-.636-1.716v-4.62c0-.8.212-1.372.636-1.716.432-.344 1.072-.516 1.92-.516.176 0 .372.004.588.012.224 0 .444.004.66.012.216 0 .42.008.612.024.192.008.352.016.48.024.04.008.068.028.084.06a.176.176 0 01.036.108v.6c0 .096-.044.144-.132.144h-2.316c-.32 0-.576.024-.768.072a.86.86 0 00-.444.216.757.757 0 00-.216.384c-.032.16-.048.352-.048.576V49.9h3.684a.23.23 0 01.168.072.23.23 0 01.072.168v.456a.23.23 0 01-.072.168.23.23 0 01-.168.072h-3.684v2.016c0 .232.016.428.048.588a.83.83 0 00.216.384c.104.096.252.168.444.216.192.04.448.06.768.06h2.316c.088 0 .132.048.132.144v.612zm8.29-.012c0 .104-.052.156-.156.156h-.768c-.072 0-.132-.004-.18-.012-.04-.016-.084-.064-.132-.144l-2.148-3.576H125.132l-.744-.036v3.528c0 .064-.02.12-.06.168a.193.193 0 01-.156.072h-.648a.193.193 0 01-.156-.072.254.254 0 01-.06-.168v-8.4c0-.088.02-.148.06-.18.04-.04.116-.068.228-.084.128-.016.276-.028.444-.036a11.467 11.467 0 011.116-.048c.192-.008.376-.012.552-.012.472 0 .912.044 1.32.132.416.088.772.232 1.068.432.304.2.54.464.708.792.176.328.264.736.264 1.224v.084c0 .336-.048.64-.144.912a2.105 2.105 0 01-.384.696c-.168.2-.368.368-.6.504a3.01 3.01 0 01-.756.312l2.184 3.648c.024.04.036.076.036.108zm-1.416-6.264c0-.6-.192-1.016-.576-1.248-.384-.232-.952-.348-1.704-.348h-.324c-.12 0-.244.004-.372.012-.12 0-.236.004-.348.012-.112 0-.204.004-.276.012v3.288l.756.024h.564c.368 0 .692-.024.972-.072.288-.056.528-.148.72-.276.192-.128.336-.296.432-.504.104-.216.156-.488.156-.816v-.084z"></path> <path fill="#000" fill-rule="evenodd" d="M80.813 21.3a.83.83 0 01.843-.83.83.83 0 01.838.83.83.83 0 01-.838.835.831.831 0 01-.844-.835zm.843.697c.375 0 .671-.296.671-.697a.672.672 0 00-.671-.692.672.672 0 00-.677.692c0 .401.297.697.677.697zm-.176-.215h-.145v-.96h.365c.226 0 .338.084.338.273 0 .172-.108.247-.248.265l.272.422h-.163l-.252-.416h-.167v.416l.173-.54c.123 0 .233-.008.233-.156 0-.119-.107-.14-.209-.14h-.197v.297h.173l-.173.54z" clip-rule="evenodd"></path> <path fill="#fff" fill-rule="evenodd" d="M17.909 27.06l-3.539-6.335h12.795L20.74 7.072 11.32 27.06H.05L14.806.083h11.869L41.32 27.06H17.91zM41.376 11.387h14.047c3.539 0 4.955-.219 4.955-2.73 0-2.403-1.144-2.676-4.792-2.676H41.321L38.163.083h19.819c9.365 0 12.85 4.095 12.85 8.464 0 4.205-3.213 8.847-13.504 8.847h-4.682v9.666H41.321V11.387h.055z" clip-rule="evenodd"></path> <path fill="#fff" fill-rule="evenodd" d="M100.179 25.422c-3.377 1.584-7.569 2.348-12.033 2.348-13.503 0-18.131-7.536-18.131-13.761 0-7.864 6.86-13.926 18.675-13.926 4.302 0 8.058.655 11.216 1.857v7.809c-3.267-1.747-6.098-2.512-9.42-2.512-5.662 0-10.29 2.567-10.29 6.662 0 4.042 4.737 6.663 10.4 6.663 3.266 0 5.934-.655 9.583-2.348v7.208z" clip-rule="evenodd"></path> <path fill="#000" fill-rule="evenodd" d="M101.373 2.415c0-.71.577-1.233 1.259-1.233.676 0 1.253.523 1.253 1.233 0 .716-.577 1.24-1.253 1.24-.682 0-1.259-.524-1.259-1.24zm1.259 1.034c.561 0 1.004-.438 1.004-1.034 0-.586-.443-1.027-1.004-1.027-.567 0-1.01.441-1.01 1.027 0 .596.443 1.034 1.01 1.034zm-.262-.318h-.216V1.705h.544c.338 0 .505.124.505.406 0 .255-.161.366-.37.392l.406.628h-.243l-.377-.618h-.249v.618l.259-.801c.184 0 .348-.013.348-.232 0-.177-.161-.21-.312-.21h-.295v.442h.259l-.259.801z" clip-rule="evenodd"></path> </svg> 