<?xml version="1.0" encoding="UTF-8"?> <svg xmlns="http://www.w3.org/2000/svg" width="189" height="148" fill="none" viewBox="0 0 189 148"> <path fill="url(#paint0_linear)" d="M183.959 48.862l-78.377-45.51a24.86 24.86 0 00-22.595 0L5.01 48.957c-6.237 3.62-6.237 9.466 0 13.111l78.377 45.511a24.859 24.859 0 0022.595 0l77.977-45.582c6.237-3.644 6.237-9.514 0-13.135z"></path> <path fill="url(#paint1_linear)" d="M188.566 93.669v-37.46l-47.482 6.298-35.552-20.415a25.068 25.068 0 00-22.588 0l-5.53 3.511L.332 55.835v38.138a7.962 7.962 0 001.527 3.75 8.021 8.021 0 003.179 2.525l78.352 45.021a25.063 25.063 0 0022.589 0l77.952-45.092a8.013 8.013 0 003.174-2.514 7.966 7.966 0 001.532-3.737l-.071-.257z"></path> <path fill="url(#paint2_linear)" d="M183.959 48.862l-78.377-45.51a24.86 24.86 0 00-22.595 0L5.01 48.957c-6.237 3.62-6.237 9.466 0 13.111l78.377 45.511a24.859 24.859 0 0022.595 0l77.977-45.582c6.237-3.644 6.237-9.514 0-13.135z"></path> <path fill="#fff" d="M183.97 59.272l-77.986 45.99a24.689 24.689 0 01-11.3 2.741c-3.926 0-7.797-.939-11.298-2.741L4.999 59.344A8.682 8.682 0 012.154 57.1a8.828 8.828 0 01-1.698-3.224c-.589 2.77.918 5.659 4.543 7.76l78.387 45.919a24.698 24.698 0 0011.299 2.74 24.7 24.7 0 0011.299-2.74l77.986-45.99c3.625-2.126 5.132-5.015 4.543-7.761a8.838 8.838 0 01-1.698 3.224 8.683 8.683 0 01-2.845 2.244zM115.53 116.941l-3.323 2.216v-4.431l3.323-2.215v4.43zM123.284 112.88l-3.323 1.846v-3.692l3.323-1.846v3.692zM131.037 108.08l-3.323 2.215v-4.431l3.323-2.215v4.431zM124.391 120.248l-3.323 2.232v-4.415l3.323-2.231v4.414zM132.145 116.941l-3.323 2.216v-4.431l3.323-2.215v4.43zM155.407 93.68l-3.324 2.215v-4.43l3.324-2.216v4.431zM177.56 81.851l-4.431 1.86v-3.679l4.431-1.86v3.68zM138.791 103.633l-3.323 2.232v-4.415l3.323-2.231v4.414z"></path> <path fill="url(#paint3_linear)" d="M94.06 92.57a16.44 16.44 0 01-8.038-1.928l-52.16-29.968a5.576 5.576 0 01-2.629-2.034 5.524 5.524 0 010-6.32 5.575 5.575 0 012.629-2.035l51.9-29.991a17.605 17.605 0 0116.054 0L154 50.238a5.573 5.573 0 012.628 2.034 5.527 5.527 0 010 6.321A5.574 5.574 0 01154 60.627L102.1 90.62a16.441 16.441 0 01-8.04 1.95zm-.283-72.182a14.4 14.4 0 00-7.093 1.668L34.902 52.049a3.594 3.594 0 00-1.873 1.285 3.559 3.559 0 000 4.293 3.594 3.594 0 001.873 1.285l52.184 29.945a15.586 15.586 0 0014.021 0l51.9-29.992a3.594 3.594 0 001.873-1.285 3.558 3.558 0 000-4.293 3.594 3.594 0 00-1.873-1.285l-52.208-29.944a14.396 14.396 0 00-6.998-1.67h-.024z"></path> <defs> <linearGradient id="paint0_linear" x1="20.824" x2="114.398" y1="124.695" y2="28.545" gradientUnits="userSpaceOnUse"> <stop stop-color="#9C7DE2"></stop> <stop offset="1" stop-color="#9C7DE2" stop-opacity="0"></stop> </linearGradient> <linearGradient id="paint1_linear" x1="94.484" x2="94.484" y1="39.404" y2="157.396" gradientUnits="userSpaceOnUse"> <stop stop-color="#fff"></stop> <stop offset="1" stop-color="#fff" stop-opacity="0"></stop> </linearGradient> <linearGradient id="paint2_linear" x1="99.469" x2="60.145" y1=".635" y2="152.071" gradientUnits="userSpaceOnUse"> <stop stop-color="#9C7DE2"></stop> <stop offset="1" stop-color="#9C7DE2" stop-opacity="0"></stop> </linearGradient> <linearGradient id="paint3_linear" x1="145.282" x2="-9.522" y1="25.975" y2="91.812" gradientUnits="userSpaceOnUse"> <stop stop-color="#9C7DE2"></stop> <stop offset="1" stop-color="#9C7DE2" stop-opacity="0"></stop> </linearGradient> </defs> </svg> 