<?xml version="1.0" encoding="UTF-8"?> <svg xmlns="http://www.w3.org/2000/svg" width="46" height="46" fill="none" viewBox="0 0 46 46"> <path fill="url(#paint0_linear)" fill-rule="evenodd" d="M43.125 0H2.875A2.875 2.875 0 000 2.875V11.5a2.875 2.875 0 002.875 2.875h40.25A2.875 2.875 0 0046 11.5V2.875A2.875 2.875 0 0043.125 0zM.397 33.042A2.862 2.862 0 000 34.5v8.625A2.875 2.875 0 002.875 46h40.25A2.875 2.875 0 0046 43.125V34.5a2.875 2.875 0 00-2.875-2.875H2.875a2.873 2.873 0 00-2.437 1.349L.397 33v.042zm2.478-17.23h40.25A2.875 2.875 0 0146 18.689v8.625a2.875 2.875 0 01-2.875 2.875H2.875A2.875 2.875 0 010 27.313v-8.625a2.875 2.875 0 012.875-2.875z" clip-rule="evenodd"></path> <defs> <linearGradient id="paint0_linear" x1="23" x2="23" y1="0" y2="50" gradientUnits="userSpaceOnUse"> <stop stop-color="#fff"></stop> <stop offset="1" stop-color="#fff" stop-opacity="0"></stop> </linearGradient> </defs> </svg> 