<?xml version="1.0" encoding="UTF-8"?> <svg xmlns="http://www.w3.org/2000/svg" width="158" height="60" fill="none" viewBox="0 0 158 60"> <path fill="#565656" d="M6 52.684c0 .288-.044.576-.132.864a1.923 1.923 0 01-.468.78c-.216.224-.516.408-.9.552-.384.136-.872.204-1.464.204-.424 0-.796-.02-1.116-.06a17.52 17.52 0 01-.876-.108c-.104-.016-.168-.04-.192-.072-.024-.032-.036-.08-.036-.144v-.48c0-.064.02-.112.06-.144a.223.223 0 01.144-.048h.036c.136.016.288.028.456.036l.528.024c.184 0 .36.004.528.012h.468c.36 0 .656-.032.888-.096.24-.072.428-.168.564-.288.136-.128.232-.28.288-.456a1.89 1.89 0 00.084-.576 1.091 1.091 0 00-.312-.78 2.78 2.78 0 00-.444-.372 10.087 10.087 0 00-.684-.456l-1.164-.708c-.552-.336-.968-.672-1.248-1.008C.736 49.016.6 48.604.6 48.124c0-.728.248-1.264.744-1.608C1.84 46.172 2.548 46 3.468 46a13.278 13.278 0 011.128.048c.192.008.372.024.54.048.168.016.308.032.42.048.136.024.204.092.204.204v.516c0 .128-.068.192-.204.192h-.024a52.885 52.885 0 00-.972-.048c-.376-.016-.74-.024-1.092-.024-.624 0-1.076.08-1.356.24-.272.16-.408.46-.408.9 0 .28.104.524.312.732.208.208.54.448.996.72l1.104.66c.344.208.636.408.876.6s.436.384.588.576c.152.192.26.392.324.6.064.208.096.432.096.672zm3.346 2.076c0 .064-.02.12-.06.168A.193.193 0 019.13 55h-.66a.193.193 0 01-.156-.072.254.254 0 01-.06-.168v-8.448c0-.064.02-.116.06-.156a.193.193 0 01.156-.072h.66c.064 0 .116.024.156.072.04.04.06.092.06.156v8.448zm7.603.048c0 .04-.012.076-.036.108a.112.112 0 01-.084.06c-.16.024-.448.048-.864.072-.416.024-.908.036-1.476.036-.32 0-.636-.024-.948-.072a2.126 2.126 0 01-.816-.3 1.7 1.7 0 01-.576-.672c-.144-.296-.216-.692-.216-1.188v-6.528a.23.23 0 01.072-.168.23.23 0 01.168-.072h.612a.23.23 0 01.168.072.23.23 0 01.072.168v6.528c0 .232.016.428.048.588a.83.83 0 00.216.384c.104.096.252.168.444.216.192.04.448.06.768.06h2.316c.088 0 .132.048.132.144v.564zm7.018-8.52a.167.167 0 01-.012.072l-2.208 7.812a1.345 1.345 0 01-.228.468 1.014 1.014 0 01-.648.408c-.12.024-.236.036-.348.036-.112 0-.228-.012-.348-.036a1.155 1.155 0 01-.348-.132 1.433 1.433 0 01-.312-.276 1.498 1.498 0 01-.216-.468l-2.22-7.812a.167.167 0 01-.012-.072c0-.064.02-.112.06-.144.04-.04.092-.06.156-.06h.696c.048 0 .092.02.132.06.04.032.068.072.084.12l2.088 7.644c.048.168.128.252.24.252.104 0 .18-.084.228-.252l2.1-7.644a.301.301 0 01.072-.12c.04-.04.084-.06.132-.06h.708c.136 0 .204.068.204.204zm6.639 8.568c0 .04-.012.076-.036.108a.112.112 0 01-.084.06 3.39 3.39 0 01-.456.024l-.624.024c-.216.008-.436.012-.66.012h-.6c-.848 0-1.488-.172-1.92-.516-.424-.344-.636-.916-.636-1.716v-4.62c0-.8.212-1.372.636-1.716.432-.344 1.072-.516 1.92-.516.176 0 .372.004.588.012.224 0 .444.004.66.012.216 0 .42.008.612.024.192.008.352.016.48.024.04.008.068.028.084.06a.176.176 0 01.036.108v.6c0 .096-.044.144-.132.144h-2.316c-.32 0-.576.024-.768.072a.86.86 0 00-.444.216.757.757 0 00-.216.384c-.032.16-.048.352-.048.576V49.9h3.684a.23.23 0 01.168.072.23.23 0 01.072.168v.456a.23.23 0 01-.072.168.23.23 0 01-.168.072h-3.684v2.016c0 .232.016.428.048.588a.83.83 0 00.216.384c.104.096.252.168.444.216.192.04.448.06.768.06h2.316c.088 0 .132.048.132.144v.612zm8.29-.012c0 .104-.053.156-.157.156h-.768c-.072 0-.132-.004-.18-.012-.04-.016-.084-.064-.132-.144l-2.148-3.576H34.623l-.744-.036v3.528c0 .064-.02.12-.06.168a.193.193 0 01-.156.072h-.648a.193.193 0 01-.156-.072.254.254 0 01-.06-.168v-8.4c0-.088.02-.148.06-.18.04-.04.116-.068.228-.084.128-.016.276-.028.444-.036a11.467 11.467 0 011.116-.048c.192-.008.376-.012.552-.012.472 0 .912.044 1.32.132.416.088.772.232 1.068.432.304.2.54.464.708.792.176.328.264.736.264 1.224v.084c0 .336-.048.64-.144.912a2.105 2.105 0 01-.384.696c-.168.2-.368.368-.6.504a3.01 3.01 0 01-.756.312l2.184 3.648c.024.04.036.076.036.108zm-1.417-6.264c0-.6-.192-1.016-.576-1.248-.384-.232-.952-.348-1.704-.348h-.324c-.12 0-.244.004-.372.012-.12 0-.236.004-.348.012-.112 0-.204.004-.276.012v3.288l.756.024h.564c.368 0 .692-.024.972-.072.288-.056.528-.148.72-.276.192-.128.336-.296.432-.504.104-.216.156-.488.156-.816v-.084zm13.081 6.264c0 .104-.052.156-.156.156h-.768c-.072 0-.132-.004-.18-.012-.04-.016-.084-.064-.132-.144l-2.148-3.576H46.288l-.744-.036v3.528c0 .064-.02.12-.06.168a.193.193 0 01-.156.072h-.648a.193.193 0 01-.156-.072.254.254 0 01-.06-.168v-8.4c0-.088.02-.148.06-.18.04-.04.116-.068.228-.084.128-.016.276-.028.444-.036a11.467 11.467 0 011.116-.048c.192-.008.376-.012.552-.012.472 0 .912.044 1.32.132.416.088.772.232 1.068.432.304.2.54.464.708.792.176.328.264.736.264 1.224v.084c0 .336-.048.64-.144.912a2.105 2.105 0 01-.384.696c-.168.2-.368.368-.6.504a3.01 3.01 0 01-.756.312l2.184 3.648c.024.04.036.076.036.108zm-1.416-6.264c0-.6-.192-1.016-.576-1.248-.384-.232-.952-.348-1.704-.348h-.324c-.12 0-.244.004-.372.012-.12 0-.236.004-.348.012-.112 0-.204.004-.276.012v3.288l.756.024h.564c.368 0 .692-.024.972-.072.288-.056.528-.148.72-.276.192-.128.336-.296.432-.504.104-.216.156-.488.156-.816v-.084zm8.436 6.276c0 .04-.012.076-.036.108a.112.112 0 01-.084.06 3.39 3.39 0 01-.456.024l-.624.024c-.216.008-.436.012-.66.012h-.6c-.848 0-1.488-.172-1.92-.516-.424-.344-.636-.916-.636-1.716v-4.62c0-.8.212-1.372.636-1.716.432-.344 1.072-.516 1.92-.516.176 0 .372.004.588.012.224 0 .444.004.66.012.216 0 .42.008.612.024.192.008.352.016.48.024.04.008.068.028.084.06a.176.176 0 01.036.108v.6c0 .096-.044.144-.132.144h-2.316c-.32 0-.576.024-.768.072a.86.86 0 00-.444.216.757.757 0 00-.216.384c-.032.16-.048.352-.048.576V49.9h3.684a.23.23 0 01.168.072.23.23 0 01.072.168v.456a.23.23 0 01-.072.168.23.23 0 01-.168.072h-3.684v2.016c0 .232.016.428.048.588a.83.83 0 00.216.384c.104.096.252.168.444.216.192.04.448.06.768.06h2.316c.088 0 .132.048.132.144v.612zm7.258-2.172c0 .288-.044.576-.132.864a1.923 1.923 0 01-.469.78c-.215.224-.515.408-.9.552-.384.136-.872.204-1.464.204-.423 0-.795-.02-1.115-.06a17.52 17.52 0 01-.877-.108c-.103-.016-.167-.04-.191-.072-.024-.032-.036-.08-.036-.144v-.48c0-.064.02-.112.06-.144a.223.223 0 01.144-.048h.036c.136.016.288.028.456.036l.527.024c.184 0 .36.004.529.012h.468c.36 0 .655-.032.887-.096.24-.072.428-.168.564-.288.136-.128.232-.28.288-.456a1.89 1.89 0 00.084-.576 1.091 1.091 0 00-.312-.78 2.78 2.78 0 00-.444-.372 10.087 10.087 0 00-.684-.456l-1.163-.708c-.553-.336-.968-.672-1.248-1.008-.272-.344-.408-.756-.408-1.236 0-.728.247-1.264.743-1.608.497-.344 1.205-.516 2.125-.516a13.278 13.278 0 011.128.048c.192.008.372.024.54.048.167.016.307.032.42.048.135.024.203.092.203.204v.516c0 .128-.067.192-.203.192h-.025a52.885 52.885 0 00-.971-.048c-.377-.016-.74-.024-1.093-.024-.623 0-1.075.08-1.355.24-.273.16-.409.46-.409.9 0 .28.105.524.313.732.208.208.54.448.995.72l1.105.66c.343.208.636.408.876.6s.436.384.588.576c.151.192.26.392.323.6.064.208.097.432.097.672zm7.15 2.172c0 .04-.013.076-.037.108a.112.112 0 01-.084.06 3.39 3.39 0 01-.456.024l-.624.024c-.216.008-.436.012-.66.012h-.6c-.848 0-1.488-.172-1.92-.516-.424-.344-.636-.916-.636-1.716v-4.62c0-.8.212-1.372.636-1.716.432-.344 1.072-.516 1.92-.516.176 0 .372.004.588.012.224 0 .444.004.66.012.216 0 .42.008.612.024.192.008.352.016.48.024.04.008.068.028.084.06a.176.176 0 01.036.108v.6c0 .096-.044.144-.132.144H69.54c-.32 0-.576.024-.768.072a.86.86 0 00-.444.216.757.757 0 00-.216.384c-.032.16-.048.352-.048.576V49.9h3.684a.23.23 0 01.168.072.23.23 0 01.072.168v.456a.23.23 0 01-.072.168.23.23 0 01-.168.072h-3.684v2.016c0 .232.016.428.048.588a.83.83 0 00.216.384c.104.096.252.168.444.216.192.04.448.06.768.06h2.316c.088 0 .132.048.132.144v.612zm7.209-.048c0 .04-.013.076-.037.108a.112.112 0 01-.084.06c-.16.024-.447.048-.863.072-.416.024-.908.036-1.476.036-.32 0-.636-.024-.948-.072a2.126 2.126 0 01-.817-.3 1.7 1.7 0 01-.575-.672c-.145-.296-.217-.692-.217-1.188v-6.528a.23.23 0 01.072-.168.23.23 0 01.169-.072h.611a.23.23 0 01.169.072.23.23 0 01.072.168v6.528c0 .232.016.428.047.588a.83.83 0 00.217.384c.103.096.251.168.444.216.192.04.448.06.768.06h2.316c.088 0 .132.048.132.144v.564zm6.764 0c0 .04-.012.076-.036.108a.112.112 0 01-.084.06c-.16.024-.448.048-.864.072-.416.024-.908.036-1.476.036-.32 0-.636-.024-.948-.072a2.126 2.126 0 01-.816-.3 1.7 1.7 0 01-.576-.672c-.144-.296-.216-.692-.216-1.188v-6.528a.23.23 0 01.072-.168.23.23 0 01.168-.072h.612a.23.23 0 01.168.072.23.23 0 01.072.168v6.528c0 .232.016.428.048.588a.83.83 0 00.216.384c.104.096.252.168.444.216.192.04.448.06.768.06h2.316c.088 0 .132.048.132.144v.564zm6.53.048c0 .04-.013.076-.037.108a.112.112 0 01-.084.06 3.39 3.39 0 01-.456.024l-.624.024c-.216.008-.436.012-.66.012h-.6c-.848 0-1.488-.172-1.92-.516-.424-.344-.636-.916-.636-1.716v-4.62c0-.8.212-1.372.636-1.716.432-.344 1.072-.516 1.92-.516.176 0 .372.004.588.012.224 0 .444.004.66.012.216 0 .42.008.612.024.192.008.352.016.48.024.04.008.068.028.084.06a.176.176 0 01.036.108v.6c0 .096-.044.144-.132.144h-2.316c-.32 0-.576.024-.768.072a.86.86 0 00-.444.216.757.757 0 00-.216.384c-.032.16-.048.352-.048.576V49.9h3.684a.23.23 0 01.168.072.23.23 0 01.072.168v.456a.23.23 0 01-.072.168.23.23 0 01-.168.072h-3.684v2.016c0 .232.016.428.048.588a.83.83 0 00.216.384c.104.096.252.168.444.216.192.04.448.06.768.06h2.316c.088 0 .132.048.132.144v.612zm8.289-.012c0 .104-.052.156-.156.156h-.768c-.072 0-.132-.004-.18-.012-.04-.016-.084-.064-.132-.144l-2.148-3.576H96.508l-.744-.036v3.528c0 .064-.02.12-.06.168a.193.193 0 01-.156.072H94.9a.193.193 0 01-.156-.072.254.254 0 01-.06-.168v-8.4c0-.088.02-.148.06-.18.04-.04.116-.068.228-.084.128-.016.276-.028.444-.036a11.467 11.467 0 011.116-.048c.192-.008.376-.012.552-.012.472 0 .912.044 1.32.132.416.088.772.232 1.068.432.304.2.54.464.708.792.176.328.264.736.264 1.224v.084c0 .336-.048.64-.144.912a2.1 2.1 0 01-.384.696c-.168.2-.368.368-.6.504a3.01 3.01 0 01-.756.312l2.184 3.648c.024.04.036.076.036.108zm-1.416-6.264c0-.6-.192-1.016-.576-1.248-.384-.232-.952-.348-1.704-.348h-.324c-.12 0-.244.004-.372.012-.12 0-.236.004-.348.012-.112 0-.204.004-.276.012v3.288l.756.024h.564c.368 0 .692-.024.972-.072.288-.056.528-.148.72-.276.192-.128.336-.296.432-.504.104-.216.156-.488.156-.816v-.084zm12.36-.432c0 .472-.12.884-.36 1.236-.24.344-.64.704-1.2 1.08l-1.152.78a6.69 6.69 0 00-.828.636 2.863 2.863 0 00-.516.588c-.12.2-.208.408-.264.624a3.161 3.161 0 00-.072.708v.252h4.044c.064 0 .12.02.168.06.048.032.072.08.072.144v.528a.193.193 0 01-.072.156.254.254 0 01-.168.06h-4.764a.254.254 0 01-.168-.06.23.23 0 01-.072-.168V53.8c0-.624.14-1.196.42-1.716.288-.52.76-1 1.416-1.44l1.212-.816a9.79 9.79 0 00.612-.444c.16-.128.284-.252.372-.372.096-.128.16-.256.192-.384.04-.136.06-.296.06-.48 0-.432-.14-.744-.42-.936-.272-.2-.732-.3-1.38-.3-.312 0-.66.02-1.044.06-.384.032-.744.072-1.08.12h-.048c-.128 0-.192-.072-.192-.216v-.42c0-.064.02-.112.06-.144a.533.533 0 01.168-.072c.304-.08.644-.14 1.02-.18.384-.04.756-.06 1.116-.06.976 0 1.696.172 2.16.516.472.344.708.888.708 1.632zm8.13 3.204c0 .664-.068 1.232-.204 1.704-.136.472-.332.86-.588 1.164a2.369 2.369 0 01-.924.66c-.36.136-.768.204-1.224.204-.456 0-.868-.068-1.236-.204a2.369 2.369 0 01-.924-.66c-.256-.304-.452-.692-.588-1.164-.136-.472-.204-1.04-.204-1.704v-1.62c0-.664.068-1.232.204-1.704.136-.472.332-.856.588-1.152.256-.304.564-.524.924-.66.368-.144.78-.216 1.236-.216.456 0 .864.072 1.224.216.36.136.668.356.924.66.256.296.452.68.588 1.152.136.472.204 1.04.204 1.704v1.62zm-1.092-1.62a5.37 5.37 0 00-.132-1.284c-.088-.36-.212-.652-.372-.876a1.443 1.443 0 00-.588-.492 1.774 1.774 0 00-.756-.156c-.28 0-.536.052-.768.156a1.464 1.464 0 00-.576.492c-.16.224-.284.516-.372.876a5.37 5.37 0 00-.132 1.284v1.62c0 .504.044.936.132 1.296.088.352.212.64.372.864.16.224.352.388.576.492.232.104.488.156.768.156s.532-.052.756-.156c.232-.104.428-.268.588-.492.16-.224.284-.512.372-.864.088-.36.132-.792.132-1.296v-1.62zm8.694-1.584c0 .472-.12.884-.36 1.236-.24.344-.64.704-1.2 1.08l-1.152.78a6.69 6.69 0 00-.828.636 2.863 2.863 0 00-.516.588c-.12.2-.208.408-.264.624a3.161 3.161 0 00-.072.708v.252h4.044c.064 0 .12.02.168.06.048.032.072.08.072.144v.528a.193.193 0 01-.072.156.254.254 0 01-.168.06h-4.764a.254.254 0 01-.168-.06.23.23 0 01-.072-.168V53.8c0-.624.14-1.196.42-1.716.288-.52.76-1 1.416-1.44l1.212-.816a9.79 9.79 0 00.612-.444c.16-.128.284-.252.372-.372.096-.128.16-.256.192-.384.04-.136.06-.296.06-.48 0-.432-.14-.744-.42-.936-.272-.2-.732-.3-1.38-.3-.312 0-.66.02-1.044.06-.384.032-.744.072-1.08.12h-.048c-.128 0-.192-.072-.192-.216v-.42c0-.064.02-.112.06-.144a.533.533 0 01.168-.072c.304-.08.644-.14 1.02-.18.384-.04.756-.06 1.116-.06.976 0 1.696.172 2.16.516.472.344.708.888.708 1.632zm8.129 3.204c0 .664-.068 1.232-.204 1.704-.136.472-.332.86-.588 1.164a2.369 2.369 0 01-.924.66c-.36.136-.768.204-1.224.204-.456 0-.868-.068-1.236-.204a2.369 2.369 0 01-.924-.66c-.256-.304-.452-.692-.588-1.164-.136-.472-.204-1.04-.204-1.704v-1.62c0-.664.068-1.232.204-1.704.136-.472.332-.856.588-1.152.256-.304.564-.524.924-.66.368-.144.78-.216 1.236-.216.456 0 .864.072 1.224.216.36.136.668.356.924.66.256.296.452.68.588 1.152.136.472.204 1.04.204 1.704v1.62zm-1.092-1.62a5.37 5.37 0 00-.132-1.284c-.088-.36-.212-.652-.372-.876a1.443 1.443 0 00-.588-.492 1.774 1.774 0 00-.756-.156c-.28 0-.536.052-.768.156a1.464 1.464 0 00-.576.492c-.16.224-.284.516-.372.876a5.37 5.37 0 00-.132 1.284v1.62c0 .504.044.936.132 1.296.088.352.212.64.372.864.16.224.352.388.576.492.232.104.488.156.768.156s.532-.052.756-.156c.232-.104.428-.268.588-.492.16-.224.284-.512.372-.864.088-.36.132-.792.132-1.296v-1.62z"></path> <path fill="#fff" d="M154.976.608a3.646 3.646 0 00-4.206 1.928l-10.384 20.34a1.66 1.66 0 01-1.499.924c-.631 0-1.209-.37-1.498-.924L126.978 2.562a3.691 3.691 0 00-4.206-1.928 3.755 3.755 0 00-2.866 3.698v21.396c0 1.004.815 1.823 1.814 1.823.999 0 1.814-.819 1.814-1.822V3.962c0-.079-.026-.184.105-.237.132-.053.158.079.184.158l10.385 20.393a5.303 5.303 0 007.124 2.324c.999-.502 1.788-1.32 2.314-2.324L154.004 3.91c.026-.08.079-.185.184-.159.105.027.105.159.105.238v21.74c0 1.003.815 1.822 1.814 1.822.999 0 1.814-.819 1.814-1.822V4.306c-.079-1.744-1.262-3.276-2.945-3.698zM30.418.74c-.868-.476-1.946-.132-2.419.74v.026l-11.357 22.03c-.237.423-.552.687-.867.687-.316 0-.658-.264-.868-.687L3.55 1.506C3.103.634 2.025.264 1.157.713c-.026 0-.026.027-.052.027-.894.475-1.21 1.585-.762 2.483l11.33 21.713c.842 1.638 2.393 2.615 4.101 2.615 1.71 0 3.234-.977 4.102-2.615L31.259 3.223c.368-.925.026-2.008-.841-2.483zM44.14 0c-7.519 0-13.644 6.287-13.644 14s6.125 14 13.644 14a13.604 13.604 0 0010.963-5.653 1.85 1.85 0 00-.368-2.562 1.813 1.813 0 00-2.498.343s0 .027-.026.027c-1.945 2.641-4.863 4.305-8.07 4.305-4.943 0-9.07-3.83-9.912-8.637h21.768a1.84 1.84 0 001.788-1.85C57.785 6.288 51.659 0 44.14 0zm-9.91 12.494c.84-4.807 4.968-8.98 9.91-8.98 4.943 0 9.096 4.173 9.938 8.98H34.229zM73.768 0C66.25 0 60.124 6.287 60.124 14s6.125 14 13.644 14a13.604 13.604 0 0010.963-5.653 1.85 1.85 0 00-.368-2.562 1.813 1.813 0 00-2.498.343s0 .027-.026.027c-1.945 2.641-4.863 4.305-8.07 4.305-4.943 0-9.07-3.83-9.912-8.637h21.794a1.84 1.84 0 001.788-1.85C87.439 6.288 81.313 0 73.769 0zm-9.91 12.494c.84-4.807 4.968-8.98 9.91-8.98 4.943 0 9.097 4.173 9.938 8.98H63.857zM105.841 3.09C105 1.507 103.528.556 101.872.556c-1.657 0-3.129.95-3.97 2.536l-11.33 21.766a1.823 1.823 0 00.735 2.456c.263.132.552.212.842.212.683 0 1.288-.37 1.603-.978l3.181-6.128H106c.999 0 1.788-.819 1.788-1.823s-.868-1.743-1.867-1.743l-11.173.026 6.283-12.573c.211-.37.474-.608.789-.608.289 0 .578.238.789.608l11.357 22.215c.447.871 1.525 1.241 2.392.792.027 0 .026-.026.053-.026.867-.476 1.13-1.744.683-2.615L105.841 3.09z"></path> </svg> 