<?xml version="1.0" encoding="UTF-8"?> <svg xmlns="http://www.w3.org/2000/svg" width="161" height="116" fill="none" viewBox="0 0 161 116"> <g filter="url(#filter0_d)"> <rect width="135" height="91" x="15.5" y="14.5" stroke="#4BC68B" rx="7.5"></rect> </g> <g filter="url(#filter1_d)"> <rect width="136" height="91" x="10" y="10" fill="#4BC68B" rx="8"></rect> </g> <path fill="#fff" d="M64.642 64.61c0 .139-.043.243-.13.312A.596.596 0 0164.2 65h-2.626a.394.394 0 01-.312-.156.641.641 0 01-.104-.364V52.39c0-.173-.026-.26-.078-.26-.017 0-.06.052-.13.156l-2.496 4.966a.98.98 0 01-.364.338c-.139.07-.295.104-.468.104h-2.626c-.173 0-.338-.035-.494-.104a1.05 1.05 0 01-.338-.338l-2.522-4.966c-.07-.104-.113-.156-.13-.156-.052 0-.078.087-.078.26v12.09c0 .139-.043.26-.13.364a.326.326 0 01-.286.156h-2.626a.596.596 0 01-.312-.078c-.087-.07-.13-.173-.13-.312V46.722c0-.295.095-.537.286-.728.208-.208.46-.312.754-.312h2.132c.208 0 .399.06.572.182a.97.97 0 01.39.442l3.926 7.956c.07.121.121.217.156.286.035.052.078.078.13.078.052 0 .095-.026.13-.078a6.33 6.33 0 01.156-.286l3.926-7.956a.97.97 0 01.39-.442.976.976 0 01.572-.182h2.132c.295 0 .537.104.728.312.208.19.312.433.312.728V64.61zm15.21-16.692c.138-.017.277-.026.416-.026h.494c1.005 0 1.959.095 2.86.286.901.19 1.69.52 2.366.988a4.908 4.908 0 011.638 1.872c.416.763.624 1.716.624 2.86v.234c0 1.144-.208 2.106-.624 2.886a5.12 5.12 0 01-1.638 1.898c-.676.468-1.465.806-2.366 1.014-.901.19-1.855.286-2.86.286h-.91v4.264c0 .139-.052.26-.156.364a.42.42 0 01-.338.156h-2.6a.499.499 0 01-.364-.156.499.499 0 01-.156-.364v-4.264h-.91c-1.005 0-1.959-.095-2.86-.286-.901-.208-1.699-.546-2.392-1.014a5.452 5.452 0 01-1.638-1.898c-.399-.78-.598-1.742-.598-2.886v-.234c0-1.144.2-2.097.598-2.86.416-.78.962-1.404 1.638-1.872.693-.468 1.49-.797 2.392-.988.901-.19 1.855-.286 2.86-.286h.494c.138 0 .277.009.416.026v-1.742a.42.42 0 01.156-.338.499.499 0 01.364-.156h2.574c.139 0 .26.052.364.156a.42.42 0 01.156.338v1.742zm.91 2.964h-.416c-.156 0-.32.009-.494.026v6.344h.91c1.404 0 2.4-.26 2.99-.78.607-.52.91-1.3.91-2.34v-.234c0-1.092-.33-1.863-.988-2.314-.642-.468-1.612-.702-2.912-.702zm-4.524 6.37v-6.344a5.8 5.8 0 00-.52-.026h-.39c-1.3 0-2.28.234-2.938.702-.641.45-.962 1.222-.962 2.314v.234c0 1.04.294 1.82.884 2.34.606.52 1.612.78 3.016.78h.91zm29.818 3.276c0 .503-.035.919-.104 1.248h2.418c.139 0 .26.052.364.156a.499.499 0 01.156.364v5.772c0 .139-.052.26-.156.364a.498.498 0 01-.364.156h-2.574a.498.498 0 01-.364-.156.499.499 0 01-.156-.364V65H96.15c-1.681 0-2.886-.355-3.614-1.066-.728-.71-1.092-1.846-1.092-3.406V46.202c0-.139.052-.26.156-.364a.499.499 0 01.364-.156h2.574c.139 0 .26.052.364.156a.499.499 0 01.156.364v14.326c0 .503.078.84.234 1.014.156.173.442.26.858.26h5.2c.416 0 .702-.087.858-.26.156-.173.234-.511.234-1.014V46.202c0-.139.052-.26.156-.364a.498.498 0 01.364-.156h2.574c.139 0 .26.052.364.156a.499.499 0 01.156.364v14.326z"></path> <defs> <filter id="filter0_d" width="156" height="112" x="5" y="4" color-interpolation-filters="sRGB" filterUnits="userSpaceOnUse"> <feFlood flood-opacity="0" result="BackgroundImageFix"></feFlood> <feColorMatrix in="SourceAlpha" values="0 0 0 0 0 0 0 0 0 0 0 0 0 0 0 0 0 0 127 0"></feColorMatrix> <feOffset></feOffset> <feGaussianBlur stdDeviation="5"></feGaussianBlur> <feColorMatrix values="0 0 0 0 0.294118 0 0 0 0 0.776471 0 0 0 0 0.545098 0 0 0 0.6 0"></feColorMatrix> <feBlend in2="BackgroundImageFix" result="effect1_dropShadow"></feBlend> <feBlend in="SourceGraphic" in2="effect1_dropShadow" result="shape"></feBlend> </filter> <filter id="filter1_d" width="156" height="111" x="0" y="0" color-interpolation-filters="sRGB" filterUnits="userSpaceOnUse"> <feFlood flood-opacity="0" result="BackgroundImageFix"></feFlood> <feColorMatrix in="SourceAlpha" values="0 0 0 0 0 0 0 0 0 0 0 0 0 0 0 0 0 0 127 0"></feColorMatrix> <feOffset></feOffset> <feGaussianBlur stdDeviation="5"></feGaussianBlur> <feColorMatrix values="0 0 0 0 0.294118 0 0 0 0 0.776471 0 0 0 0 0.545098 0 0 0 0.6 0"></feColorMatrix> <feBlend in2="BackgroundImageFix" result="effect1_dropShadow"></feBlend> <feBlend in="SourceGraphic" in2="effect1_dropShadow" result="shape"></feBlend> </filter> </defs> </svg> 