<?xml version="1.0" encoding="UTF-8"?> <svg xmlns="http://www.w3.org/2000/svg" width="62" height="24" fill="none" viewBox="0 0 62 24"> <path fill="#54BFE1" d="M17.642 19.634c0 .138-.043.242-.13.311a.596.596 0 01-.312.078h-2.626a.394.394 0 01-.312-.155.641.641 0 01-.104-.364V7.413c0-.174-.026-.26-.078-.26-.017 0-.06.052-.13.156l-2.496 4.965a.98.98 0 01-.364.338c-.139.07-.295.104-.468.104H7.996c-.173 0-.338-.034-.494-.104a1.048 1.048 0 01-.338-.338L4.642 7.31c-.07-.104-.113-.156-.13-.156-.052 0-.078.086-.078.26v12.09c0 .138-.043.26-.13.363a.326.326 0 01-.286.156H1.392a.595.595 0 01-.312-.078c-.087-.069-.13-.173-.13-.311V1.745c0-.295.095-.538.286-.728.208-.208.46-.312.754-.312h2.132c.208 0 .399.06.572.182a.97.97 0 01.39.442L9.01 9.286c.07.12.121.216.156.286.035.052.078.078.13.078.052 0 .095-.026.13-.078a6.27 6.27 0 01.156-.286l3.926-7.956a.97.97 0 01.39-.442.976.976 0 01.572-.182h2.132c.295 0 .537.104.728.312.208.19.312.433.312.728v17.888zm15.21-16.692a3.35 3.35 0 01.416-.026h.494c1.005 0 1.959.095 2.86.286.901.19 1.69.52 2.366.988a4.908 4.908 0 011.638 1.872c.416.762.624 1.716.624 2.86v.234c0 1.143-.208 2.105-.624 2.885a5.12 5.12 0 01-1.638 1.899c-.676.468-1.465.806-2.366 1.014-.901.19-1.855.285-2.86.285h-.91v4.264c0 .14-.052.26-.156.364a.42.42 0 01-.338.156h-2.6a.499.499 0 01-.364-.155.499.499 0 01-.156-.364v-4.265h-.91c-1.005 0-1.959-.095-2.86-.286-.901-.207-1.699-.545-2.392-1.013a5.452 5.452 0 01-1.638-1.899c-.399-.78-.598-1.742-.598-2.885v-.234c0-1.144.2-2.098.598-2.86.416-.78.962-1.404 1.638-1.872.693-.468 1.49-.798 2.392-.988.901-.191 1.855-.286 2.86-.286h.494c.139 0 .277.008.416.026V1.2a.42.42 0 01.156-.338.499.499 0 01.364-.156h2.574c.139 0 .26.052.364.156a.42.42 0 01.156.338v1.742zm.91 2.964h-.416c-.156 0-.32.008-.494.026v6.343h.91c1.404 0 2.4-.26 2.99-.78.606-.52.91-1.3.91-2.34v-.233c0-1.092-.33-1.864-.988-2.314-.642-.468-1.612-.702-2.912-.702zm-4.524 6.37V5.931a5.785 5.785 0 00-.52-.026h-.39c-1.3 0-2.28.234-2.938.702-.642.45-.962 1.222-.962 2.314v.234c0 1.04.294 1.82.884 2.34.607.52 1.612.78 3.016.78h.91zm29.818 3.276c0 .502-.034.918-.104 1.247h2.418c.139 0 .26.053.364.157a.499.499 0 01.156.364v5.771c0 .14-.052.26-.156.364a.499.499 0 01-.364.157h-2.574a.499.499 0 01-.364-.156.499.499 0 01-.156-.364v-3.069H49.15c-1.681 0-2.886-.355-3.614-1.066-.728-.71-1.092-1.846-1.092-3.405V1.226c0-.14.052-.26.156-.364a.499.499 0 01.364-.156h2.574c.139 0 .26.052.364.156a.499.499 0 01.156.364v14.326c0 .502.078.84.234 1.014.156.173.442.26.858.26h5.2c.416 0 .702-.087.858-.26.156-.174.234-.512.234-1.014V1.226c0-.14.052-.26.156-.364a.499.499 0 01.364-.156h2.574c.139 0 .26.052.364.156a.499.499 0 01.156.364v14.326z"></path> </svg> 