<?xml version="1.0" encoding="UTF-8"?> <svg xmlns="http://www.w3.org/2000/svg" width="46" height="46" fill="none" viewBox="0 0 46 46"> <path fill="url(#paint0_linear)" fill-rule="evenodd" d="M23 46a5.037 5.037 0 01-5.031-5.031v-1.465a17.082 17.082 0 01-3.081-1.276l-1.036 1.036a4.998 4.998 0 01-3.558 1.473 4.999 4.999 0 01-3.558-1.473 5.038 5.038 0 010-7.116l1.036-1.036a17.094 17.094 0 01-1.276-3.08H5.03a4.998 4.998 0 01-3.557-1.475A4.998 4.998 0 010 23a5.037 5.037 0 015.031-5.031h1.465a17.084 17.084 0 011.276-3.081l-1.036-1.036a4.998 4.998 0 01-1.473-3.558 5 5 0 011.473-3.558 5.038 5.038 0 017.116 0l1.036 1.036a17.09 17.09 0 013.08-1.276V5.03c0-1.343.524-2.606 1.475-3.557A4.999 4.999 0 0123 0c.334 0 .671.034 1.002.1a5.047 5.047 0 014.03 4.931v1.465c1.065.323 2.095.75 3.08 1.276l1.036-1.036a4.998 4.998 0 013.558-1.473c1.344 0 2.608.523 3.558 1.473a5.038 5.038 0 010 7.115l-1.037 1.037c.526.985.953 2.015 1.277 3.08h1.465c1.343 0 2.606.524 3.557 1.475A4.998 4.998 0 0146 23a5.037 5.037 0 01-5.031 5.031h-1.465a17.082 17.082 0 01-1.276 3.081l1.036 1.036a4.998 4.998 0 011.473 3.558 5 5 0 01-1.473 3.558 5.02 5.02 0 01-3.558 1.47 5.014 5.014 0 01-3.558-1.47l-1.036-1.036c-.985.526-2.015.953-3.08 1.277v1.464a4.998 4.998 0 01-1.475 3.557 5.011 5.011 0 01-2.552 1.373l-.003.001c-.33.066-.668.1-1.002.1z" clip-rule="evenodd"></path> <defs> <linearGradient id="paint0_linear" x1="23" x2="23" y1="0" y2="50" gradientUnits="userSpaceOnUse"> <stop stop-color="#fff"></stop> <stop offset="1" stop-color="#fff" stop-opacity="0"></stop> </linearGradient> </defs> </svg> 