<?xml version="1.0" encoding="UTF-8"?> <svg xmlns="http://www.w3.org/2000/svg" width="115" height="111" fill="none" viewBox="0 0 115 111"> <path fill="url(#paint0_linear)" d="M76.055 18.36c-7.574-1.063-13.411 4.203-15.383 6.969L62.782 51l24.5 13.5 2 1 2.5.5c8 1 15.679-2.5 16.038-4.03 1.41-6.001 2.3-12.018-1.774-21.06-3.26-7.234-12.332-9.931-16.46-10.376-.944-3.372-4.064-10.845-13.531-12.174z"></path> <path fill="url(#paint1_linear)" d="M94.892 77.719L40.355 101.15c-14.273 5.413-22.957-3.747-25.118-8.814-8.009-16.849 1.755-29.713 7.638-34.04C19.6 37.398 32.824 25.778 42.9 22.532c13.38-4.31 25.044 1.651 30.481 16.943 4.828 13.574 9.552 21.258 16.422 24.961 5.497 2.963 14.292-.444 18.002-2.517-2.977 9.48-9.849 14.484-12.913 15.8z"></path> <defs> <linearGradient id="paint0_linear" x1="92.765" x2="70.394" y1="27.788" y2="45.665" gradientUnits="userSpaceOnUse"> <stop stop-color="#fff"></stop> <stop offset="1" stop-color="#fff" stop-opacity="0"></stop> <stop offset="1" stop-color="#fff" stop-opacity=".46"></stop> </linearGradient> <linearGradient id="paint1_linear" x1="39.566" x2="72.38" y1="20.425" y2="96.803" gradientUnits="userSpaceOnUse"> <stop stop-color="#fff"></stop> <stop offset="1" stop-color="#fff" stop-opacity="0"></stop> </linearGradient> </defs> </svg> 