<?xml version="1.0" encoding="UTF-8"?> <svg xmlns="http://www.w3.org/2000/svg" width="189" height="146" fill="none" viewBox="0 0 189 146"> <path fill="url(#paint0_linear)" d="M188.566 91.933V54.832l-47.482 6.237-35.552-20.22a25.265 25.265 0 00-11.294-2.661c-3.925 0-7.794.911-11.294 2.661l-5.53 3.478L.332 54.461v37.704a7.844 7.844 0 001.527 3.715 8.004 8.004 0 003.179 2.5l78.352 44.59c3.5 1.75 7.37 2.662 11.295 2.662 3.924 0 7.794-.912 11.294-2.662l77.952-44.66a8.004 8.004 0 003.174-2.49 7.848 7.848 0 001.532-3.701l-.071-.186z"></path> <path fill="url(#paint1_linear)" d="M183.959 48.267L105.582 3.215a25.067 25.067 0 00-22.595 0L5.01 48.36c-6.237 3.585-6.237 9.371 0 12.979l78.377 45.051a25.065 25.065 0 0011.298 2.689c3.925 0 7.796-.921 11.297-2.689l77.977-45.145c6.237-3.584 6.237-9.394 0-12.978z"></path> <path fill="url(#paint2_linear)" d="M146.052 50.416l-45.67-26.174a14.623 14.623 0 00-13.153 0L41.82 50.416c-3.624 2.08-3.624 5.469 0 7.549l45.598 26.291a14.62 14.62 0 0013.153 0l45.411-26.221c3.694-2.103 3.694-5.469.071-7.619z" opacity=".4"></path> <path fill="#fff" d="M183.97 59.033l-77.986 45.111a25.085 25.085 0 01-22.598 0L4.999 59.126a8.657 8.657 0 01-2.845-2.2 8.6 8.6 0 01-1.698-3.16c-.589 2.715.918 5.547 4.543 7.608l78.387 45.018a25.095 25.095 0 0022.598 0l77.986-45.089c3.625-2.083 5.132-4.916 4.543-7.608a8.607 8.607 0 01-1.702 3.148 8.667 8.667 0 01-2.841 2.19zM115.53 116.816l-3.323 2.232v-4.439l3.323-2.207v4.414zM123.284 111.663l-3.323 1.847v-3.693l3.323-1.846v3.692zM131.037 107.611l-3.323 2.575v-5.15l3.323-2.603v5.178zM124.391 119.048l-3.323 2.215v-4.43l3.323-2.216v4.431zM132.145 115.717l-3.323 2.223v-4.423l3.323-2.223v4.423zM155.407 92.833l-3.324 1.846v-3.692l3.324-1.846v3.692zM177.56 80.648l-4.431 1.846v-3.692l4.431-1.846v3.692zM138.791 102.802l-3.323 1.846v-3.692l3.323-1.846v3.692z"></path> <defs> <linearGradient id="paint0_linear" x1="94.484" x2="103.9" y1="181.078" y2="21.018" gradientUnits="userSpaceOnUse"> <stop stop-color="#fff"></stop> <stop offset="1" stop-color="#fff" stop-opacity="0"></stop> </linearGradient> <linearGradient id="paint1_linear" x1="94.484" x2="94.484" y1=".527" y2="118.518" gradientUnits="userSpaceOnUse"> <stop stop-color="#fff"></stop> <stop offset="1" stop-color="#fff" stop-opacity="0"></stop> </linearGradient> <linearGradient id="paint2_linear" x1="52.947" x2="148.761" y1="78.064" y2="28.219" gradientUnits="userSpaceOnUse"> <stop stop-color="#fff"></stop> <stop offset="1" stop-color="#fff" stop-opacity="0"></stop> </linearGradient> </defs> </svg> 