<?xml version="1.0" encoding="UTF-8"?> <svg xmlns="http://www.w3.org/2000/svg" width="210" height="72" fill="none" viewBox="0 0 210 72"> <path fill="#B0B7C1" d="M116.876 16.412a92.201 92.201 0 001.716-1.56c.504-.464.924-.888 1.26-1.272.344-.392.604-.756.78-1.092.176-.336.264-.664.264-.984 0-.44-.136-.8-.408-1.08-.272-.28-.692-.42-1.26-.42-.36 0-.696.092-1.008.276-.304.176-.58.392-.828.648l-.564-.564a4.489 4.489 0 011.104-.84c.4-.216.872-.324 1.416-.324.384 0 .728.056 1.032.168.312.104.576.256.792.456.216.192.38.428.492.708.12.28.18.588.18.924 0 .36-.088.724-.264 1.092a5.73 5.73 0 01-.72 1.128c-.312.384-.684.788-1.116 1.212-.432.416-.908.86-1.428 1.332l.708-.048c.248-.016.488-.024.72-.024h2.52V17h-5.388v-.588zm7.507-.996c.256.24.56.452.912.636.36.184.788.276 1.284.276.264 0 .508-.032.732-.096.224-.072.416-.168.576-.288a1.231 1.231 0 00.528-1.02c0-.224-.052-.428-.156-.612a1.226 1.226 0 00-.48-.492 2.715 2.715 0 00-.864-.312 6.52 6.52 0 00-1.284-.108v-.756c.456 0 .84-.036 1.152-.108.32-.072.58-.172.78-.3.2-.128.344-.28.432-.456a1.16 1.16 0 00.144-.564c0-.376-.144-.672-.432-.888-.28-.216-.656-.324-1.128-.324-.36 0-.7.072-1.02.216-.32.144-.608.332-.864.564l-.528-.624c.32-.28.684-.508 1.092-.684.408-.184.86-.276 1.356-.276.36 0 .692.044.996.132.312.088.58.216.804.384.232.16.412.36.54.6.128.24.192.516.192.828 0 .464-.152.844-.456 1.14-.304.296-.696.524-1.176.684v.048c.256.056.496.14.72.252.232.104.436.24.612.408.176.16.312.348.408.564.104.216.156.456.156.72 0 .336-.072.64-.216.912a2.08 2.08 0 01-.6.696c-.248.184-.54.328-.876.432a3.915 3.915 0 01-1.08.144c-.664 0-1.22-.108-1.668-.324a4.162 4.162 0 01-1.092-.756l.504-.648zm18.148-3.959h-2.871V17h-1.055v-6.434h3.926v.891zm6.809 2.314c0 1.051-.266 1.872-.797 2.461-.531.59-1.266.885-2.203.885-.582 0-1.098-.135-1.547-.404a2.687 2.687 0 01-1.037-1.172c-.242-.508-.363-1.098-.363-1.77 0-1.046.261-1.86.785-2.443.523-.586 1.258-.879 2.203-.879.906 0 1.625.299 2.156.897.535.594.803 1.402.803 2.425zm-4.858 0c0 .81.159 1.424.475 1.846.32.418.791.627 1.412.627.613 0 1.08-.209 1.401-.627.32-.422.48-1.037.48-1.846 0-.808-.162-1.416-.486-1.822-.321-.41-.791-.615-1.412-.615-1.247 0-1.87.813-1.87 2.438zm12.247 5.461h-1.02V17h-4.477v2.232h-1.007V16.11h.515c.52-.722.924-1.558 1.213-2.507a10.94 10.94 0 00.457-3.036h3.381v5.543h.938v3.123zm-1.958-3.123V11.4h-1.429c-.059.863-.227 1.73-.504 2.601-.274.867-.609 1.57-1.008 2.11h2.941zm7.19.891l-.205-.914h-.047c-.32.402-.641.676-.961.82-.316.14-.717.211-1.201.211-.633 0-1.129-.166-1.488-.498-.36-.332-.539-.8-.539-1.406 0-1.305 1.029-1.988 3.087-2.05l1.09-.042v-.38c0-.489-.105-.848-.316-1.079-.211-.234-.549-.352-1.014-.352-.34 0-.662.051-.967.153a8.03 8.03 0 00-.849.34l-.322-.791a4.763 4.763 0 011.06-.405 4.591 4.591 0 011.137-.146c.777 0 1.355.172 1.734.516.379.343.569.89.569 1.64V17h-.768zm-2.174-.732c.59 0 1.053-.159 1.389-.475.34-.32.51-.773.51-1.36v-.58l-.95.042c-.738.027-1.277.144-1.617.351-.336.207-.504.533-.504.979 0 .335.102.593.305.773.207.18.496.27.867.27zm-37.476 11.921c0 .415-.118.73-.352.95-.234.215-.568.361-1.002.44v.052c.543.074.938.236 1.184.486.25.246.375.578.375.996 0 .61-.225 1.077-.674 1.4-.446.325-1.088.487-1.928.487h-2.894v-6.434h2.882c1.606 0 2.409.541 2.409 1.623zm-.85 2.866c0-.36-.141-.612-.422-.756-.281-.145-.693-.217-1.236-.217h-1.729v2.068h1.752c1.09 0 1.635-.365 1.635-1.095zm-.182-2.772c0-.3-.117-.515-.351-.644-.231-.13-.58-.194-1.049-.194h-1.805v1.764h1.612c.574 0 .982-.07 1.224-.211.246-.145.369-.383.369-.715zm15.44 1.488c0 1.051-.266 1.872-.797 2.461-.531.59-1.266.885-2.203.885-.582 0-1.098-.135-1.547-.404a2.687 2.687 0 01-1.037-1.172c-.242-.508-.364-1.098-.364-1.77 0-1.046.262-1.86.786-2.443.523-.586 1.257-.879 2.203-.879.906 0 1.625.299 2.156.897.535.593.803 1.402.803 2.425zm-4.858 0c0 .81.159 1.424.475 1.846.32.418.791.627 1.412.627.613 0 1.08-.209 1.4-.627.321-.422.481-1.037.481-1.846 0-.808-.162-1.416-.486-1.822-.321-.41-.791-.615-1.413-.615-1.246 0-1.869.813-1.869 2.438zm6.2-.632c0-1.434.214-2.537.644-3.31.434-.778 1.113-1.268 2.039-1.472.871-.175 1.844-.355 2.918-.539l.182.926-.698.111c-.906.149-1.634.28-2.185.393-.563.125-.986.412-1.272.861-.281.446-.441 1.094-.48 1.946h.076c.227-.317.527-.569.903-.756a2.637 2.637 0 011.207-.287c.789 0 1.406.254 1.851.761.445.508.668 1.22.668 2.133 0 1.02-.26 1.81-.779 2.373-.52.559-1.24.838-2.162.838-.914 0-1.629-.35-2.145-1.049-.512-.699-.767-1.675-.767-2.93zm3 3.105c1.16 0 1.74-.744 1.74-2.232 0-1.414-.526-2.121-1.576-2.121-.286 0-.563.058-.832.175a2.835 2.835 0 00-.727.463 2.652 2.652 0 00-.527.633c0 2.055.64 3.082 1.922 3.082zm9.427.756h-1.072v-5.555h-1.893c-.109 1.407-.257 2.512-.445 3.317-.183.8-.426 1.388-.726 1.763a1.4 1.4 0 01-1.143.557c-.254 0-.439-.027-.557-.082v-.791a.945.945 0 00.328.047c.43 0 .772-.453 1.026-1.36.258-.906.459-2.35.603-4.33h3.879V33zm6.012 0l-.205-.914h-.047c-.32.402-.641.676-.961.82-.316.14-.717.211-1.201.211-.633 0-1.129-.166-1.488-.498-.36-.332-.539-.8-.539-1.406 0-1.305 1.029-1.988 3.087-2.05l1.09-.042v-.38c0-.489-.105-.848-.316-1.079-.211-.234-.549-.351-1.014-.351-.34 0-.662.05-.967.152a8.03 8.03 0 00-.849.34l-.322-.791a4.763 4.763 0 011.06-.405 4.591 4.591 0 011.137-.146c.777 0 1.355.172 1.734.516.379.343.569.89.569 1.64V33h-.768zm-2.174-.732c.59 0 1.053-.159 1.389-.475.34-.32.51-.773.51-1.36v-.58l-.95.041c-.738.028-1.277.145-1.617.352-.336.207-.504.533-.504.979 0 .335.102.593.305.773.207.18.496.27.867.27zm7.518.85c-.926 0-1.647-.284-2.162-.85-.516-.57-.774-1.387-.774-2.45 0-1.078.26-1.908.78-2.49.523-.586 1.267-.879 2.232-.879.312 0 .621.033.926.1.308.062.562.144.761.246l-.322.879c-.543-.203-1.006-.305-1.389-.305-.648 0-1.126.205-1.435.615-.309.407-.463 1.014-.463 1.823 0 .777.154 1.373.463 1.787.309.41.766.615 1.371.615.566 0 1.123-.125 1.67-.375v.938c-.445.23-.998.345-1.658.345zm7.629-5.661h-2.104V33h-1.043v-5.543h-2.074v-.89h5.221v.89zm2.273-.89v3.925l-.047 1.137-.023.328 3.445-5.39h1.295V33h-.984v-3.791l.017-.814.03-.774L172.057 33h-1.307v-6.434h.996zm14.042 5.581h1.956v-6.18h-1.956v-.84h4.92v.84h-1.956v6.18h1.956V33h-4.92v-.852zm9.152-6.18h-2.592v-.84h6.192v.84h-2.592V33h-1.008v-7.032z"></path> <path fill="#fff" fill-rule="evenodd" d="M78.17 5.936h-2.645a6.695 6.695 0 00-3.61 1.378 5.82 5.82 0 00-.952 1.019 4.948 4.948 0 00-.938 2.575v24.239h5.766v-9.516h3.176v-4.903h-3.176V10.536h2.63v6.266h5.71v-5.618a5.372 5.372 0 00-.994-2.763 5.497 5.497 0 00-2.309-1.851L80.66 6.5a6.251 6.251 0 00-.951-.33h-.084a7.53 7.53 0 00-1.147-.18h-.252l-.056-.055zM40.484 35.147V11.073c.062-.714.267-1.41.603-2.045.336-.636.797-1.2 1.356-1.66a6.695 6.695 0 013.61-1.377h2.898c.386.03.77.09 1.147.18h.084A5.879 5.879 0 0153.206 8a5.725 5.725 0 011.398 3.211v5.605h-5.71v-6.459H46.25v24.79h-5.766zM80.507 50.71H57.473v16.636h-.126c-.497.198-.908.56-1.163 1.024-.255.463-.338 1-.236 1.517.103.518.385.984.798 1.319a2.332 2.332 0 002.936 0c.414-.335.696-.801.799-1.319a2.241 2.241 0 00-.236-1.517 2.297 2.297 0 00-1.163-1.024h-.126v-15.15h23.048V35.148h2.071v-5.88h-5.71v5.88h2.156l-.014 15.563zm7.29 5.398H62.958v11.238h-.126c-.496.198-.907.56-1.162 1.024-.255.463-.339 1-.236 1.517.102.518.384.984.798 1.319a2.332 2.332 0 002.936 0c.414-.335.696-.801.798-1.319a2.241 2.241 0 00-.236-1.517 2.297 2.297 0 00-1.162-1.024h-.126v-9.778h24.853v-12.23h2.35v-34.98h2.645v24.789H100V11.184a5.725 5.725 0 00-1.398-3.212 5.878 5.878 0 00-3.024-1.83h-.084a7.544 7.544 0 00-1.147-.178H91.45a6.681 6.681 0 00-3.61 1.377 5.444 5.444 0 00-1.357 1.66 5.36 5.36 0 00-.603 2.045v34.237h1.903l.014 10.825zM28.156 45.173h14.357v22.173h.126c.497.198.908.56 1.163 1.024.255.463.339 1 .236 1.517a2.265 2.265 0 01-.798 1.319 2.332 2.332 0 01-1.468.519 2.332 2.332 0 01-1.468-.519 2.266 2.266 0 01-.799-1.319 2.241 2.241 0 01.236-1.517 2.297 2.297 0 011.163-1.024h.126V46.688H26.672V35.147h-2.239V11.073a5.7 5.7 0 011.934-3.688 5.877 5.877 0 013.958-1.435h2.379a5.904 5.904 0 013.998 1.483 5.724 5.724 0 011.907 3.764v23.95h-5.696v-9.516h-2.63v9.516h-2.127v10.026zm33.305 0h-9.474v22.173h-.126c-.496.198-.907.56-1.162 1.024-.256.463-.339 1-.236 1.517.102.518.384.984.798 1.319a2.332 2.332 0 002.936 0c.413-.335.695-.801.798-1.319a2.241 2.241 0 00-.236-1.517 2.297 2.297 0 00-1.163-1.024h-.125V46.688h9.473V35.147h2.197V10.426h4.198v-4.49H55.248v4.49h4.198v24.721h1.973l.042 10.026zm-10.663-5.22v-4.806h-1.904v-5.88h5.71v5.88h-2.323v6.308h-4.282v26.167h.126c.496.198.907.56 1.162 1.023.256.464.339 1 .236 1.518a2.266 2.266 0 01-.798 1.319 2.332 2.332 0 01-1.468.518 2.332 2.332 0 01-1.468-.519 2.266 2.266 0 01-.798-1.318 2.242 2.242 0 01.236-1.518 2.297 2.297 0 011.163-1.023h.126V39.953h4.282zM18.85 52.142h16.694v15.15h-.126c-.496.197-.907.56-1.162 1.023-.255.463-.339 1-.236 1.517.102.518.384.984.798 1.319.413.335.932.518 1.468.518.536 0 1.055-.183 1.468-.518.414-.335.696-.801.798-1.319a2.24 2.24 0 00-.236-1.517 2.297 2.297 0 00-1.162-1.024h-.126V50.668H20.333V35.106h2.24V5.22a5.725 5.725 0 00-1.916-3.746A5.904 5.904 0 0016.667 0h-2.365a6.44 6.44 0 00-3.229.991 6.301 6.301 0 00-2.257 2.48h-3.05a5.886 5.886 0 00-3.936 1.55A5.707 5.707 0 000 8.788v26.36h5.751V7.906h2.66v27.241h5.75V4.49h2.8v30.657h1.945l-.056 16.995zM30.199 20.7h2.63V10.357H30.2V20.7z" clip-rule="evenodd"></path> </svg> 