<?xml version="1.0" encoding="UTF-8"?> <svg xmlns="http://www.w3.org/2000/svg" width="58" height="46" fill="none" viewBox="0 0 58 46"> <path fill="url(#paint0_linear)" fill-rule="evenodd" d="M44.359 14.727v-9.26a.788.788 0 00-.225-.551.761.761 0 00-.543-.23 23.879 23.879 0 01-12.44-3.505L29.395.11a.758.758 0 00-.79 0l-1.755 1.07a23.879 23.879 0 01-12.44 3.506.761.761 0 00-.543.229.788.788 0 00-.225.552v9.259c.007 3.549.83 7.047 2.403 10.214a22.643 22.643 0 006.658 8.026l5.844 4.381a.76.76 0 00.911 0l5.84-4.381a22.642 22.642 0 006.658-8.026 23.059 23.059 0 002.403-10.214zM7.5 46h10.162v-4.824a9.33 9.33 0 00-1.311-4.804 9.117 9.117 0 00-3.58-3.405L9.42 28.989a2.668 2.668 0 00-.908-.7 2.625 2.625 0 00-2.225-.003c-.35.163-.66.4-.91.697v-7.5c0-.725-.284-1.42-.788-1.933a2.665 2.665 0 00-1.9-.801 2.665 2.665 0 00-2.012.92l-.176.045v.18c-.323.461-.5 1.016-.5 1.589V31.8c0 1.318.364 2.609 1.05 3.726L7.5 46zm45.912-26.45a2.665 2.665 0 011.9-.801c.713 0 1.397.288 1.9.8.505.513.788 1.209.788 1.934V31.8a7.118 7.118 0 01-1.047 3.726L50 46h-9.662v-4.824a9.331 9.331 0 011.31-4.804 9.118 9.118 0 013.58-3.405l3.353-3.98c.25-.297.56-.536.908-.7a2.625 2.625 0 012.226-.001c.349.163.66.4.91.697v-7.5c0-.725.283-1.42.787-1.933z" clip-rule="evenodd"></path> <defs> <linearGradient id="paint0_linear" x1="29" x2="29" y1="-5" y2="64" gradientUnits="userSpaceOnUse"> <stop stop-color="#fff"></stop> <stop offset="1" stop-color="#fff" stop-opacity="0"></stop> </linearGradient> </defs> </svg> 