<?xml version="1.0" encoding="UTF-8"?> <svg xmlns="http://www.w3.org/2000/svg" width="46" height="34" fill="none" viewBox="0 0 46 34"> <path fill="url(#paint0_linear)" fill-rule="evenodd" d="M.627 8.536c2.721 2.334 5.805 4.98 11.771 4.98 5.966 0 9.05-2.646 11.772-4.98 2.573-2.208 4.796-4.114 9.431-4.114 4.636 0 6.859 1.906 9.432 4.114a1.796 1.796 0 102.34-2.728C42.652 3.473 39.567.828 33.602.828c-5.966 0-9.05 2.646-11.772 4.98-2.574 2.207-4.796 4.113-9.432 4.113-4.635 0-6.858-1.906-9.431-4.113a1.797 1.797 0 10-2.34 2.728zm0 9.828c2.722 2.334 5.806 4.98 11.771 4.98 5.966 0 9.05-2.646 11.771-4.98 2.574-2.207 4.797-4.114 9.433-4.114 4.635 0 6.858 1.907 9.431 4.114a1.797 1.797 0 002.34-2.728c-2.721-2.334-5.806-4.98-11.771-4.98-5.966 0-9.05 2.646-11.772 4.98-2.574 2.207-4.796 4.114-9.432 4.114-4.635 0-6.858-1.907-9.431-4.114a1.797 1.797 0 00-2.34 2.728zm32.974 2.12c5.966 0 9.05 2.646 11.772 4.98a1.797 1.797 0 01-2.34 2.728c-2.573-2.207-4.796-4.114-9.432-4.114-4.635 0-6.858 1.907-9.431 4.114-2.722 2.334-5.806 4.98-11.772 4.98s-9.05-2.646-11.77-4.98a1.797 1.797 0 012.339-2.728c2.573 2.208 4.796 4.114 9.431 4.114 4.636 0 6.858-1.906 9.432-4.113 2.721-2.335 5.805-4.98 11.771-4.98z" clip-rule="evenodd"></path> <defs> <linearGradient id="paint0_linear" x1="23" x2="23" y1=".828" y2="35.984" gradientUnits="userSpaceOnUse"> <stop stop-color="#fff"></stop> <stop offset="1" stop-color="#fff" stop-opacity="0"></stop> </linearGradient> </defs> </svg> 