<?xml version="1.0" encoding="UTF-8"?> <svg xmlns="http://www.w3.org/2000/svg" width="326" height="415" fill="none" viewBox="0 0 326 415"> <path fill="url(#paint0_linear)" d="M298.374 4.762l-145.453 126.75 13.51 167.904 155.213-66.254-23.27-228.4z"></path> <path fill="url(#paint1_linear)" d="M321.644 233.161L128.372 366.963.283 411.286l166.149-111.871 155.212-66.254z"></path> <path fill="url(#paint2_linear)" d="M133.505 348.752l-30.084 21.292-58.666 20.562 34.652-23.3 54.098-18.554z"></path> <path fill="url(#paint3_linear)" d="M186.607 323.906l91.934-62.802-138.578 58.16-65.124 43.817 111.768-39.175z"></path> <path fill="url(#paint4_linear)" d="M.283 411.288l1.77 3.362 129.161-42.299L325.84 239.262 301.424 7.246l-3.05-2.484 23.27 228.4-193.272 133.803L.283 411.288z"></path> <path fill="url(#paint5_linear)" d="M292.066 0L149.083 124.593 162.37 289.64l152.579-65.138L292.066 0z" opacity=".5"></path> <path fill="url(#paint6_linear)" d="M278.899.625L135.916 125.217l13.287 165.048 152.579-65.138L278.899.625z"></path> <defs> <linearGradient id="paint0_linear" x1="372.653" x2="70.125" y1="-46.249" y2="-14.284" gradientUnits="userSpaceOnUse"> <stop stop-color="#9C7DE2"></stop> <stop offset="1" stop-color="#9C7DE2" stop-opacity="0"></stop> </linearGradient> <linearGradient id="paint1_linear" x1="293.792" x2="9.77" y1="245.479" y2="423.956" gradientUnits="userSpaceOnUse"> <stop stop-color="#fff"></stop> <stop offset="1" stop-color="#fff" stop-opacity="0"></stop> </linearGradient> <linearGradient id="paint2_linear" x1="89.13" x2="89.13" y1="348.752" y2="394.245" gradientUnits="userSpaceOnUse"> <stop stop-color="#fff"></stop> <stop offset="1" stop-color="#fff" stop-opacity="0"></stop> </linearGradient> <linearGradient id="paint3_linear" x1="176.69" x2="176.69" y1="261.104" y2="371.949" gradientUnits="userSpaceOnUse"> <stop stop-color="#fff"></stop> <stop offset="1" stop-color="#fff" stop-opacity="0"></stop> </linearGradient> <linearGradient id="paint4_linear" x1="368.503" x2="-56.047" y1="-1.779" y2="474.95" gradientUnits="userSpaceOnUse"> <stop stop-color="#fff"></stop> <stop offset="1" stop-color="#fff" stop-opacity="0"></stop> </linearGradient> <linearGradient id="paint5_linear" x1="181.725" x2="365.317" y1="289.358" y2="237.819" gradientUnits="userSpaceOnUse"> <stop stop-color="#9C7DE2"></stop> <stop offset="1" stop-color="#9C7DE2" stop-opacity="0"></stop> </linearGradient> <linearGradient id="paint6_linear" x1="285.714" x2="52.381" y1="30.35" y2="63.459" gradientUnits="userSpaceOnUse"> <stop stop-color="#9C7DE2"></stop> <stop offset="1" stop-color="#9C7DE2" stop-opacity="0"></stop> </linearGradient> </defs> </svg> 