<?xml version="1.0" encoding="UTF-8"?> <svg xmlns="http://www.w3.org/2000/svg" width="76" height="76" fill="none" viewBox="0 0 76 76"> <g filter="url(#filter0_d)"> <circle cx="38" cy="38" r="28" fill="#54BFE1"></circle> </g> <g clip-path="url(#clip0)"> <path fill="#fff" d="M42.855 28.452a.989.989 0 00-1.411 0 .996.996 0 000 1.397l7.155 7.155H24.988a.983.983 0 00-.988.989c0 .55.438 1.002.988 1.002h23.61l-7.154 7.142a1.013 1.013 0 000 1.411.989.989 0 001.41 0l8.85-8.85a.972.972 0 000-1.396l-8.85-8.85z"></path> </g> <defs> <clipPath id="clip0"> <path fill="#fff" d="M0 0h28v28H0z" transform="translate(24 24)"></path> </clipPath> <filter id="filter0_d" width="76" height="76" x="0" y="0" color-interpolation-filters="sRGB" filterUnits="userSpaceOnUse"> <feFlood flood-opacity="0" result="BackgroundImageFix"></feFlood> <feColorMatrix in="SourceAlpha" values="0 0 0 0 0 0 0 0 0 0 0 0 0 0 0 0 0 0 127 0"></feColorMatrix> <feOffset></feOffset> <feGaussianBlur stdDeviation="5"></feGaussianBlur> <feColorMatrix values="0 0 0 0 0.329412 0 0 0 0 0.74902 0 0 0 0 0.882353 0 0 0 0.6 0"></feColorMatrix> <feBlend in2="BackgroundImageFix" result="effect1_dropShadow"></feBlend> <feBlend in="SourceGraphic" in2="effect1_dropShadow" result="shape"></feBlend> </filter> </defs> </svg> 