<?xml version="1.0" encoding="UTF-8"?> <svg xmlns="http://www.w3.org/2000/svg" width="58" height="46" fill="none" viewBox="0 0 58 46"> <path fill="url(#paint0_linear)" fill-rule="evenodd" d="M6.628 0h44.744c1.524.002 2.76 1.184 2.762 2.643v31.714c-.003 1.459-1.238 2.64-2.762 2.643H6.628c-1.524-.002-2.76-1.184-2.762-2.643V2.643C3.87 1.184 5.104.003 6.628 0zm51.167 40.505a.962.962 0 00-.761-.377H32.867a.973.973 0 00-.967.978v.98h-5.8v-.98a.973.973 0 00-.967-.978H.966a.973.973 0 00-.937 1.215l.6 2.434A2.907 2.907 0 003.443 46h51.114c1.33 0 2.491-.916 2.814-2.224l.6-2.433a.988.988 0 00-.176-.839z" clip-rule="evenodd"></path> <defs> <linearGradient id="paint0_linear" x1="29" x2="29" y1="-5" y2="68" gradientUnits="userSpaceOnUse"> <stop stop-color="#fff"></stop> <stop offset="1" stop-color="#fff" stop-opacity="0"></stop> </linearGradient> </defs> </svg> 