<?xml version="1.0" encoding="UTF-8"?> <svg xmlns="http://www.w3.org/2000/svg" width="189" height="148" fill="none" viewBox="0 0 189 148"> <path fill="url(#paint0_linear)" d="M188.566 93.344v-37.46l-47.482 6.298-35.552-20.416a25.068 25.068 0 00-22.588 0l-5.53 3.512L.332 55.51v38.139a7.962 7.962 0 001.527 3.75 8.017 8.017 0 003.179 2.524l78.352 45.022a25.062 25.062 0 0011.295 2.687c3.924 0 7.794-.92 11.294-2.687l77.952-45.092a8.016 8.016 0 003.174-2.514 7.966 7.966 0 001.532-3.737l-.071-.257z"></path> <path fill="url(#paint1_linear)" d="M183.959 48.548l-78.377-45.52a24.856 24.856 0 00-22.595 0L5.01 48.617c-6.237 3.622-6.237 9.47 0 13.115l78.377 45.52a24.86 24.86 0 0011.298 2.717c3.925 0 7.796-.931 11.297-2.717l77.977-45.591c6.237-3.622 6.237-9.492 0-13.114z"></path> <path fill="#fff" d="M183.97 58.947l-77.986 45.99a24.689 24.689 0 01-11.3 2.741c-3.926 0-7.797-.939-11.298-2.741L4.999 59.019a8.682 8.682 0 01-2.845-2.244A8.828 8.828 0 01.456 53.55c-.589 2.77.918 5.66 4.543 7.76l78.387 45.919a24.686 24.686 0 0011.299 2.741c3.926 0 7.797-.939 11.299-2.741l77.986-45.99c3.625-2.125 5.132-5.014 4.543-7.76a8.837 8.837 0 01-1.698 3.224 8.683 8.683 0 01-2.845 2.244zM115.53 116.616l-3.323 2.216v-4.431l3.323-2.215v4.43zM123.284 112.186l-3.323 2.215v-4.431l3.323-2.215v4.431zM131.037 107.755l-3.323 2.215v-4.43l3.323-2.216v4.431zM124.391 119.939l-3.323 2.216v-4.431l3.323-2.215v4.43zM132.145 116.616l-3.323 2.216v-4.431l3.323-2.215v4.43zM155.407 92.616l-3.324 1.847V90.77l3.324-1.846v3.692zM177.56 80.802l-4.431 2.584v-5.17l4.431-2.584v5.17zM138.791 102.586l-3.323 1.846v-3.692l3.323-1.846v3.692z"></path> <path fill="url(#paint2_linear)" d="M88.934 88.107L36.12 57.395c-2.145-1.258-1.886-3.418.613-4.866l51.612-30a9.378 9.378 0 018.367-.356l52.814 30.712c2.145 1.258 1.885 3.418-.613 4.866l-51.612 30a9.377 9.377 0 01-8.367.356z" opacity=".4"></path> <path fill="url(#paint3_linear)" d="M69.326 120.818L25.49 96.135a4.45 4.45 0 01-1.381-1.548 4.326 4.326 0 01-.515-1.989v-3.166c0-1.363.853-1.987 1.896-1.386l43.837 24.683a4.453 4.453 0 011.382 1.547 4.33 4.33 0 01.515 1.989v3.166c0 1.364-.854 1.988-1.897 1.387z"></path> <defs> <linearGradient id="paint0_linear" x1="94.484" x2="94.484" y1="39.079" y2="157.071" gradientUnits="userSpaceOnUse"> <stop stop-color="#fff"></stop> <stop offset="1" stop-color="#fff" stop-opacity="0"></stop> </linearGradient> <linearGradient id="paint1_linear" x1="94.484" x2="94.484" y1=".31" y2="119.506" gradientUnits="userSpaceOnUse"> <stop stop-color="#fff"></stop> <stop offset="1" stop-color="#fff" stop-opacity="0"></stop> </linearGradient> <linearGradient id="paint2_linear" x1="93.377" x2="134.915" y1="88.924" y2="3.079" gradientUnits="userSpaceOnUse"> <stop stop-color="#fff"></stop> <stop offset="1" stop-color="#fff" stop-opacity="0"></stop> </linearGradient> <linearGradient id="paint3_linear" x1="47.408" x2="47.408" y1="87.817" y2="123.937" gradientUnits="userSpaceOnUse"> <stop stop-color="#fff"></stop> <stop offset="1" stop-color="#fff" stop-opacity="0"></stop> </linearGradient> </defs> </svg> 