<?xml version="1.0" encoding="UTF-8"?> <svg xmlns="http://www.w3.org/2000/svg" width="42" height="46" fill="none" viewBox="0 0 42 46"> <path fill="url(#paint0_linear)" fill-rule="evenodd" d="M8.871 12.129C8.871 5.44 14.312 0 21 0s12.129 5.441 12.129 12.129S27.688 24.258 21 24.258 8.871 18.817 8.871 12.128zm14.824 14.824c4.673 0 9.075 1.857 12.396 5.229 3.304 3.355 5.124 7.783 5.124 12.47 0 .745-.604 1.348-1.348 1.348H2.133a1.348 1.348 0 01-1.348-1.348c0-4.687 1.82-9.115 5.124-12.47 3.32-3.372 7.723-5.229 12.396-5.229h5.39z" clip-rule="evenodd"></path> <defs> <linearGradient id="paint0_linear" x1="21" x2="21" y1="0" y2="50" gradientUnits="userSpaceOnUse"> <stop stop-color="#fff"></stop> <stop offset="1" stop-color="#fff" stop-opacity="0"></stop> </linearGradient> </defs> </svg> 