<?xml version="1.0" encoding="UTF-8"?> <svg xmlns="http://www.w3.org/2000/svg" width="161" height="116" fill="none" viewBox="0 0 161 116"> <g filter="url(#filter0_d)"> <rect width="135" height="91" x="15.5" y="14.5" stroke="#4BC68B" rx="7.5"></rect> </g> <g filter="url(#filter1_d)"> <rect width="136" height="91" x="10" y="10" fill="#4BC68B" rx="8"></rect> </g> <path fill="#fff" d="M61.366 51.714c0 1.144-.208 2.106-.624 2.886a5.12 5.12 0 01-1.638 1.898c-.676.468-1.465.806-2.366 1.014-.901.19-1.855.286-2.86.286-.347 0-.745-.009-1.196-.026-.45-.035-.823-.06-1.118-.078v6.786c0 .139-.052.26-.156.364a.42.42 0 01-.338.156h-2.6a.499.499 0 01-.364-.156.499.499 0 01-.156-.364V46.592c0-.26.07-.442.208-.546.156-.121.364-.2.624-.234a25.357 25.357 0 012.34-.234c.884-.07 1.803-.104 2.756-.104 1.005 0 1.959.095 2.86.286.901.19 1.69.52 2.366.988a4.908 4.908 0 011.638 1.872c.416.763.624 1.716.624 2.86v.234zm-3.588-.234c0-1.092-.33-1.863-.988-2.314-.641-.468-1.612-.702-2.912-.702-.139 0-.32.009-.546.026a8.5 8.5 0 00-.65.026c-.225 0-.442.009-.65.026-.19 0-.347.009-.468.026v6.188c.104 0 .26.009.468.026.225 0 .45.009.676.026.243 0 .468.009.676.026h.494c1.404 0 2.4-.26 2.99-.78.607-.52.91-1.3.91-2.34v-.234zm18.901-3.25a.42.42 0 01-.156.338.551.551 0 01-.364.13h-4.55V64.48c0 .139-.052.26-.156.364a.499.499 0 01-.364.156h-2.574a.499.499 0 01-.364-.156.499.499 0 01-.156-.364V48.698h-4.55a.551.551 0 01-.364-.13.42.42 0 01-.156-.338v-2.054a.42.42 0 01.156-.338.499.499 0 01.364-.156H76.16c.14 0 .26.052.364.156a.42.42 0 01.156.338v2.054zm16.019 3.484c0 1.144-.208 2.106-.624 2.886a5.117 5.117 0 01-1.638 1.898c-.676.468-1.465.806-2.366 1.014-.901.19-1.855.286-2.86.286-.347 0-.745-.009-1.196-.026a63.63 63.63 0 00-1.118-.078v6.786c0 .139-.052.26-.156.364a.42.42 0 01-.338.156h-2.6a.499.499 0 01-.364-.156.499.499 0 01-.156-.364V46.592c0-.26.07-.442.208-.546.156-.121.364-.2.624-.234a25.357 25.357 0 012.34-.234c.884-.07 1.803-.104 2.756-.104 1.005 0 1.959.095 2.86.286.901.19 1.69.52 2.366.988a4.906 4.906 0 011.638 1.872c.416.763.624 1.716.624 2.86v.234zm-3.588-.234c0-1.092-.33-1.863-.988-2.314-.641-.468-1.612-.702-2.912-.702-.139 0-.32.009-.546.026-.208 0-.425.009-.65.026-.225 0-.442.009-.65.026-.19 0-.347.009-.468.026v6.188c.104 0 .26.009.468.026.225 0 .45.009.676.026.243 0 .468.009.676.026h.494c1.404 0 2.4-.26 2.99-.78.607-.52.91-1.3.91-2.34v-.234zm17.965 12.714c0 .19-.052.33-.156.416a1.56 1.56 0 01-.416.182 5.208 5.208 0 01-.546.13c-.242.035-.546.07-.91.104a19.017 19.017 0 01-2.652.182c-.78 0-1.603-.113-2.47-.338a6.283 6.283 0 01-2.392-1.222c-.71-.607-1.308-1.421-1.794-2.444-.468-1.023-.702-2.34-.702-3.952V53.43c0-1.63.234-2.955.702-3.978.486-1.04 1.084-1.855 1.794-2.444a5.99 5.99 0 012.392-1.196 9.821 9.821 0 012.47-.338 18.64 18.64 0 012.652.182c.364.035.668.078.91.13.26.052.442.087.546.104.174.052.312.121.416.208.104.07.156.2.156.39v1.742a.587.587 0 01-.13.39c-.069.104-.199.156-.39.156h-.052a35.054 35.054 0 00-.832-.052 16.14 16.14 0 00-1.014-.078l-1.118-.052a24.114 24.114 0 00-1.092-.026c-.554 0-1.066.087-1.534.26-.45.156-.84.425-1.17.806-.329.364-.589.858-.78 1.482-.19.624-.286 1.395-.286 2.314v3.822c0 .901.096 1.664.286 2.288.191.624.451 1.127.78 1.508.33.381.72.659 1.17.832.468.156.98.234 1.534.234.347 0 .711-.009 1.092-.026l1.118-.052c.364-.017.702-.035 1.014-.052.33-.035.607-.06.832-.078h.052c.191 0 .321.052.39.156.087.104.13.234.13.39v1.742z"></path> <defs> <filter id="filter0_d" width="156" height="112" x="5" y="4" color-interpolation-filters="sRGB" filterUnits="userSpaceOnUse"> <feFlood flood-opacity="0" result="BackgroundImageFix"></feFlood> <feColorMatrix in="SourceAlpha" values="0 0 0 0 0 0 0 0 0 0 0 0 0 0 0 0 0 0 127 0"></feColorMatrix> <feOffset></feOffset> <feGaussianBlur stdDeviation="5"></feGaussianBlur> <feColorMatrix values="0 0 0 0 0.294118 0 0 0 0 0.776471 0 0 0 0 0.545098 0 0 0 0.6 0"></feColorMatrix> <feBlend in2="BackgroundImageFix" result="effect1_dropShadow"></feBlend> <feBlend in="SourceGraphic" in2="effect1_dropShadow" result="shape"></feBlend> </filter> <filter id="filter1_d" width="156" height="111" x="0" y="0" color-interpolation-filters="sRGB" filterUnits="userSpaceOnUse"> <feFlood flood-opacity="0" result="BackgroundImageFix"></feFlood> <feColorMatrix in="SourceAlpha" values="0 0 0 0 0 0 0 0 0 0 0 0 0 0 0 0 0 0 127 0"></feColorMatrix> <feOffset></feOffset> <feGaussianBlur stdDeviation="5"></feGaussianBlur> <feColorMatrix values="0 0 0 0 0.294118 0 0 0 0 0.776471 0 0 0 0 0.545098 0 0 0 0.6 0"></feColorMatrix> <feBlend in2="BackgroundImageFix" result="effect1_dropShadow"></feBlend> <feBlend in="SourceGraphic" in2="effect1_dropShadow" result="shape"></feBlend> </filter> </defs> </svg> 