<?xml version="1.0" encoding="UTF-8"?> <svg xmlns="http://www.w3.org/2000/svg" width="161" height="116" fill="none" viewBox="0 0 161 116"> <g filter="url(#filter0_d)"> <rect width="135" height="91" x="15.5" y="14.5" stroke="#4BC68B" rx="7.5"></rect> </g> <g filter="url(#filter1_d)"> <rect width="136" height="91" x="10" y="10" fill="#4BC68B" rx="8"></rect> </g> <path fill="#fff" d="M37.78 50.64c-.027-.12-.06-.2-.1-.24-.04-.053-.113-.08-.22-.08s-.18.027-.22.08c-.04.04-.073.12-.1.24l-2.9 12.02a.546.546 0 01-.14.24.327.327 0 01-.24.1h-2.12a.404.404 0 01-.26-.08.352.352 0 01-.1-.26v-.04c.013-.013.02-.033.02-.06l3.28-12.54c.12-.467.293-.833.52-1.1.227-.267.467-.467.72-.6.267-.147.533-.24.8-.28.28-.04.527-.06.74-.06.213 0 .453.02.72.06.28.04.547.133.8.28.267.133.513.333.74.6.227.267.4.633.52 1.1l3.28 12.54v.06c.013.013.02.027.02.04a.352.352 0 01-.1.26.404.404 0 01-.26.08h-2.12a.327.327 0 01-.24-.1.546.546 0 01-.14-.24l-2.9-12.02zm14.05 5.88l-3.96 6.06a1.1 1.1 0 01-.28.32c-.107.067-.28.1-.52.1h-1.44c-.107 0-.2-.04-.28-.12a.453.453 0 01-.12-.3V52.14c0-.107.04-.2.12-.28a.36.36 0 01.28-.14h1.84c.106 0 .2.047.28.14.08.08.12.173.12.28v6.04l3.96-6.06c.053-.08.126-.167.22-.26.093-.093.293-.14.6-.14h1.42c.106 0 .2.047.28.14.08.08.12.173.12.28v10.44c0 .107-.04.207-.12.3a.384.384 0 01-.28.12h-1.84c-.107 0-.2-.04-.28-.12a.453.453 0 01-.12-.3v-6.06zm14.316 6.24a.248.248 0 01-.08.18.324.324 0 01-.2.06h-2.44a.532.532 0 01-.32-.12 1.665 1.665 0 01-.26-.28l-3.14-4.56v4.54c0 .107-.04.207-.12.3a.384.384 0 01-.28.12h-1.84c-.107 0-.2-.04-.28-.12a.453.453 0 01-.12-.3V52.12c0-.107.04-.2.12-.28.08-.08.173-.12.28-.12h1.84c.106 0 .2.04.28.12.08.08.12.173.12.28v4.4l3.42-4.56a.457.457 0 01.22-.18.63.63 0 01.24-.06h2.24c.2 0 .3.073.3.22a.32.32 0 01-.08.2l-4.02 4.94 4.06 5.52c.04.067.06.12.06.16zm6.156-5.28c0 .24-.127.36-.38.36h-3.92a.424.424 0 01-.28-.1.322.322 0 01-.12-.26v-1.26c0-.107.04-.193.12-.26.08-.08.174-.12.28-.12h3.92c.254 0 .38.127.38.38v1.26zm1.626 5.28c0-.067.013-.12.04-.16l3.14-5.84c-.827-.32-1.487-.813-1.98-1.48-.48-.667-.72-1.533-.72-2.6v-.18c0-.853.153-1.567.46-2.14.32-.587.74-1.053 1.26-1.4a5.387 5.387 0 011.84-.74 9.76 9.76 0 012.2-.24c.733 0 1.44.027 2.12.08.68.04 1.28.1 1.8.18.2.027.353.087.46.18.12.08.18.22.18.42V62.6c0 .107-.04.2-.12.28a.384.384 0 01-.28.12h-2c-.107 0-.2-.04-.28-.12a.424.424 0 01-.1-.28v-5.42c-.227.013-.513.033-.86.06-.347.013-.653.02-.92.02h-.28l-2.88 5.34c-.053.107-.107.2-.16.28a.27.27 0 01-.24.12h-2.44c-.16 0-.24-.08-.24-.24zm3.24-10.08c0 .88.24 1.487.72 1.82.48.333 1.24.5 2.28.5h.36c.173-.013.347-.02.52-.02.187-.013.36-.02.52-.02.173-.013.3-.02.38-.02v-4.5a2.831 2.831 0 00-.38-.02 5.338 5.338 0 00-.48-.02 6.796 6.796 0 00-.52-.02 4.987 4.987 0 00-.4-.02c-1 0-1.753.167-2.26.5-.493.333-.74.88-.74 1.64v.18zm21.926 10.1c0 .147-.106.22-.32.22h-1.86c-.066 0-.133-.033-.2-.1a.32.32 0 01-.08-.2v-7.04c0-.093-.02-.14-.06-.14l-.08.08-1.58 2.88c-.04.08-.12.147-.24.2a.906.906 0 01-.32.06h-1.84c-.12 0-.24-.02-.36-.06a.603.603 0 01-.24-.2l-1.58-2.88-.08-.08c-.04 0-.06.047-.06.14v7.04c0 .067-.033.133-.1.2-.053.067-.113.1-.18.1h-1.86c-.213 0-.32-.073-.32-.22V52.36c0-.173.074-.32.22-.44a.768.768 0 01.5-.18h1.52c.147 0 .28.04.4.12.12.067.214.153.28.26l2.54 4.64c.067.133.147.2.24.2.067 0 .134-.067.2-.2l2.54-4.64a.753.753 0 01.28-.26c.12-.08.254-.12.4-.12h1.52c.187 0 .354.06.5.18a.55.55 0 01.22.44v10.42zm11.156-.18c0 .107-.04.2-.12.28a.383.383 0 01-.28.12h-1.7c-.107 0-.2-.04-.28-.12a.384.384 0 01-.12-.28v-.32c-.467.28-.933.5-1.4.66a4.71 4.71 0 01-1.42.22c-.413 0-.827-.047-1.24-.14a2.876 2.876 0 01-1.12-.52 2.96 2.96 0 01-.8-1.02c-.2-.427-.3-.98-.3-1.66v-.08c0-.573.087-1.073.26-1.5.187-.427.473-.787.86-1.08.4-.293.907-.513 1.52-.66.627-.147 1.373-.22 2.24-.22h1.26v-.88c0-.653-.147-1.087-.44-1.3-.28-.213-.72-.32-1.32-.32-.64 0-1.26.02-1.86.06-.6.027-1.067.06-1.4.1h-.1a.5.5 0 01-.26-.06c-.067-.04-.1-.133-.1-.28v-1.28c0-.227.127-.367.38-.42.4-.08.88-.153 1.44-.22.573-.067 1.207-.1 1.9-.1 1.427 0 2.513.313 3.26.94.76.627 1.14 1.587 1.14 2.88v7.2zm-2.64-4.56h-1.26c-.453 0-.827.04-1.12.12-.28.067-.507.173-.68.32a1.08 1.08 0 00-.34.52c-.053.213-.08.46-.08.74v.08c0 .493.113.827.34 1 .227.16.593.24 1.1.24.36 0 .713-.053 1.06-.16.36-.107.687-.24.98-.4v-2.46zm10.337-3.8c-.067-.267-.213-.4-.44-.4s-.373.133-.44.4l-1.96 8.42a.546.546 0 01-.14.24.328.328 0 01-.24.1h-2a.404.404 0 01-.26-.08.35.35 0 01-.1-.26v-.04c.013-.013.02-.033.02-.06l2.34-8.94c.12-.467.293-.833.52-1.1.227-.267.467-.467.72-.6.267-.147.533-.24.8-.28.28-.04.527-.06.74-.06.213 0 .453.02.72.06.28.04.547.133.8.28.267.133.513.333.74.6.227.267.4.633.52 1.1l2.36 8.94v.06c.013.013.02.027.02.04a.35.35 0 01-.1.26.404.404 0 01-.26.08h-2a.328.328 0 01-.24-.1.546.546 0 01-.14-.24l-1.98-8.42z"></path> <defs> <filter id="filter0_d" width="156" height="112" x="5" y="4" color-interpolation-filters="sRGB" filterUnits="userSpaceOnUse"> <feFlood flood-opacity="0" result="BackgroundImageFix"></feFlood> <feColorMatrix in="SourceAlpha" values="0 0 0 0 0 0 0 0 0 0 0 0 0 0 0 0 0 0 127 0"></feColorMatrix> <feOffset></feOffset> <feGaussianBlur stdDeviation="5"></feGaussianBlur> <feColorMatrix values="0 0 0 0 0.294118 0 0 0 0 0.776471 0 0 0 0 0.545098 0 0 0 0.6 0"></feColorMatrix> <feBlend in2="BackgroundImageFix" result="effect1_dropShadow"></feBlend> <feBlend in="SourceGraphic" in2="effect1_dropShadow" result="shape"></feBlend> </filter> <filter id="filter1_d" width="156" height="111" x="0" y="0" color-interpolation-filters="sRGB" filterUnits="userSpaceOnUse"> <feFlood flood-opacity="0" result="BackgroundImageFix"></feFlood> <feColorMatrix in="SourceAlpha" values="0 0 0 0 0 0 0 0 0 0 0 0 0 0 0 0 0 0 127 0"></feColorMatrix> <feOffset></feOffset> <feGaussianBlur stdDeviation="5"></feGaussianBlur> <feColorMatrix values="0 0 0 0 0.294118 0 0 0 0 0.776471 0 0 0 0 0.545098 0 0 0 0.6 0"></feColorMatrix> <feBlend in2="BackgroundImageFix" result="effect1_dropShadow"></feBlend> <feBlend in="SourceGraphic" in2="effect1_dropShadow" result="shape"></feBlend> </filter> </defs> </svg> 