<?xml version="1.0" encoding="UTF-8"?> <svg xmlns="http://www.w3.org/2000/svg" width="46" height="46" fill="none" viewBox="0 0 46 46"> <path fill="url(#paint0_linear)" fill-rule="evenodd" d="M42.167 9.966h3.066c.424 0 .767.344.767.767V41.4a2.3 2.3 0 01-2.3 2.3H2.3A2.3 2.3 0 010 41.4V4.6a2.3 2.3 0 012.3-2.3h13.8c.314 0 .596.19.712.481L17.54 4.6h22.328a2.3 2.3 0 012.3 2.3v3.066zM40.633 6.9a.767.767 0 00-.766-.767H18.152l1.534 3.833h20.947V6.9z" clip-rule="evenodd"></path> <path fill="url(#paint1_linear)" d="M40 5H17.5l2 5H42V8c0-2.4-1.333-3-2-3z"></path> <defs> <linearGradient id="paint0_linear" x1="23" x2="23" y1="2.3" y2="47.3" gradientUnits="userSpaceOnUse"> <stop stop-color="#fff"></stop> <stop offset="1" stop-color="#fff" stop-opacity="0"></stop> </linearGradient> <linearGradient id="paint1_linear" x1="30" x2="30" y1="10" y2=".5" gradientUnits="userSpaceOnUse"> <stop stop-color="#fff"></stop> <stop offset="1" stop-color="#fff" stop-opacity="0"></stop> </linearGradient> </defs> </svg> 