<?xml version="1.0" encoding="UTF-8"?> <svg xmlns="http://www.w3.org/2000/svg" width="118" height="122" fill="none" viewBox="0 0 118 122"> <path fill="url(#paint0_linear)" d="M93.76 58.307C87.662 35.544 64.264 22.035 41.5 28.134c-22.764 6.1-36.273 29.498-30.174 52.261 6.1 22.764 29.498 36.273 52.262 30.173 22.763-6.099 36.272-29.497 30.173-52.26z"></path> <path fill="url(#paint1_linear)" d="M79.584 56.52c13.764 3.688 27.911-4.48 31.599-18.244 3.688-13.763-4.48-27.91-18.244-31.598-13.763-3.688-27.91 4.48-31.598 18.243-3.688 13.764 4.48 27.911 18.243 31.599z"></path> <defs> <linearGradient id="paint0_linear" x1="69.648" x2="-9.113" y1="10.638" y2="89.603" gradientUnits="userSpaceOnUse"> <stop stop-color="#54BFE1"></stop> <stop offset="1" stop-color="#54BFE1" stop-opacity="0"></stop> </linearGradient> <linearGradient id="paint1_linear" x1="111.834" x2="94.297" y1="58.305" y2="-6.809" gradientUnits="userSpaceOnUse"> <stop stop-color="#54BFE1"></stop> <stop offset="1" stop-color="#54BFE1" stop-opacity="0"></stop> </linearGradient> </defs> </svg> 