<?xml version="1.0" encoding="UTF-8"?> <svg xmlns="http://www.w3.org/2000/svg" width="145" height="60" fill="none" viewBox="0 0 145 60"> <path fill="#565656" d="M6.576 48.76c0 .504-.084.928-.252 1.272a2.215 2.215 0 01-.708.828c-.296.208-.648.36-1.056.456a6.38 6.38 0 01-1.344.132c-.192 0-.4-.004-.624-.012a20.81 20.81 0 01-.576-.048v3.372c0 .064-.02.12-.06.168A.193.193 0 011.8 55h-.648a.193.193 0 01-.156-.072.254.254 0 01-.06-.168v-8.364c0-.176.096-.276.288-.3.256-.032.564-.056.924-.072.36-.016.716-.024 1.068-.024.488 0 .936.048 1.344.144.408.088.76.236 1.056.444.304.2.54.468.708.804.168.328.252.732.252 1.212v.156zm-1.092-.156c0-.608-.184-1.04-.552-1.296-.368-.256-.94-.384-1.716-.384-.184 0-.396.004-.636.012-.232.008-.42.02-.564.036v3.516c.072 0 .16.004.264.012l.324.024c.112 0 .22.004.324.012h.288c.824 0 1.408-.14 1.752-.42.344-.28.516-.732.516-1.356v-.156zm9.261 6.24c0 .104-.052.156-.156.156h-.768c-.072 0-.132-.004-.18-.012-.04-.016-.084-.064-.132-.144l-2.148-3.576H10.473l-.744-.036v3.528c0 .064-.02.12-.06.168a.193.193 0 01-.156.072h-.648a.193.193 0 01-.156-.072.254.254 0 01-.06-.168v-8.4c0-.088.02-.148.06-.18.04-.04.116-.068.228-.084.128-.016.276-.028.444-.036a11.467 11.467 0 011.116-.048c.192-.008.376-.012.552-.012.472 0 .912.044 1.32.132.416.088.772.232 1.068.432.304.2.54.464.708.792.176.328.264.736.264 1.224v.084c0 .336-.048.64-.144.912a2.105 2.105 0 01-.384.696c-.168.2-.368.368-.6.504a3.01 3.01 0 01-.756.312l2.184 3.648c.024.04.036.076.036.108zM13.33 48.58c0-.6-.192-1.016-.576-1.248-.384-.232-.952-.348-1.704-.348h-.324c-.12 0-.244.004-.372.012-.12 0-.236.004-.348.012-.112 0-.204.004-.276.012v3.288l.756.024h.564c.368 0 .692-.024.972-.072.288-.056.528-.148.72-.276.192-.128.336-.296.432-.504.104-.216.156-.488.156-.816v-.084zm8.436 6.276c0 .04-.012.076-.036.108a.112.112 0 01-.084.06 3.39 3.39 0 01-.456.024l-.624.024c-.216.008-.436.012-.66.012h-.6c-.848 0-1.488-.172-1.92-.516-.424-.344-.636-.916-.636-1.716v-4.62c0-.8.212-1.372.636-1.716.432-.344 1.072-.516 1.92-.516.176 0 .372.004.588.012.224 0 .444.004.66.012.216 0 .42.008.612.024.192.008.352.016.48.024.04.008.068.028.084.06a.176.176 0 01.036.108v.6c0 .096-.044.144-.132.144h-2.316c-.32 0-.576.024-.768.072a.86.86 0 00-.444.216.757.757 0 00-.216.384c-.032.16-.048.352-.048.576V49.9h3.684a.23.23 0 01.168.072.23.23 0 01.072.168v.456a.23.23 0 01-.072.168.23.23 0 01-.168.072h-3.684v2.016c0 .232.016.428.048.588a.83.83 0 00.216.384c.104.096.252.168.444.216.192.04.448.06.768.06h2.316c.088 0 .132.048.132.144v.612zm9.466-.096a.23.23 0 01-.072.168.23.23 0 01-.168.072h-.588a.23.23 0 01-.168-.072.23.23 0 01-.072-.168v-7.116c0-.024-.004-.036-.012-.036s-.016.008-.024.024l-1.716 3.552a.816.816 0 01-.204.264c-.072.056-.184.084-.336.084h-.552c-.152 0-.264-.028-.336-.084a.816.816 0 01-.204-.264l-1.716-3.552c-.008-.016-.016-.024-.024-.024s-.012.012-.012.036v7.116a.23.23 0 01-.072.168.23.23 0 01-.168.072h-.588a.23.23 0 01-.168-.072.23.23 0 01-.072-.168v-8.328c0-.096.032-.176.096-.24a.345.345 0 01.252-.108h.78c.112 0 .192.016.24.048.056.024.104.076.144.156l1.98 4.116c.04.088.088.132.144.132.056 0 .104-.044.144-.132l1.98-4.116c.04-.08.084-.132.132-.156a.52.52 0 01.252-.048h.78c.096 0 .176.036.24.108a.308.308 0 01.108.24v8.328zm3.669 0c0 .064-.02.12-.06.168a.193.193 0 01-.156.072h-.66a.193.193 0 01-.156-.072.254.254 0 01-.06-.168v-8.448c0-.064.02-.116.06-.156a.193.193 0 01.156-.072h.66c.064 0 .116.024.156.072.04.04.06.092.06.156v8.448zm7.603.096c0 .04-.012.076-.036.108a.112.112 0 01-.084.06 3.39 3.39 0 01-.456.024l-.624.024c-.216.008-.436.012-.66.012h-.6c-.848 0-1.488-.172-1.92-.516-.424-.344-.636-.916-.636-1.716v-4.62c0-.8.212-1.372.636-1.716.432-.344 1.072-.516 1.92-.516.176 0 .372.004.588.012.224 0 .444.004.66.012.216 0 .42.008.612.024.192.008.352.016.48.024.04.008.068.028.084.06a.176.176 0 01.036.108v.6c0 .096-.044.144-.132.144h-2.316c-.32 0-.576.024-.768.072a.86.86 0 00-.444.216.757.757 0 00-.216.384c-.032.16-.048.352-.048.576V49.9h3.684a.23.23 0 01.168.072.23.23 0 01.072.168v.456a.23.23 0 01-.072.168.23.23 0 01-.168.072h-3.684v2.016c0 .232.016.428.048.588a.83.83 0 00.216.384c.104.096.252.168.444.216.192.04.448.06.768.06h2.316c.088 0 .132.048.132.144v.612zm8.29-.012c0 .104-.053.156-.157.156h-.768c-.072 0-.132-.004-.18-.012-.04-.016-.084-.064-.132-.144l-2.148-3.576H46.52l-.744-.036v3.528c0 .064-.02.12-.06.168a.193.193 0 01-.156.072h-.648a.193.193 0 01-.156-.072.254.254 0 01-.06-.168v-8.4c0-.088.02-.148.06-.18.04-.04.116-.068.228-.084.128-.016.276-.028.444-.036a11.467 11.467 0 011.116-.048c.192-.008.376-.012.552-.012.472 0 .912.044 1.32.132.416.088.772.232 1.068.432.304.2.54.464.708.792.176.328.264.736.264 1.224v.084c0 .336-.048.64-.144.912a2.105 2.105 0 01-.384.696c-.168.2-.368.368-.6.504a3.01 3.01 0 01-.756.312l2.184 3.648c.024.04.036.076.036.108zm-1.417-6.264c0-.6-.192-1.016-.576-1.248-.384-.232-.952-.348-1.704-.348h-.324c-.12 0-.244.004-.372.012-.12 0-.236.004-.348.012-.112 0-.204.004-.276.012v3.288l.756.024h.564c.368 0 .692-.024.972-.072.288-.056.528-.148.72-.276.192-.128.336-.296.432-.504.104-.216.156-.488.156-.816v-.084zm12.625.18c0 .504-.084.928-.252 1.272a2.215 2.215 0 01-.708.828c-.296.208-.648.36-1.056.456a6.38 6.38 0 01-1.344.132c-.192 0-.4-.004-.624-.012a20.81 20.81 0 01-.576-.048v3.372c0 .064-.02.12-.06.168a.193.193 0 01-.156.072h-.648a.193.193 0 01-.156-.072.254.254 0 01-.06-.168v-8.364c0-.176.096-.276.288-.3.256-.032.564-.056.924-.072.36-.016.716-.024 1.068-.024.488 0 .936.048 1.344.144.408.088.76.236 1.056.444.304.2.54.468.708.804.168.328.252.732.252 1.212v.156zm-1.092-.156c0-.608-.184-1.04-.552-1.296-.368-.256-.94-.384-1.716-.384-.184 0-.396.004-.636.012-.232.008-.42.02-.564.036v3.516c.072 0 .16.004.264.012l.324.024c.112 0 .22.004.324.012h.288c.824 0 1.408-.14 1.752-.42.344-.28.516-.732.516-1.356v-.156zm8.739 6.204c0 .128-.068.192-.204.192h-.708a.178.178 0 01-.132-.048.425.425 0 01-.072-.132l-.78-2.76h-3.108l-.768 2.76a.337.337 0 01-.084.132.207.207 0 01-.132.048h-.708c-.136 0-.204-.064-.204-.192 0-.04.004-.068.012-.084l2.22-7.812c.048-.184.116-.332.204-.444.096-.12.2-.212.312-.276.112-.072.228-.12.348-.144a1.488 1.488 0 01.708-.012c.12.024.236.072.348.144a.973.973 0 01.3.276c.096.112.168.26.216.444l2.22 7.824a.206.206 0 01.012.084zm-3.216-7.644c-.04-.144-.116-.216-.228-.216-.12 0-.2.072-.24.216l-1.092 3.948h2.652l-1.092-3.948zm11.194 7.68c0 .104-.052.156-.156.156h-.768c-.072 0-.132-.004-.18-.012-.04-.016-.084-.064-.132-.144l-2.148-3.576H73.354l-.744-.036v3.528c0 .064-.02.12-.06.168a.193.193 0 01-.156.072h-.648a.193.193 0 01-.156-.072.254.254 0 01-.06-.168v-8.4c0-.088.02-.148.06-.18.04-.04.116-.068.228-.084.128-.016.276-.028.444-.036a11.467 11.467 0 011.116-.048c.192-.008.376-.012.552-.012.472 0 .912.044 1.32.132.416.088.772.232 1.068.432.304.2.54.464.708.792.176.328.264.736.264 1.224v.084c0 .336-.048.64-.144.912a2.103 2.103 0 01-.384.696c-.168.2-.368.368-.6.504a3.01 3.01 0 01-.756.312l2.184 3.648c.024.04.036.076.036.108zM76.21 48.58c0-.6-.192-1.016-.576-1.248-.384-.232-.952-.348-1.704-.348h-.324c-.12 0-.244.004-.372.012-.12 0-.236.004-.348.012-.112 0-.204.004-.276.012v3.288l.756.024h.564c.368 0 .692-.024.972-.072.288-.056.528-.148.72-.276.192-.128.336-.296.432-.504.104-.216.156-.488.156-.816v-.084zm8.628-1.752c0 .128-.076.192-.228.192h-2.34v7.74c0 .064-.02.12-.06.168a.193.193 0 01-.156.072h-.66a.193.193 0 01-.156-.072.254.254 0 01-.06-.168v-7.74h-2.34a.296.296 0 01-.168-.048.162.162 0 01-.072-.144V46.3c0-.064.024-.116.072-.156a.254.254 0 01.168-.06h5.772c.152 0 .228.072.228.216v.528zm8.242 7.824c0 .096-.036.18-.108.252a.326.326 0 01-.24.096h-.744c-.192 0-.32-.064-.384-.192l-3.708-7.044c-.016-.024-.028-.036-.036-.036-.008 0-.012.012-.012.036v7.008c0 .064-.02.12-.06.168a.211.211 0 01-.156.06h-.624a.426.426 0 01-.156-.024c-.04-.016-.06-.056-.06-.12V46.42c0-.096.032-.176.096-.24a.367.367 0 01.252-.096h.66c.168 0 .28.02.336.06a.445.445 0 01.156.18l3.684 7.008.024.036c.008 0 .012-.012.012-.036v-7.02c0-.064.02-.116.06-.156a.193.193 0 01.156-.072h.636c.064 0 .116.024.156.072.04.04.06.092.06.156v8.34zm7.485.204c0 .04-.012.076-.036.108a.112.112 0 01-.084.06 3.393 3.393 0 01-.456.024l-.624.024c-.216.008-.436.012-.66.012h-.6c-.849 0-1.489-.172-1.92-.516-.425-.344-.636-.916-.636-1.716v-4.62c0-.8.211-1.372.635-1.716.433-.344 1.073-.516 1.92-.516.177 0 .373.004.588.012.225 0 .445.004.66.012.216 0 .42.008.612.024.193.008.353.016.481.024.04.008.068.028.084.06a.176.176 0 01.036.108v.6c0 .096-.044.144-.132.144h-2.317c-.32 0-.576.024-.767.072a.86.86 0 00-.445.216.757.757 0 00-.215.384c-.032.16-.048.352-.048.576V49.9h3.684a.23.23 0 01.168.072.23.23 0 01.072.168v.456a.23.23 0 01-.072.168.23.23 0 01-.168.072h-3.684v2.016c0 .232.015.428.047.588a.83.83 0 00.216.384c.105.096.252.168.445.216.191.04.447.06.767.06h2.317c.088 0 .132.048.132.144v.612zm8.289-.012c0 .104-.052.156-.156.156h-.768c-.072 0-.132-.004-.18-.012-.04-.016-.084-.064-.132-.144l-2.148-3.576H104.582l-.744-.036v3.528c0 .064-.02.12-.06.168a.193.193 0 01-.156.072h-.648a.193.193 0 01-.156-.072.254.254 0 01-.06-.168v-8.4c0-.088.02-.148.06-.18.04-.04.116-.068.228-.084.128-.016.276-.028.444-.036a11.467 11.467 0 011.116-.048c.192-.008.376-.012.552-.012.472 0 .912.044 1.32.132.416.088.772.232 1.068.432.304.2.54.464.708.792.176.328.264.736.264 1.224v.084c0 .336-.048.64-.144.912a2.105 2.105 0 01-.384.696c-.168.2-.368.368-.6.504a3.01 3.01 0 01-.756.312l2.184 3.648c.024.04.036.076.036.108zm-1.416-6.264c0-.6-.192-1.016-.576-1.248-.384-.232-.952-.348-1.704-.348h-.324c-.12 0-.244.004-.372.012-.12 0-.236.004-.348.012-.112 0-.204.004-.276.012v3.288l.756.024h.564c.368 0 .692-.024.972-.072.288-.056.528-.148.72-.276.192-.128.336-.296.432-.504.104-.216.156-.488.156-.816v-.084zm12.361-.432c0 .472-.12.884-.36 1.236-.24.344-.64.704-1.2 1.08l-1.152.78a6.69 6.69 0 00-.828.636 2.863 2.863 0 00-.516.588c-.12.2-.208.408-.264.624a3.161 3.161 0 00-.072.708v.252h4.044c.064 0 .12.02.168.06.048.032.072.08.072.144v.528a.193.193 0 01-.072.156.254.254 0 01-.168.06h-4.764a.254.254 0 01-.168-.06.23.23 0 01-.072-.168V53.8c0-.624.14-1.196.42-1.716.288-.52.76-1 1.416-1.44l1.212-.816a9.79 9.79 0 00.612-.444c.16-.128.284-.252.372-.372.096-.128.16-.256.192-.384.04-.136.06-.296.06-.48 0-.432-.14-.744-.42-.936-.272-.2-.732-.3-1.38-.3-.312 0-.66.02-1.044.06-.384.032-.744.072-1.08.12h-.048c-.128 0-.192-.072-.192-.216v-.42c0-.064.02-.112.06-.144a.533.533 0 01.168-.072c.304-.08.644-.14 1.02-.18.384-.04.756-.06 1.116-.06.976 0 1.696.172 2.16.516.472.344.708.888.708 1.632zm8.129 3.204c0 .664-.068 1.232-.204 1.704-.136.472-.332.86-.588 1.164a2.369 2.369 0 01-.924.66c-.36.136-.768.204-1.224.204-.456 0-.868-.068-1.236-.204a2.369 2.369 0 01-.924-.66c-.256-.304-.452-.692-.588-1.164-.136-.472-.204-1.04-.204-1.704v-1.62c0-.664.068-1.232.204-1.704.136-.472.332-.856.588-1.152.256-.304.564-.524.924-.66.368-.144.78-.216 1.236-.216.456 0 .864.072 1.224.216.36.136.668.356.924.66.256.296.452.68.588 1.152.136.472.204 1.04.204 1.704v1.62zm-1.092-1.62a5.37 5.37 0 00-.132-1.284c-.088-.36-.212-.652-.372-.876a1.443 1.443 0 00-.588-.492 1.774 1.774 0 00-.756-.156c-.28 0-.536.052-.768.156a1.464 1.464 0 00-.576.492c-.16.224-.284.516-.372.876a5.37 5.37 0 00-.132 1.284v1.62c0 .504.044.936.132 1.296.088.352.212.64.372.864.16.224.352.388.576.492.232.104.488.156.768.156s.532-.052.756-.156c.232-.104.428-.268.588-.492.16-.224.284-.512.372-.864.088-.36.132-.792.132-1.296v-1.62zm8.694-1.584c0 .472-.12.884-.36 1.236-.24.344-.64.704-1.2 1.08l-1.152.78a6.69 6.69 0 00-.828.636 2.863 2.863 0 00-.516.588c-.12.2-.208.408-.264.624a3.161 3.161 0 00-.072.708v.252h4.044c.064 0 .12.02.168.06.048.032.072.08.072.144v.528a.193.193 0 01-.072.156.254.254 0 01-.168.06h-4.764a.254.254 0 01-.168-.06.23.23 0 01-.072-.168V53.8c0-.624.14-1.196.42-1.716.288-.52.76-1 1.416-1.44l1.212-.816a9.79 9.79 0 00.612-.444c.16-.128.284-.252.372-.372.096-.128.16-.256.192-.384.04-.136.06-.296.06-.48 0-.432-.14-.744-.42-.936-.272-.2-.732-.3-1.38-.3-.312 0-.66.02-1.044.06-.384.032-.744.072-1.08.12h-.048c-.128 0-.192-.072-.192-.216v-.42c0-.064.02-.112.06-.144a.533.533 0 01.168-.072c.304-.08.644-.14 1.02-.18.384-.04.756-.06 1.116-.06.976 0 1.696.172 2.16.516.472.344.708.888.708 1.632zm8.13 3.204c0 .664-.068 1.232-.204 1.704-.136.472-.332.86-.588 1.164a2.369 2.369 0 01-.924.66c-.36.136-.768.204-1.224.204-.456 0-.868-.068-1.236-.204a2.369 2.369 0 01-.924-.66c-.256-.304-.452-.692-.588-1.164-.136-.472-.204-1.04-.204-1.704v-1.62c0-.664.068-1.232.204-1.704.136-.472.332-.856.588-1.152.256-.304.564-.524.924-.66.368-.144.78-.216 1.236-.216.456 0 .864.072 1.224.216.36.136.668.356.924.66.256.296.452.68.588 1.152.136.472.204 1.04.204 1.704v1.62zm-1.092-1.62a5.37 5.37 0 00-.132-1.284c-.088-.36-.212-.652-.372-.876a1.443 1.443 0 00-.588-.492 1.774 1.774 0 00-.756-.156c-.28 0-.536.052-.768.156a1.464 1.464 0 00-.576.492c-.16.224-.284.516-.372.876a5.37 5.37 0 00-.132 1.284v1.62c0 .504.044.936.132 1.296.088.352.212.64.372.864.16.224.352.388.576.492.232.104.488.156.768.156s.532-.052.756-.156c.232-.104.428-.268.588-.492.16-.224.284-.512.372-.864.088-.36.132-.792.132-1.296v-1.62z"></path> <path fill="#fff" d="M37.697.527h-6.793v26.947h6.793V.527zM21.566 8.249c-.273-.142-2.457-1.439-5.706-1.439-4.4 0-7.444 3.06-7.444 7.188 0 4.004 2.918 7.194 7.444 7.194 3.193 0 5.414-1.27 5.706-1.43v7.232c-.843.239-3.16.958-6.194.958-7.636 0-14.333-5.272-14.333-13.954C1.039 5.95 7.106.049 15.372.049c3.197 0 5.555.778 6.194.967V8.25zM92.566 8.249c-.273-.142-2.457-1.439-5.706-1.439-4.4 0-7.444 3.06-7.444 7.188 0 4.004 2.917 7.194 7.444 7.194 3.193 0 5.413-1.27 5.706-1.43v7.232c-.844.239-3.16.958-6.195.958-7.635 0-14.333-5.272-14.333-13.954C72.038 5.95 78.105.049 86.372.049c3.197 0 5.555.778 6.194.967V8.25zM113.833 6.911c-4.03 0-7.022 3.175-7.022 7.086 0 3.92 2.992 7.093 7.022 7.093 4.026 0 7.027-3.173 7.027-7.093 0-3.911-3.001-7.086-7.027-7.086zm14.224 7.086c0 7.709-5.945 13.955-14.224 13.955s-14.215-6.246-14.215-13.955c0-7.696 5.936-13.948 14.215-13.948s14.224 6.252 14.224 13.948zM63.456 6.653c-.101-.033-2.96-.823-5.31-.823-2.722 0-4.202.913-4.202 2.208 0 1.64 1.996 2.214 3.113 2.567l1.874.597c4.409 1.404 6.418 4.426 6.418 7.708 0 6.77-5.947 9.044-11.145 9.044-3.612 0-6.996-.665-7.33-.736v-6.201c.598.15 3.447 1.001 6.414 1.001 3.38 0 4.933-.988 4.933-2.515 0-1.366-1.345-2.154-3.03-2.684-.41-.138-1.028-.332-1.45-.47-3.782-1.197-6.936-3.422-6.936-7.883 0-5.04 3.77-8.424 10.03-8.424 3.307 0 6.419.804 6.62.858v5.753zM138.114 23.925v.422h-1.201v3.126h-.493v-3.126h-1.207v-.422h2.901zM138.365 23.925h.773l1.06 2.91h.018l1.026-2.91h.757v3.548h-.505v-2.908h-.018l-1.075 2.908h-.467l-1.05-2.908h-.024v2.908h-.495v-3.548z"></path> </svg> 