<?xml version="1.0" encoding="UTF-8"?> <svg xmlns="http://www.w3.org/2000/svg" width="72" height="46" fill="none" viewBox="0 0 72 46"> <path fill="url(#paint0_linear)" fill-rule="evenodd" d="M55.869 17.052c.566-.073 1.144-.109 1.721-.109 7.958 0 14.41 6.515 14.41 14.535S65.548 46 57.59 46H13.158C6.26 45.964.542 40.589.036 33.661c-.506-6.927 4.37-13.09 11.183-14.134a15.45 15.45 0 01-.47-3.785C10.739 8.353 15.843 1.96 22.994.37c7.15-1.59 14.433 2.05 17.515 8.76a11.65 11.65 0 013.864-.655c5.285.012 9.944 3.494 11.497 8.577zm-41.956 3.134l.015-.004-.04-.072.025.076zm6.514-16.25l1.348-.593c-.465.174-.915.372-1.348.592z" clip-rule="evenodd"></path> <defs> <linearGradient id="paint0_linear" x1="36" x2="36" y1="0" y2="50" gradientUnits="userSpaceOnUse"> <stop stop-color="#fff"></stop> <stop offset="1" stop-color="#fff" stop-opacity="0"></stop> </linearGradient> </defs> </svg> 