<?xml version="1.0" encoding="UTF-8"?> <svg xmlns="http://www.w3.org/2000/svg" width="46" height="46" fill="none" viewBox="0 0 46 46"> <path fill="url(#paint0_linear)" fill-rule="evenodd" d="M1.024 14.404a2.3 2.3 0 002.24 1.698c.151 0 .302-.015.45-.044l4.645-.89 3.574-.785a2.263 2.263 0 001.848-2.488l-.437-3.345c-.054-.416.9-.878 1.79-1.012a49.58 49.58 0 0115.583-.04c1.419.244 1.732.472 1.8.557.142.352.163.742.059 1.107l-.313 2.223a2.717 2.717 0 00.346 2.103 3.322 3.322 0 002.111 1.025c.489.094.875.188 1.252.28l.111.027h.004c.437.11.874.218 1.443.326l4.155.802a3.245 3.245 0 002.19-.127 2.82 2.82 0 001.282-2.114l.025-.112c.08-.354.187-.705.294-1.056a8.22 8.22 0 00.484-2.623 6.147 6.147 0 00-2.03-4.101C38.622.605 29.441.002 23.002.002 8.3.002 2.698 4.234.587 7.784a4.236 4.236 0 00-.442 3.258l.878 3.362zm44.814 20.538a2.304 2.304 0 01.162.828v6.396a3.838 3.838 0 01-3.833 3.833H3.836a3.838 3.838 0 01-3.833-3.834V35.77c.002-.264.048-.525.138-.772l.001-.003.023-.052c.07-.191.167-.372.286-.537l9.748-13.225a3.079 3.079 0 012.466-1.247h1.993l.677-5.422a1.533 1.533 0 011.533-1.478h2.3c.847 0 1.534.687 1.534 1.534v5.366h4.6v-5.367c0-.846.686-1.533 1.532-1.533h2.3c.826 0 1.503.653 1.534 1.477l.677 5.423h1.993a3.08 3.08 0 012.47 1.247l9.744 13.224c.118.166.215.346.286.537z" clip-rule="evenodd"></path> <defs> <linearGradient id="paint0_linear" x1="23" x2="23" y1=".002" y2="49.998" gradientUnits="userSpaceOnUse"> <stop stop-color="#fff"></stop> <stop offset="1" stop-color="#fff" stop-opacity="0"></stop> </linearGradient> </defs> </svg> 